<?xml version="1.0" encoding="utf-8"?>
<!-- Generator: Adobe Illustrator 27.5.0, SVG Export Plug-In . SVG Version: 6.00 Build 0)  -->
<svg version="1.1" id="Layer_1" xmlns="http://www.w3.org/2000/svg" xmlns:xlink="http://www.w3.org/1999/xlink" x="0px" y="0px"
	 viewBox="0 0 252.009 196.672" style="enable-background:new 0 0 252.009 196.672;" xml:space="preserve">
<g>
	<g>
		<path style="fill:#FFFFFF;" d="M248.225,110.737c0.014-0.314-0.003-0.631-0.052-0.943c-0.519-3.396-1.256-7.006-2.253-11.04
			c-1.027-4.148-2.209-8.282-3.353-12.282c-1.112-3.889-2.163-7.563-3.08-11.242c-4.871-19.532-8.379-30.093-29.126-37.972
			c-9.014-3.424-17.991-8.052-26.685-13.76c-1.933-1.268-3.816-2.64-5.813-4.093c-5.725-4.166-11.643-8.472-19.043-10.511
			c-4.012-1.104-8.577-1.643-13.96-1.643c-4.847,0-9.566,0.419-14.13,0.822l-1.098,0.099c-9.18,0.808-18.925,2.61-28.968,5.363
			c-8.895,2.44-17.258,5.83-24.854,10.077c-8.371,4.68-15.055,11.168-21.729,17.964c-7.588,7.731-9.547,17.135-11.441,26.227
			c-0.539,2.588-1.098,5.261-1.776,7.804c-3.103,11.615-12.291,19.377-22.019,27.597l-0.701,0.594
			c-1.491,1.26-2.966,2.616-4.382,4.035c-0.128,0.127-0.248,0.264-0.36,0.403c-2.255,2.829-5.028,6.677-6.479,11.369
			c-1.989,6.434-1.518,13.286,1.402,20.364c0.399,0.968,0.806,1.923,1.21,2.874c1.904,4.477,3.703,8.705,4.293,13.268
			c0.169,1.3,0.294,2.652,0.426,4.085c0.503,5.467,1.074,11.664,4.466,17.019c5.624,8.879,15.56,13.574,28.734,13.574
			c0.524,0,1.048-0.008,1.571-0.023c6.935-0.198,13.485-1.589,19.821-2.933c2.714-0.577,5.521-1.173,8.28-1.653
			c10.013-1.749,19.762-2.346,28.995-1.775c9.26,0.572,19.295,1.913,31.58,4.221c2.155,0.405,4.311,0.836,6.474,1.266
			c9.046,1.798,18.399,3.66,27.956,3.819c0.441,0.008,0.884,0.012,1.324,0.012h0.002c13.659,0,25.273-3.596,34.513-10.686
			c7.817-5.996,14.509-13.165,20.98-20.097c1.229-1.315,2.456-2.632,3.69-3.939c0.787-0.831,1.602-1.653,2.418-2.477
			c2.352-2.378,4.784-4.837,6.848-7.741c0.163-0.231,0.306-0.474,0.427-0.729c0.998-2.103,1.929-4.178,2.767-6.17
			c0.978-2.325,1.767-4.716,2.412-7.31c0.036-0.142,0.064-0.286,0.087-0.432c0.264-1.701,0.429-3.412,0.49-5.083
			c0.118-3.107,0.089-6.195,0.061-9.183C248.122,116.717,248.094,113.736,248.225,110.737z"/>
		<path style="fill:#F1F1F1;" d="M248.048,110.346c0.015-0.314-0.003-0.632-0.051-0.944c-0.52-3.394-1.256-7.005-2.254-11.038
			c-1.026-4.149-2.209-8.283-3.353-12.283c-1.111-3.889-2.162-7.563-3.079-11.241c-4.872-19.533-8.38-30.093-29.127-37.973
			c-9.013-3.423-17.991-8.053-26.684-13.76c-1.933-1.268-3.817-2.64-5.813-4.092c-5.725-4.166-11.643-8.473-19.043-10.511
			c-4.012-1.104-8.578-1.643-13.96-1.643c-4.848,0-9.566,0.418-14.131,0.822l-1.098,0.099c-9.179,0.806-18.925,2.61-28.967,5.363
			c-8.895,2.439-17.258,5.829-24.853,10.077c-8.371,4.679-15.056,11.168-21.729,17.964C46.32,48.918,44.36,58.32,42.466,67.412
			c-0.539,2.588-1.097,5.261-1.776,7.804c-3.102,11.614-12.29,19.377-22.018,27.598l-0.702,0.593
			c-1.491,1.26-2.965,2.616-4.381,4.034c-0.128,0.128-0.248,0.265-0.361,0.405c-2.26,2.823-5.028,6.676-6.48,11.368
			c-1.989,6.435-1.517,13.287,1.404,20.365c0.398,0.967,0.805,1.923,1.21,2.873c1.903,4.478,3.702,8.706,4.293,13.268
			c0.168,1.299,0.293,2.652,0.425,4.085c0.503,5.467,1.074,11.665,4.467,17.019c5.624,8.88,15.56,13.574,28.734,13.574
			c0.524,0,1.047-0.008,1.571-0.023c6.934-0.199,13.485-1.589,19.82-2.932c2.714-0.578,5.521-1.174,8.281-1.655
			c10.013-1.749,19.76-2.345,28.995-1.775c9.259,0.572,19.295,1.913,31.58,4.222c2.154,0.405,4.311,0.835,6.473,1.265
			c9.047,1.799,18.399,3.661,27.956,3.82c0.441,0.007,0.884,0.011,1.324,0.011h0.002c13.66,0,25.273-3.596,34.513-10.684
			c7.818-5.997,14.509-13.165,20.979-20.098c1.23-1.314,2.457-2.633,3.691-3.938c0.787-0.832,1.601-1.654,2.417-2.479
			c2.353-2.377,4.794-4.83,6.848-7.741c0.163-0.229,0.307-0.474,0.428-0.729c0.997-2.104,1.929-4.179,2.766-6.171
			c0.977-2.324,1.767-4.716,2.413-7.31c0.036-0.142,0.064-0.285,0.087-0.432c0.263-1.701,0.428-3.412,0.49-5.083
			c0.118-3.107,0.089-6.195,0.061-9.183C247.946,116.325,247.916,113.345,248.048,110.346z"/>
		<path style="fill:#E2E2E2;" d="M247.872,109.956c0.014-0.315-0.003-0.632-0.051-0.944c-0.527-3.396-1.257-7.008-2.254-11.04
			c-1.027-4.148-2.209-8.283-3.353-12.282c-1.112-3.89-2.162-7.563-3.079-11.242c-4.872-19.532-8.38-30.093-29.127-37.972
			c-9.014-3.424-17.991-8.052-26.684-13.76c-1.933-1.268-3.816-2.64-5.813-4.093c-5.724-4.166-11.643-8.472-19.043-10.511
			c-4.012-1.104-8.577-1.643-13.96-1.643c-4.847,0-9.566,0.419-14.13,0.822l-1.098,0.099c-9.18,0.807-18.925,2.61-28.968,5.363
			c-8.895,2.44-17.257,5.829-24.854,10.077c-8.371,4.68-15.055,11.168-21.729,17.964c-7.587,7.731-9.547,17.133-11.441,26.226
			c-0.539,2.588-1.098,5.263-1.776,7.804c-3.103,11.615-12.291,19.378-22.018,27.597l-0.701,0.594
			c-1.491,1.261-2.966,2.617-4.382,4.036c-0.128,0.128-0.248,0.263-0.36,0.404c-2.255,2.828-5.028,6.675-6.479,11.368
			c-1.989,6.435-1.518,13.286,1.402,20.365c0.399,0.967,0.806,1.923,1.21,2.873c1.904,4.477,3.703,8.705,4.293,13.268
			c0.169,1.299,0.294,2.651,0.426,4.083c0.503,5.468,1.074,11.665,4.466,17.019c5.624,8.881,15.56,13.574,28.734,13.574
			c0.525,0,1.048-0.007,1.571-0.023c6.934-0.199,13.485-1.589,19.821-2.933c2.714-0.577,5.521-1.173,8.28-1.654
			c10.013-1.748,19.762-2.346,28.995-1.774c9.26,0.572,19.295,1.913,31.58,4.221c2.155,0.405,4.313,0.835,6.474,1.266
			c9.047,1.798,18.399,3.659,27.956,3.819c0.441,0.008,0.884,0.013,1.325,0.013h0.001c13.66,0,25.272-3.598,34.513-10.687
			c7.817-5.997,14.509-13.165,20.979-20.098c1.229-1.315,2.457-2.631,3.691-3.938c0.787-0.831,1.601-1.653,2.418-2.478
			c2.351-2.378,4.783-4.837,6.847-7.742c0.163-0.23,0.307-0.474,0.427-0.728c0.998-2.103,1.929-4.178,2.767-6.171
			c0.978-2.324,1.767-4.715,2.412-7.308c0.036-0.144,0.065-0.286,0.089-0.433c0.268-1.701,0.427-3.412,0.489-5.083
			c0.117-3.106,0.089-6.196,0.06-9.184C247.77,115.934,247.741,112.954,247.872,109.956z"/>
		<path style="fill:#D4D4D4;" d="M247.695,109.563c0.015-0.314-0.002-0.631-0.051-0.943c-0.519-3.396-1.256-7.007-2.254-11.039
			c-1.026-4.149-2.209-8.284-3.352-12.283c-1.112-3.889-2.163-7.563-3.08-11.241c-4.872-19.533-8.379-30.093-29.126-37.973
			c-9.014-3.423-17.992-8.052-26.685-13.76c-1.933-1.268-3.816-2.639-5.813-4.092c-5.725-4.166-11.643-8.473-19.043-10.512
			c-4.012-1.104-8.577-1.643-13.96-1.643c-4.848,0-9.566,0.418-14.131,0.822l-1.098,0.098c-9.179,0.809-18.924,2.612-28.967,5.364
			c-8.896,2.44-17.258,5.83-24.854,10.077c-8.371,4.68-15.055,11.169-21.729,17.964c-7.588,7.731-9.548,17.134-11.442,26.226
			c-0.539,2.588-1.097,5.261-1.775,7.804c-3.103,11.614-12.291,19.377-22.018,27.597l-0.701,0.594
			c-1.492,1.259-2.966,2.616-4.382,4.034c-0.128,0.128-0.248,0.265-0.361,0.404c-2.26,2.824-5.028,6.677-6.479,11.369
			c-1.989,6.434-1.517,13.286,1.403,20.364c0.398,0.969,0.806,1.923,1.21,2.873c1.903,4.477,3.702,8.707,4.293,13.268
			c0.168,1.3,0.293,2.652,0.425,4.085c0.503,5.467,1.074,11.664,4.467,17.019c5.624,8.88,15.56,13.574,28.734,13.574
			c0.524,0,1.048-0.008,1.571-0.022c6.934-0.199,13.485-1.59,19.82-2.935c2.714-0.576,5.521-1.171,8.281-1.652
			c10.013-1.749,19.761-2.347,28.995-1.775c9.26,0.571,19.295,1.913,31.58,4.221c2.154,0.406,4.312,0.835,6.474,1.266
			c9.046,1.798,18.399,3.66,27.955,3.819c0.441,0.008,0.884,0.012,1.324,0.012h0.002c13.66,0,25.273-3.596,34.513-10.686
			c7.818-5.997,14.51-13.165,20.98-20.097c1.229-1.316,2.456-2.632,3.69-3.939c0.787-0.832,1.601-1.654,2.417-2.479
			c2.352-2.378,4.785-4.837,6.849-7.742c0.162-0.23,0.306-0.473,0.427-0.729c0.997-2.103,1.929-4.177,2.766-6.17
			c0.978-2.325,1.767-4.716,2.413-7.31c0.036-0.142,0.064-0.286,0.087-0.432c0.264-1.702,0.429-3.412,0.49-5.083
			c0.118-3.107,0.089-6.195,0.061-9.184C247.594,115.543,247.565,112.563,247.695,109.563z"/>
		<path style="fill:#C5C5C5;" d="M247.52,109.173c0.015-0.316-0.003-0.632-0.051-0.944c-0.52-3.395-1.257-7.006-2.253-11.039
			c-1.026-4.149-2.209-8.283-3.354-12.283c-1.112-3.889-2.161-7.563-3.078-11.24c-4.873-19.533-8.381-30.093-29.127-37.974
			c-9.014-3.422-17.992-8.051-26.686-13.759c-1.932-1.267-3.816-2.64-5.812-4.093c-5.725-4.165-11.643-8.474-19.044-10.512
			c-4.011-1.104-8.576-1.642-13.958-1.642c-4.849,0-9.567,0.419-14.132,0.822l-1.097,0.098c-9.179,0.808-18.926,2.611-28.968,5.365
			c-8.895,2.438-17.258,5.829-24.854,10.077c-8.37,4.679-15.054,11.166-21.729,17.964c-7.587,7.731-9.547,17.133-11.44,26.226
			c-0.54,2.587-1.098,5.261-1.777,7.802c-3.103,11.615-12.29,19.378-22.019,27.599l-0.7,0.593c-1.491,1.259-2.965,2.617-4.383,4.034
			c-0.128,0.128-0.248,0.264-0.359,0.406c-2.245,2.835-5.029,6.676-6.48,11.369c-1.988,6.433-1.517,13.284,1.403,20.363
			c0.398,0.968,0.805,1.924,1.21,2.873c1.904,4.478,3.702,8.707,4.293,13.268c0.168,1.3,0.293,2.653,0.425,4.084
			c0.504,5.468,1.074,11.666,4.466,17.02c5.624,8.881,15.561,13.573,28.735,13.573c0.524,0,1.048-0.007,1.571-0.021
			c6.934-0.199,13.485-1.59,19.82-2.934c2.714-0.577,5.521-1.172,8.281-1.654c10.013-1.747,19.761-2.344,28.994-1.775
			c9.26,0.573,19.295,1.915,31.58,4.223c2.155,0.404,4.314,0.835,6.474,1.266c9.048,1.798,18.4,3.66,27.957,3.819
			c0.441,0.008,0.883,0.012,1.323,0.012h0.003c13.658,0,25.273-3.597,34.512-10.687c7.817-5.995,14.509-13.163,20.979-20.097
			c1.229-1.314,2.457-2.631,3.691-3.939c0.787-0.832,1.602-1.653,2.417-2.478c2.352-2.378,4.784-4.836,6.848-7.74
			c0.163-0.231,0.307-0.474,0.429-0.729c0.996-2.104,1.928-4.18,2.766-6.172c0.977-2.324,1.76-4.716,2.412-7.309
			c0.035-0.143,0.064-0.285,0.087-0.432c0.263-1.702,0.428-3.414,0.49-5.084c0.118-3.105,0.088-6.195,0.059-9.184
			C247.417,115.151,247.389,112.171,247.52,109.173z"/>
		<path style="fill:#B7B7B7;" d="M247.344,108.781c0.014-0.315-0.003-0.631-0.052-0.943c-0.526-3.395-1.255-7.006-2.252-11.04
			c-1.027-4.148-2.209-8.282-3.354-12.282c-1.111-3.889-2.162-7.563-3.079-11.241c-4.872-19.533-8.379-30.093-29.126-37.973
			c-9.014-3.424-17.991-8.052-26.685-13.76c-1.933-1.267-3.817-2.64-5.813-4.093c-5.726-4.165-11.643-8.472-19.044-10.511
			c-4.011-1.104-8.576-1.643-13.959-1.643c-4.848,0-9.567,0.419-14.131,0.823l-1.098,0.098c-9.179,0.808-18.924,2.611-28.967,5.363
			c-8.896,2.441-17.258,5.831-24.854,10.077c-8.371,4.68-15.055,11.168-21.729,17.964c-7.589,7.731-9.548,17.135-11.442,26.227
			c-0.539,2.588-1.097,5.262-1.776,7.803c-3.102,11.616-12.29,19.379-22.019,27.598l-0.7,0.594c-1.492,1.26-2.966,2.617-4.383,4.035
			c-0.127,0.128-0.248,0.264-0.36,0.403c-2.254,2.829-5.027,6.677-6.479,11.37c-1.989,6.434-1.518,13.285,1.401,20.364
			c0.4,0.967,0.807,1.922,1.211,2.873c1.904,4.477,3.703,8.705,4.293,13.269c0.169,1.3,0.294,2.652,0.424,4.084
			c0.504,5.467,1.074,11.664,4.468,17.019c5.624,8.879,15.56,13.574,28.734,13.574c0.524,0,1.048-0.008,1.57-0.023
			c6.936-0.197,13.486-1.589,19.821-2.933c2.715-0.576,5.521-1.173,8.28-1.653c10.013-1.749,19.762-2.346,28.996-1.775
			c9.26,0.572,19.295,1.913,31.58,4.221c2.154,0.405,4.311,0.836,6.474,1.266c9.046,1.798,18.399,3.66,27.955,3.819
			c0.441,0.008,0.884,0.012,1.324,0.012h0.002c13.66,0,25.273-3.596,34.513-10.686c7.818-5.996,14.51-13.164,20.98-20.097
			c1.229-1.315,2.455-2.631,3.69-3.939c0.786-0.831,1.601-1.652,2.418-2.478c2.352-2.378,4.783-4.837,6.847-7.741
			c0.163-0.231,0.307-0.474,0.428-0.729c0.998-2.102,1.929-4.179,2.767-6.171c0.978-2.325,1.754-4.718,2.411-7.309
			c0.036-0.143,0.064-0.287,0.087-0.433c0.265-1.701,0.43-3.412,0.491-5.082c0.118-3.108,0.089-6.196,0.06-9.185
			C247.241,114.761,247.206,111.78,247.344,108.781z"/>
		<path style="fill:#A8A8A8;" d="M247.167,108.391c0.015-0.316-0.003-0.633-0.051-0.945c-0.526-3.394-1.256-7.006-2.253-11.039
			c-1.026-4.148-2.209-8.283-3.354-12.282c-1.111-3.89-2.161-7.563-3.078-11.24c-4.873-19.533-8.38-30.093-29.127-37.975
			c-9.014-3.421-17.992-8.052-26.684-13.758c-1.932-1.269-3.817-2.641-5.813-4.092c-5.725-4.166-11.644-8.475-19.043-10.513
			c-4.011-1.104-8.577-1.641-13.959-1.641c-4.849,0-9.567,0.416-14.132,0.822l-1.097,0.097c-9.179,0.807-18.925,2.612-28.968,5.365
			c-8.895,2.438-17.257,5.829-24.854,10.076c-8.37,4.68-15.055,11.167-21.728,17.965c-7.588,7.729-9.547,17.132-11.441,26.226
			c-0.54,2.586-1.097,5.261-1.777,7.802c-3.101,11.615-12.29,19.379-22.017,27.598l-0.702,0.593
			c-1.491,1.26-2.971,2.612-4.382,4.035c-0.128,0.129-0.249,0.264-0.36,0.405c-2.245,2.837-5.028,6.677-6.479,11.369
			c-1.989,6.435-1.518,13.285,1.402,20.364c0.399,0.967,0.805,1.924,1.21,2.872c1.904,4.48,3.702,8.708,4.293,13.27
			c0.169,1.3,0.294,2.652,0.425,4.083c0.504,5.468,1.074,11.665,4.468,17.02c5.622,8.88,15.559,13.572,28.734,13.572
			c0.525,0,1.047-0.008,1.57-0.023c6.934-0.197,13.485-1.588,19.82-2.933c2.715-0.576,5.521-1.173,8.281-1.654
			c10.013-1.749,19.762-2.346,28.996-1.775c9.258,0.572,19.293,1.914,31.579,4.224c2.154,0.403,4.313,0.833,6.474,1.263
			c9.047,1.8,18.4,3.661,27.956,3.821c0.441,0.008,0.883,0.012,1.324,0.012h0.002c13.659,0,25.273-3.596,34.513-10.686
			c7.816-5.997,14.508-13.164,20.98-20.096c1.228-1.316,2.455-2.632,3.691-3.939c0.786-0.834,1.601-1.654,2.417-2.48
			c2.351-2.377,4.784-4.835,6.847-7.741c0.163-0.229,0.308-0.474,0.429-0.728c0.996-2.102,1.929-4.179,2.766-6.17
			c0.977-2.324,1.766-4.716,2.412-7.31c0.036-0.142,0.064-0.286,0.087-0.432c0.264-1.703,0.428-3.414,0.49-5.083
			c0.118-3.107,0.09-6.197,0.061-9.185C247.064,114.37,247.03,111.388,247.167,108.391z"/>
		<path style="fill:#9A9A9A;" d="M246.992,107.999c0.014-0.315-0.004-0.632-0.053-0.944c-0.526-3.394-1.256-7.007-2.252-11.039
			c-1.027-4.147-2.209-8.283-3.354-12.282c-1.111-3.89-2.162-7.563-3.079-11.242c-4.871-19.531-8.379-30.093-29.126-37.973
			c-9.014-3.423-17.991-8.052-26.685-13.759c-1.933-1.268-3.817-2.64-5.813-4.093c-5.726-4.165-11.644-8.474-19.043-10.512
			c-4.012-1.105-8.577-1.641-13.96-1.641c-4.848,0-9.567,0.417-14.131,0.822l-1.097,0.098c-9.18,0.807-18.925,2.611-28.968,5.363
			c-8.895,2.439-17.258,5.83-24.854,10.078c-8.371,4.68-15.055,11.166-21.729,17.964c-7.588,7.729-9.547,17.132-11.441,26.225
			c-0.54,2.588-1.098,5.263-1.777,7.803c-3.102,11.616-12.29,19.38-22.018,27.598l-0.702,0.594c-1.49,1.261-2.965,2.618-4.381,4.036
			c-0.128,0.128-0.249,0.262-0.36,0.403c-2.255,2.829-5.028,6.677-6.479,11.37c-1.989,6.434-1.517,13.284,1.401,20.364
			c0.4,0.967,0.807,1.922,1.211,2.873c1.904,4.477,3.702,8.706,4.293,13.269c0.169,1.298,0.294,2.652,0.426,4.082
			c0.503,5.469,1.073,11.666,4.466,17.02c5.624,8.879,15.56,13.572,28.734,13.572c0.524,0,1.048-0.007,1.57-0.021
			c6.935-0.199,13.486-1.589,19.822-2.933c2.714-0.577,5.519-1.173,8.28-1.655c10.013-1.747,19.762-2.345,28.995-1.774
			c9.26,0.572,19.295,1.913,31.58,4.222c2.154,0.404,4.312,0.835,6.474,1.266c9.046,1.798,18.399,3.66,27.956,3.819
			c0.441,0.008,0.884,0.012,1.324,0.012h0.002c13.659,0,25.273-3.597,34.513-10.686c7.817-5.996,14.508-13.163,20.979-20.096
			c1.229-1.315,2.455-2.632,3.69-3.939c0.786-0.833,1.602-1.653,2.418-2.479c2.352-2.379,4.783-4.836,6.847-7.742
			c0.163-0.23,0.307-0.473,0.428-0.728c0.997-2.104,1.929-4.18,2.767-6.172c0.978-2.323,1.752-4.719,2.411-7.308
			c0.036-0.143,0.066-0.287,0.088-0.434c0.258-1.703,0.429-3.412,0.49-5.082c0.117-3.107,0.089-6.195,0.061-9.184
			C246.889,113.979,246.86,110.997,246.992,107.999z"/>
		<path style="fill:#8B8B8B;" d="M246.815,107.608c0.015-0.316-0.004-0.633-0.052-0.945c-0.526-3.395-1.255-7.006-2.253-11.039
			c-1.026-4.147-2.209-8.283-3.352-12.282c-1.111-3.89-2.162-7.563-3.079-11.24c-4.872-19.533-8.38-30.093-29.127-37.975
			c-9.013-3.421-17.991-8.052-26.684-13.758c-1.933-1.269-3.818-2.641-5.813-4.093c-5.725-4.166-11.643-8.474-19.043-10.513
			c-4.012-1.104-8.578-1.641-13.96-1.641c-4.849,0-9.566,0.417-14.131,0.822l-1.098,0.097c-9.179,0.808-18.925,2.613-28.967,5.365
			C90.362,12.846,82,16.237,74.404,20.484c-8.371,4.68-15.056,11.167-21.728,17.964c-7.588,7.73-9.548,17.133-11.442,26.227
			c-0.539,2.586-1.097,5.261-1.776,7.802c-3.102,11.615-12.29,19.379-22.019,27.598l-0.7,0.593c-1.492,1.26-2.972,2.612-4.383,4.035
			c-0.128,0.129-0.248,0.264-0.36,0.405c-2.245,2.836-5.028,6.677-6.479,11.369c-1.989,6.434-1.518,13.284,1.402,20.364
			c0.399,0.967,0.806,1.923,1.211,2.872c1.903,4.479,3.702,8.707,4.293,13.27c0.168,1.3,0.293,2.652,0.425,4.083
			c0.503,5.468,1.073,11.664,4.467,17.02c5.624,8.879,15.56,13.572,28.734,13.572c0.524,0,1.048-0.008,1.57-0.022
			c6.935-0.197,13.486-1.588,19.821-2.934c2.714-0.575,5.52-1.172,8.281-1.653c10.012-1.749,19.761-2.346,28.995-1.775
			c9.259,0.572,19.295,1.913,31.58,4.223c2.154,0.404,4.312,0.834,6.474,1.264c9.046,1.8,18.399,3.66,27.955,3.821
			c0.441,0.008,0.884,0.012,1.324,0.012h0.002c13.66,0,25.273-3.596,34.513-10.688c7.818-5.996,14.51-13.163,20.98-20.095
			c1.229-1.317,2.456-2.632,3.69-3.938c0.787-0.834,1.601-1.654,2.417-2.48c2.353-2.378,4.785-4.835,6.848-7.741
			c0.163-0.23,0.307-0.474,0.428-0.728c0.997-2.102,1.929-4.179,2.766-6.17c0.978-2.325,1.767-4.716,2.413-7.31
			c0.036-0.142,0.065-0.286,0.087-0.432c0.264-1.703,0.429-3.414,0.49-5.083c0.118-3.108,0.089-6.197,0.061-9.185
			C246.714,113.588,246.684,110.605,246.815,107.608z"/>
		<path style="fill:#7D7D7D;" d="M246.639,107.217c0.015-0.316-0.002-0.633-0.05-0.945c-0.52-3.395-1.258-7.006-2.254-11.039
			c-1.027-4.148-2.209-8.283-3.352-12.282c-1.112-3.89-2.162-7.563-3.079-11.241c-4.873-19.532-8.38-30.093-29.127-37.973
			c-9.013-3.422-17.991-8.052-26.685-13.759c-1.933-1.27-3.816-2.641-5.813-4.092c-5.724-4.166-11.643-8.475-19.043-10.513
			c-4.012-1.104-8.577-1.641-13.96-1.641c-4.847,0-9.566,0.417-14.13,0.822l-1.098,0.097c-9.18,0.807-18.925,2.612-28.968,5.365
			c-8.895,2.438-17.257,5.829-24.854,10.077c-8.371,4.679-15.055,11.166-21.729,17.964c-7.587,7.729-9.547,17.132-11.441,26.226
			c-0.539,2.586-1.098,5.262-1.776,7.802C36.179,83.7,26.99,91.464,17.263,99.683l-0.701,0.593
			c-1.491,1.261-2.966,2.618-4.382,4.035c-0.128,0.129-0.248,0.264-0.36,0.406c-2.255,2.828-5.028,6.676-6.479,11.369
			c-1.989,6.434-1.518,13.284,1.402,20.364c0.4,0.967,0.806,1.923,1.21,2.872c1.904,4.479,3.703,8.707,4.293,13.269
			c0.169,1.299,0.294,2.652,0.426,4.083c0.503,5.468,1.074,11.665,4.466,17.02c5.624,8.881,15.561,13.573,28.734,13.573
			c0.525,0,1.048-0.008,1.571-0.021c6.935-0.199,13.485-1.59,19.821-2.933c2.714-0.577,5.521-1.173,8.281-1.655
			c10.012-1.747,19.761-2.346,28.994-1.775c9.26,0.572,19.295,1.914,31.58,4.224c2.155,0.403,4.313,0.833,6.474,1.265
			c9.047,1.799,18.399,3.659,27.956,3.82c0.441,0.007,0.884,0.011,1.324,0.011h0.002c13.659,0,25.272-3.596,34.512-10.687
			c7.818-5.996,14.509-13.163,20.979-20.097c1.23-1.315,2.457-2.631,3.691-3.938c0.787-0.833,1.602-1.653,2.418-2.48
			c2.352-2.377,4.784-4.835,6.848-7.74c0.162-0.229,0.306-0.474,0.427-0.727c0.997-2.105,1.929-4.18,2.767-6.171
			c0.977-2.325,1.767-4.717,2.412-7.309c0.036-0.144,0.064-0.286,0.088-0.433c0.268-1.702,0.428-3.414,0.489-5.083
			c0.117-3.106,0.089-6.197,0.06-9.184C246.537,113.195,246.501,110.214,246.639,107.217z"/>
		<path style="fill:#6E6E6E;" d="M246.463,106.826c0.014-0.316-0.002-0.633-0.051-0.945c-0.519-3.396-1.256-7.006-2.254-11.04
			c-1.026-4.146-2.209-8.282-3.352-12.282c-1.112-3.889-2.163-7.563-3.08-11.24c-4.872-19.532-8.379-30.093-29.126-37.974
			c-9.014-3.422-17.992-8.052-26.684-13.758c-1.934-1.27-3.816-2.642-5.813-4.093c-5.725-4.166-11.643-8.474-19.044-10.513
			c-4.011-1.105-8.576-1.641-13.959-1.641c-4.847,0-9.566,0.417-14.13,0.822l-1.099,0.097c-9.18,0.808-18.924,2.612-28.967,5.365
			c-8.896,2.439-17.258,5.83-24.854,10.076c-8.371,4.681-15.055,11.167-21.728,17.964c-7.588,7.73-9.548,17.134-11.442,26.228
			c-0.539,2.586-1.097,5.261-1.775,7.801c-3.103,11.616-12.291,19.38-22.018,27.598l-0.701,0.594
			c-1.492,1.26-2.972,2.612-4.383,4.035c-0.128,0.129-0.247,0.263-0.36,0.405c-2.255,2.828-5.027,6.676-6.479,11.369
			c-1.989,6.434-1.517,13.284,1.403,20.364c0.398,0.966,0.806,1.923,1.21,2.872c1.902,4.479,3.702,8.706,4.293,13.27
			c0.168,1.3,0.293,2.652,0.424,4.082c0.504,5.468,1.075,11.665,4.468,17.02c5.624,8.88,15.559,13.573,28.734,13.573
			c0.524,0,1.048-0.008,1.571-0.023c6.933-0.196,13.485-1.587,19.82-2.933c2.714-0.576,5.521-1.173,8.28-1.653
			c10.013-1.749,19.762-2.346,28.996-1.775c9.26,0.572,19.295,1.913,31.58,4.223c2.154,0.403,4.312,0.834,6.474,1.264
			c9.046,1.8,18.4,3.66,27.955,3.821c0.441,0.008,0.884,0.012,1.324,0.012h0.002c13.66,0,25.273-3.596,34.513-10.688
			c7.818-5.996,14.51-13.163,20.98-20.095c1.229-1.317,2.456-2.632,3.69-3.939c0.787-0.833,1.601-1.653,2.417-2.479
			c2.353-2.378,4.785-4.835,6.849-7.741c0.162-0.229,0.306-0.474,0.427-0.727c0.997-2.103,1.928-4.18,2.766-6.171
			c0.978-2.324,1.767-4.715,2.413-7.309c0.036-0.143,0.064-0.286,0.087-0.432c0.271-1.702,0.429-3.414,0.49-5.083
			c0.118-3.107,0.089-6.197,0.061-9.186C246.361,112.805,246.326,109.823,246.463,106.826z"/>
		<path style="fill:#606060;" d="M246.287,106.435c0.015-0.316-0.003-0.633-0.051-0.945c-0.52-3.395-1.257-7.006-2.254-11.039
			c-1.026-4.147-2.209-8.283-3.353-12.282c-1.112-3.89-2.162-7.563-3.079-11.24c-4.872-19.533-8.38-30.093-29.127-37.975
			c-9.013-3.421-17.991-8.052-26.685-13.758c-1.932-1.27-3.816-2.641-5.813-4.092c-5.724-4.166-11.643-8.475-19.043-10.513
			c-4.011-1.105-8.577-1.641-13.959-1.641c-4.848,0-9.566,0.416-14.131,0.822l-1.098,0.096c-9.179,0.808-18.925,2.613-28.968,5.366
			c-8.895,2.438-17.257,5.829-24.854,10.076c-8.371,4.68-15.055,11.167-21.728,17.964c-7.588,7.73-9.548,17.133-11.442,26.226
			c-0.539,2.586-1.097,5.261-1.776,7.802C35.826,82.918,26.638,90.682,16.91,98.9l-0.7,0.593c-1.492,1.26-2.966,2.618-4.383,4.035
			c-0.128,0.129-0.248,0.264-0.36,0.405c-2.255,2.829-5.028,6.677-6.479,11.369c-1.989,6.435-1.518,13.285,1.403,20.364
			c0.398,0.967,0.805,1.923,1.209,2.872c1.904,4.48,3.703,8.708,4.293,13.27c0.169,1.3,0.294,2.652,0.426,4.083
			c0.503,5.468,1.074,11.664,4.466,17.021c5.624,8.88,15.561,13.572,28.734,13.572c0.525,0,1.048-0.008,1.572-0.022
			c6.934-0.197,13.485-1.588,19.82-2.933c2.714-0.576,5.521-1.173,8.281-1.654c10.013-1.749,19.761-2.346,28.994-1.775
			c9.26,0.572,19.295,1.914,31.58,4.223c2.155,0.404,4.313,0.834,6.474,1.264c9.047,1.8,18.4,3.661,27.956,3.821
			c0.441,0.008,0.884,0.012,1.324,0.012h0.002c13.659,0,25.273-3.596,34.513-10.687c7.817-5.997,14.509-13.164,20.98-20.096
			c1.229-1.316,2.457-2.632,3.691-3.938c0.787-0.834,1.601-1.654,2.417-2.48c2.352-2.377,4.784-4.835,6.848-7.741
			c0.163-0.229,0.306-0.474,0.428-0.727c0.997-2.103,1.929-4.179,2.766-6.17c0.978-2.325,1.767-4.716,2.413-7.31
			c0.035-0.142,0.064-0.286,0.087-0.432c0.263-1.703,0.428-3.414,0.489-5.083c0.119-3.107,0.089-6.197,0.061-9.185
			C246.184,112.414,246.156,109.432,246.287,106.435z"/>
	</g>
	<path style="fill:#FFFFFF;" d="M246.287,106.435c0.015-0.316-0.003-0.633-0.051-0.945c-0.52-3.395-1.257-7.006-2.254-11.039
		c-1.026-4.147-2.209-8.283-3.353-12.282c-1.112-3.89-2.162-7.563-3.079-11.24c-4.872-19.533-8.38-30.093-29.127-37.975
		c-9.013-3.421-17.991-8.052-26.685-13.758c-1.932-1.27-3.816-2.641-5.813-4.092c-5.724-4.166-11.643-8.475-19.043-10.513
		c-4.011-1.105-8.577-1.641-13.959-1.641c-4.848,0-9.566,0.416-14.131,0.822l-1.098,0.096c-9.179,0.808-18.925,2.613-28.968,5.366
		c-8.895,2.438-17.257,5.829-24.854,10.076c-8.371,4.68-15.055,11.167-21.728,17.964c-7.588,7.73-9.548,17.133-11.442,26.226
		c-0.539,2.586-1.097,5.261-1.776,7.802C35.826,82.918,26.638,90.682,16.91,98.9l-0.7,0.593c-1.492,1.26-2.966,2.618-4.383,4.035
		c-0.128,0.129-0.248,0.264-0.36,0.405c-2.255,2.829-5.028,6.677-6.479,11.369c-1.989,6.435-1.518,13.285,1.403,20.364
		c0.398,0.967,0.805,1.923,1.209,2.872c1.904,4.48,3.703,8.708,4.293,13.27c0.169,1.3,0.294,2.652,0.426,4.083
		c0.503,5.468,1.074,11.664,4.466,17.021c5.624,8.88,15.561,13.572,28.734,13.572c0.525,0,1.048-0.008,1.572-0.022
		c6.934-0.197,13.485-1.588,19.82-2.933c2.714-0.576,5.521-1.173,8.281-1.654c10.013-1.749,19.761-2.346,28.994-1.775
		c9.26,0.572,19.295,1.914,31.58,4.223c2.155,0.404,4.313,0.834,6.474,1.264c9.047,1.8,18.4,3.661,27.956,3.821
		c0.441,0.008,0.884,0.012,1.324,0.012h0.002c13.659,0,25.273-3.596,34.513-10.687c7.817-5.997,14.509-13.164,20.98-20.096
		c1.229-1.316,2.457-2.632,3.691-3.938c0.787-0.834,1.601-1.654,2.417-2.48c2.352-2.377,4.784-4.835,6.848-7.741
		c0.163-0.229,0.306-0.474,0.428-0.727c0.997-2.103,1.929-4.179,2.766-6.17c0.978-2.325,1.767-4.716,2.413-7.31
		c0.035-0.142,0.064-0.286,0.087-0.432c0.263-1.703,0.428-3.414,0.489-5.083c0.119-3.107,0.089-6.197,0.061-9.185
		C246.184,112.414,246.156,109.432,246.287,106.435z"/>
	<g>
		<radialGradient id="SVGID_1_" cx="78.6029" cy="-94.568" r="284.3145" gradientUnits="userSpaceOnUse">
			<stop  offset="0" style="stop-color:#E3F3FC"/>
			<stop  offset="0.2199" style="stop-color:#AEB7BD"/>
			<stop  offset="0.6059" style="stop-color:#8CA4AF"/>
			<stop  offset="1" style="stop-color:#393B3D"/>
		</radialGradient>
		<path style="fill:url(#SVGID_1_);" d="M19.339,103.199c-1.414,1.193-2.774,2.449-4.079,3.757c-2.366,2.969-4.525,6.18-5.639,9.779
			c-1.788,5.784-1.036,11.534,1.253,17.081c2.375,5.758,5.02,11.113,5.829,17.369c0.822,6.349,0.637,13.538,4.18,19.131
			c5.657,8.933,16.034,11.585,26.069,11.297c9.404-0.267,18.204-2.91,27.405-4.517c9.955-1.737,20.031-2.461,30.129-1.837
			c10.795,0.666,21.553,2.3,32.177,4.296c11.095,2.084,22.275,4.813,33.615,5.002c11.77,0.199,23.319-2.395,32.805-9.674
			c8.938-6.855,16.392-15.362,24.098-23.517c2.973-3.146,6.311-6.144,8.835-9.698c0.953-2.008,1.852-4.007,2.678-5.97
			c0.921-2.193,1.627-4.395,2.178-6.603c0.229-1.488,0.38-2.997,0.437-4.525c0.232-6.144-0.131-12.252,0.135-18.349
			c-0.542-3.545-1.296-7.084-2.168-10.607c-1.969-7.955-4.514-15.833-6.43-23.515c-4.593-18.415-7.378-27.484-26.143-34.611
			c-9.696-3.684-18.959-8.551-27.624-14.239c-7.586-4.981-14.541-11.521-23.482-13.983c-8.601-2.368-18.689-1.34-27.476-0.567
			c-9.481,0.834-18.935,2.696-28.108,5.212c-8.283,2.271-16.271,5.439-23.771,9.632c-7.924,4.43-14.321,10.7-20.633,17.129
			c-8.645,8.808-8.988,20.635-11.993,31.883C40.038,85.943,29.675,94.459,19.339,103.199z"/>
		<path style="opacity:0.2;fill:#576065;" d="M241.442,106.223c-0.542-3.545-1.296-7.084-2.168-10.607
			c-1.969-7.955-4.514-15.833-6.43-23.515c-4.593-18.415-7.378-27.484-26.143-34.611c-9.696-3.684-18.959-8.551-27.624-14.239
			c-7.586-4.981-14.541-11.521-23.482-13.983c-8.601-2.368-18.689-1.34-27.476-0.567c-9.481,0.834-18.935,2.696-28.108,5.212
			c-8.283,2.271-16.271,5.439-23.771,9.632c-7.924,4.43-14.321,10.7-20.633,17.129c-8.645,8.808-8.988,20.635-11.993,31.883
			c-3.577,13.389-13.94,21.904-24.276,30.645c-1.414,1.193-2.774,2.449-4.079,3.757c-2.366,2.969-4.525,6.18-5.639,9.779
			c-1.788,5.784-1.036,11.534,1.253,17.081c2.375,5.758,5.02,11.113,5.829,17.369c0.822,6.349,0.637,13.538,4.18,19.131
			c5.657,8.933,16.034,11.585,26.069,11.297c9.404-0.267,18.204-2.91,27.405-4.517c9.955-1.737,20.031-2.461,30.129-1.837
			c10.795,0.666,21.553,2.3,32.177,4.296c11.095,2.084,22.275,4.813,33.615,5.002c11.77,0.199,23.319-2.395,32.805-9.674
			c8.938-6.855,16.392-15.362,24.098-23.517c2.973-3.146,6.311-6.144,8.835-9.698c0.953-2.008,1.852-4.007,2.678-5.97
			c0.921-2.193,1.627-4.395,2.178-6.603c0.229-1.488,0.38-2.997,0.437-4.525C241.54,118.427,241.177,112.319,241.442,106.223z
			 M227.498,90.028c-1.673,0.208-6.581-1.187-7.046,1.544c-0.273,1.616-0.283,3.243-0.229,4.876
			c0.141,4.262-0.632,8.696-1.16,12.925c-0.1,0.798-0.967,1.034-1.455,0.395c-1.777-2.325-3.017-4.97-4.537-7.447
			c0.367,2.528,1.437,4.927,1.627,7.538c0.029,0.397-0.379,0.818-0.78,0.782c-5.003-0.462-9.974-2.957-15.035-2.425
			c-3.843,0.403-1.089,9.573-1.099,11.948c-0.031,8.217-9.09,11.754-12.292,18.703c-0.331,0.72-1.477,0.351-1.455-0.394
			c0.214-7.171,3.178-13.552,6.826-19.567c-4.855,1.791-8.034,6.55-11.557,10.178c-0.45,0.464-1.089,0.17-1.305-0.345
			c-1.036-2.469-1.231-5.063-1.353-7.683c-1.438,2.741-2.607,5.623-4.494,8.11c-0.37,0.489-0.983,0.51-1.349,0
			c-1.16-1.606-1.769-3.372-2.348-5.214c-1.392,1.479-2.73,3.132-4.186,4.403c-1.523,1.33-0.411,2.8-0.314,4.371
			c0.155,2.47-2.232,3.949-4.116,5.183c-2.821,1.846-4.738,2.732-8.033,1.406c-1.542-0.62-2.84-1.723-3.819-3.062
			c0.02,0.347,0.034,0.686,0.02,1.006c-0.019,0.466-0.492,0.943-0.988,0.754c-0.597-0.229-1.186-0.371-1.787-0.498
			c0.467,3.086,1.408,6.063,1.563,9.201c0.021,0.413-0.371,0.798-0.78,0.783c-3.223-0.135-6.322-0.993-9.475-1.527
			c3.893,2.152,8.869,5.105,7.476,8.963c-0.587,1.628-1.984,2.832-2.783,4.341c-0.688,1.298-1.15,2.971-2.124,4.09
			c-1.757,2.021-4.62,2.231-7.142,1.951c-8.694-0.968-17.729-3.787-26.04-6.416c-4.946-1.567-9.879-3.18-14.926-4.398
			c-1.729-0.417-4.513-0.667-5.341-2.604c-1.336-3.126-0.522-5.621,0.057-8.828c0.343-1.896,0.963-4.688-1.782-5.436
			c-0.695-0.189-1.444-0.35-2.092-0.673c-1.082-0.536-2.056-1.087-2.929-1.919c-3.315-3.16,3.749-6.282,4.112-8.94
			c0.548-3.986-5.723-6.254-6.179-10.185c-0.109-0.949-0.164-1.664-0.026-2.62c0.189-1.328,0.982-2.679-0.007-2.628
			c-1.394,0.072-2.786,0.165-4.18,0.22c-1.419,0.057-4.797,0.707-5.986-0.481c-1.383-1.383-0.878-3.219-1.145-4.797
			c-1.197-0.159-2.441-0.138-3.781,0.169c-7.826,1.798-13.478,5.661-17.732,12.441c-1.999,3.187-3.596,4.283-7.049,4.499
			c0.995,3.892,0.681,8.082,2.563,11.718c0.158,0.307,0.142,0.697-0.123,0.947c-1.077,1.016-2.342,1.921-3.325,3.029
			c-0.75,0.847-0.979,1.552-0.883,2.141c1.443,1.518,5.029,2.027,6.79,2.691c0.419,0.157,0.79,0.358,1.157,0.57
			c0.999,0.233,1.961,0.548,2.887,1.016c0.863-0.047,1.702-0.367,2.638-0.566c0.459-0.097,1.035,0.218,0.989,0.754
			c-0.111,0.631-0.142,1.26-0.099,1.889c2.137-0.248,4.276-0.335,6.385-0.863c0.623-0.157,1.054,0.381,0.96,0.96
			c-0.729,4.593-2.927,9.059-6.122,12.429c-2.96,3.122-5.123,7.5-8.786,9.862c-0.393,0.254-1.067,0.024-1.147-0.466
			c-1.078-6.582-2.183-13.691-6.227-19.214c-2.077-2.837-7.513-9.043-11.147-4.728c-1.517,1.8-2.387,3.977-3.51,6.021
			c-0.267,0.486-1.094,0.53-1.349,0c-1.239-2.585-1.721-5.334-2.079-8.162c-0.531-4.202-1.512-8.205-2.405-12.333
			c-1.224-5.653-2.136-11.853,1.659-16.76c0.947-1.224,2.036-2.395,3.193-3.525c1.785-1.965,3.956-3.692,6.12-5.276
			c0.684-0.542,1.363-1.076,2.027-1.595c1.276-0.999,2.986-2.569,4.795-3.521c3.836-3.285,7.151-7.229,9.749-11.595
			c2.181-4.866,3.912-9.918,5.261-15.217c2.053-8.072,3.287-17.939,8.141-25.012c3.033-5.339,7.965-9.66,12.864-13.195
			c8.046-5.807,16.825-10.531,26.383-13.296c9.538-2.758,20.077-6.547,30.131-5.712c0.909,0.076,1.025,1.205,0.207,1.535
			c-5.21,2.101-10.772,3.63-15.692,6.388c-5.711,3.2-10.022,7.751-13.56,13.228c-1.576,2.438-2.801,4.949-4.17,7.487
			c-0.408,0.758-1.247,2.698-2.226,2.967c-1.961,0.54-2.977,0.731-4.158,2.605c-0.422,0.671-0.827,1.421-1.317,2.044
			c-1.895,2.406-6.711,7.459-1.11,9.412c2.295,0.8,5.325,1.856,5.362,4.823c0.025,2.084-0.558,4.026-0.984,6.052
			c-0.479,2.282-0.222,4.295-0.037,6.583c0.257,3.21,0.317,6.425-2.607,8.425c-3.234,2.213-7.935,3.022-10.594,6.018
			c3.153,1.266,6.468,2.014,9.715,2.985c4.297,0.745,8.703,1.097,13.006,1.927c0.398,0.076,0.681,0.582,0.546,0.961
			c-0.893,2.518,4.224,2.308,5.14,4.45c0.709,1.653,0.014,3.317-0.474,4.988c4.346-0.963,9.573-2.223,10.17,3.884
			c0.198,2.036,0.048,4.056,0.119,6.095c0.02,0.516-0.03,4.569,1.698,2.592c0.507-0.54,0.916-1.145,1.225-1.813
			c0.967-2.156,1.469-4.604,3.369-6.163c1.772-1.455,4.674-0.763,6.714-0.439c1.556,0.248,3.876-0.196,5.124,0.997
			c4.304,4.109,1.223,12.432,1.664,17.928c4.714-4.154,6.282-10.66,9.6-15.84c0.03-0.048,0.063-0.095,0.093-0.143
			c1.416-3.523,3.524-5.49,6.77-7.478c4.126-2.523,8.733-7.072,13.546-8.078c4.374-0.915,8.216,0.951,11.822,3.223
			c-0.072-2.045-0.618-4.053-0.755-6.108c-0.033-0.502,0.524-0.895,0.987-0.752c2.529,0.766,13.335,4.401,14.037,0.141
			c0.37-2.255,0.814-6.406-1.093-8.15c-1.396-1.277-3.208-1.882-4.612-3.115c-4.87-4.275,2.333-13.784,3.803-18.399
			c0.102-0.32,0.399-0.593,0.754-0.574c3.422,0.188,6.26-0.434,8.213-3.437c1.328-2.044,2.501-4.164,3.965-6.119
			c0.701-0.937,1.637-1.785,2.225-2.799c0.975-1.68-2.686-2.095-3.551-2.336c-2.095-0.585-4.275-1.176-6.22-2.181
			c-8.55-4.416,4.322-9.088,8.849-8.836c1.463,0.084,2.895,1.012,3.989,1.9c2.171,1.762,4.241,3.456,6.655,4.89
			c3.885,2.312,8.177,4.48,11.032,8.092c2.971,3.755,2.033,9.348,2.479,13.769c0.682,6.764,3.654,13.065,4.126,19.904
			C228.311,89.71,227.896,89.977,227.498,90.028z"/>
		<g>
			
				<radialGradient id="SVGID_00000103235328008347114050000000728431459467042494_" cx="193.5477" cy="139.2024" r="147.915" gradientUnits="userSpaceOnUse">
				<stop  offset="0" style="stop-color:#E3F3FC"/>
				<stop  offset="0.2199" style="stop-color:#AEB7BD"/>
				<stop  offset="0.6059" style="stop-color:#8CA4AF"/>
				<stop  offset="1" style="stop-color:#393B3D"/>
			</radialGradient>
			<path style="fill:url(#SVGID_00000103235328008347114050000000728431459467042494_);" d="M191.169,56.207
				c-2.714-2.277-6.023-3.676-9.208-5.172c-1.809-0.849-3.669-1.576-5.505-2.364c-1.582-0.681-2.259-5.85-2.946-7.321
				c-0.582-1.242-2.145-2.318-3.125-3.241c-2.749-2.59,0.61-7.802,2.229-10.022c1.099-1.504,2.612-3.054,2.824-4.979
				c0.049-0.454-0.481-0.496-0.784-0.381c-3.748,1.436-10.271,8.429-14.098,6.3c-2.739-1.525-5.132-2.614-8.179-3.437
				c-2.91-0.785-5.872-1.143-6.639-4.468c-0.551-2.387-2.869-0.903-3.558,0.518c-0.093,0.19-0.923,1.887-1.112,2.351
				c-0.03-0.002-0.061-0.006-0.091-0.006c-0.514-1.055-0.733-2.309-1.003-3.433c-0.372-1.55,0.082-3.707-1.604-4.567
				c-0.22-0.112-0.527-0.004-0.717,0.119c-1.188,0.77-1.632,1.983-2.127,3.275c-0.447,1.163-0.682,2.39-1.004,3.587
				c-0.129,0.477-0.497,0.863-1.012,1.182c-3.315,0.264-6.614,0.749-9.778,1.366c-0.004,0-0.011,0-0.016,0
				c-2.546-0.068-4.298-0.684-6.482,0.776c-1.53,1.025-2.67-1.735-4.322-2.076c-0.312-0.064-0.672,0.216-0.852,0.436
				c-1.069,1.308-1.527,3.029-1.925,4.732c-0.445,0.191-0.885,0.391-1.32,0.596c-0.523-0.429-1.022-0.87-1.515-1.317
				c-0.783-0.979-2.796-2.495-2.83-2.504c-0.03-0.025-0.059-0.05-0.09-0.074c-0.485-0.391-1.303,0.331-1.182,0.875
				c0.387,1.741,0.946,3.488,1.573,5.233c-4.836,3.042-8.828,7.184-11.43,12.765c-1.357,2.91-2.272,6.008-2.81,9.183
				c-3.971-0.015-9.182-0.047-10.477,0.77c-0.399,0.252,6.583,4.41,9.514,6.905c0.15,0.127,0.268,0.264,0.391,0.398
				c0.049,2.173,0.246,4.34,0.589,6.478c-0.479,1.893-1.053,3.787-0.724,5.361c0.323,1.542,2.989,2.247,0.69,4.164
				c-0.67,0.559-1.594,1.368-1.855,2.243c-0.608,2.031,1.195,3.219,2.925,3.896c-3.604,2.712-8.79,4.244-11.144,7.952
				c-1.763,2.777,16.542,3.512,19.959,3.06c3.482-0.463,2.005,1.309,2.325,2.985c0.161,0.844,2.021,0.608,2.515,0.599
				c1.095-0.021-0.819,3.634-0.916,4.382c-0.024,0.195,0.097,0.395,0.269,0.476c1.591,0.756,3.422-0.113,5.014-0.583
				c2.548-0.756,2.633,0.333,3.226,2.802c0.364,1.521,0.45,3.056,0.979,4.534c0.183,0.506,0.798,0.314,1.139,0.127
				c2.473-1.358,4.354-3.261,6.139-5.324c4.545,1.052,9.262,1.042,13.942,0.421c0.189,1.449,0.237,2.896,0.29,3.362
				c0.268,2.332,0.476,4.661,0.815,6.983c0.134,0.909,1.527-0.149,1.705-0.479c1.383-2.558,2-5.499,2.782-8.286
				c0.354-1.266,1.084-2.265,2.037-3.081c2.152-0.551,4.269-1.188,6.329-1.864c1.869-0.613,3.699-1.377,5.476-2.268
				c0.303-0.073,0.601-0.149,0.885-0.228c2.232-0.611,4.96-1.603,6.508-3.459c0.629-0.754,1.066-1.421,1.472-2.223
				c0.45-0.384,0.896-0.776,1.33-1.178c1.514,0.267,4.162,2.661,4.948,3.195c0.639,0.435,1.741-0.729,1.549-1.363
				c-0.624-2.054-1.45-4.085-1.996-6.173c4.572,1.745,8.884,4.063,13.304,6.076c0.602,0.272,1.884-0.671,1.539-1.354
				c-1.257-2.495-4.113-4.905-6.342-6.504c-1.593-1.145-3.147-2.238-4.471-3.692c-0.141-0.156-0.215-0.362-0.258-0.594
				c0.157-0.278,0.322-0.551,0.472-0.831c0.512-0.953,0.939-1.922,1.328-2.896c0.847-1.633,1.529-3.313,2.071-5.021
				c1.231-2.072,3.646-4.533,3.216-6.962c-0.043-0.241-1.005-1.01-1.702-1.596c0.016-0.323,0.037-0.647,0.045-0.972
				c1.993-0.583,4.456-0.381,6.44-0.578c0.485-0.049,1.628-1.019,1.054-1.555c-1.955-1.821-4.522-3.388-7.057-4.684
				c3.718-0.244,7.346,0.079,11.14,0.157C190.43,57.729,191.841,56.771,191.169,56.207z"/>
			<path style="opacity:0.6;fill:#B3E4FA;" d="M170.27,25.362c-1.406,0.968-2.81,1.947-4.309,2.753
				c-0.747,0.403-1.527,0.752-2.338,0.978c-0.807,0.244-1.673,0.278-2.455,0.045l-0.572-0.232l-0.564-0.306l-1.126-0.609
				c-0.758-0.396-1.544-0.749-2.318-1.116c-0.804-0.304-1.586-0.663-2.406-0.919c-0.818-0.25-1.635-0.54-2.463-0.744
				c-0.829-0.219-1.652-0.425-2.44-0.711c-0.781-0.292-1.53-0.671-2.11-1.235c-0.576-0.565-0.96-1.3-1.151-2.094
				c-0.076-0.238-0.102-0.405-0.209-0.64c-0.102-0.233-0.24-0.447-0.441-0.618c-0.411-0.361-1.026-0.373-1.462-0.2
				c-0.893,0.351-1.56,1.008-1.991,1.849l-0.87,1.817c-0.077-0.185-0.151-0.374-0.2-0.574c-0.11-0.362-0.213-0.73-0.294-1.108
				l-0.262-1.139c-0.07-0.353-0.137-0.762-0.159-1.118c-0.039-0.375-0.054-0.771-0.112-1.171c-0.02-0.198-0.053-0.399-0.106-0.604
				c-0.045-0.203-0.088-0.408-0.187-0.604c-0.087-0.199-0.158-0.405-0.313-0.574c-0.141-0.175-0.258-0.373-0.455-0.485l-0.272-0.193
				l-0.139-0.097l-0.017-0.011l-0.004-0.002c-0.028-0.014,0.059,0.02-0.066-0.028l-0.009-0.002l-0.035-0.01l-0.07-0.019
				c-0.057-0.03-0.344-0.026-0.456,0.009c-0.125,0.036-0.244,0.082-0.353,0.148c-0.226,0.146-0.331,0.236-0.504,0.365
				c-0.154,0.153-0.332,0.302-0.46,0.466c-0.271,0.322-0.502,0.673-0.684,1.037c-0.191,0.361-0.341,0.732-0.489,1.099
				c-0.074,0.191-0.141,0.345-0.217,0.566l-0.175,0.557c-0.242,0.739-0.462,1.489-0.645,2.257l-0.146,0.57l-0.037,0.142
				c0.015-0.038-0.028,0.066-0.039,0.093c-0.039,0.082-0.071,0.203-0.116,0.248c-0.114,0.188-0.379,0.415-0.643,0.594l-4.829,0.517
				l-4.84,0.796l-1.073-0.061l-1.115-0.085c-0.374-0.034-0.768-0.032-1.154-0.044c-0.395,0.034-0.792,0.024-1.186,0.127
				c-0.402,0.06-0.78,0.204-1.156,0.352c-0.356,0.138-0.745,0.405-1.016,0.542l-0.248,0.131c-0.05,0.003-0.089,0.007-0.131,0.024
				c-0.111,0.007-0.23-0.006-0.357-0.048c-0.258-0.091-0.533-0.301-0.8-0.532c-0.542-0.462-1.058-1.052-1.815-1.468
				c-0.381-0.175-0.811-0.447-1.481-0.056c-0.204,0.141-0.384,0.288-0.528,0.51l-0.311,0.468l-0.311,0.467
				c-0.091,0.172-0.171,0.363-0.255,0.545c-0.162,0.368-0.351,0.739-0.446,1.104c-0.229,0.661-0.397,1.326-0.561,1.989l-0.874,0.393
				l-1.293-1.129l0.048,0.051l-0.689-0.726c-0.23-0.24-0.48-0.432-0.72-0.651c-0.24-0.216-0.486-0.421-0.738-0.62l-0.374-0.299
				c-0.061-0.052-0.17-0.127-0.255-0.186l-0.277-0.177l0.159,0.082l-0.089-0.074l-0.089-0.057l-0.007-0.002l-0.012-0.008
				l-0.026-0.012l-0.052-0.026c-0.04-0.017-0.056-0.032-0.116-0.053c-0.081-0.021-0.17-0.036-0.259-0.042
				c-0.201-0.019-0.296,0.028-0.415,0.064c-0.125,0.032-0.209,0.097-0.305,0.155c-0.184,0.123-0.334,0.273-0.449,0.467
				c-0.115,0.185-0.21,0.42-0.183,0.712c0.005,0.167,0.043,0.224,0.056,0.298l0.059,0.222l0.118,0.446l0.236,0.891
				c0.144,0.595,0.32,1.188,0.53,1.779l0.479,1.436l-1.12,0.751c-0.483,0.303-0.915,0.68-1.374,1.019
				c-0.458,0.34-0.903,0.697-1.324,1.086c-0.421,0.387-0.873,0.737-1.268,1.152l-1.201,1.222l-1.115,1.304
				c-0.385,0.424-0.703,0.901-1.042,1.361c-0.338,0.463-0.685,0.917-0.969,1.416l-0.895,1.464l-0.784,1.523
				c-0.28,0.502-0.48,1.061-0.702,1.563c-0.211,0.525-0.458,1.021-0.628,1.577l-0.555,1.631c-0.178,0.546-0.301,1.101-0.456,1.65
				c-0.151,0.549-0.296,1.101-0.395,1.661l-0.255,1.282c-1.782-0.004-3.567-0.005-5.36,0.064c-0.963,0.036-1.927,0.097-2.901,0.224
				c-0.242,0.02-0.49,0.078-0.737,0.129c-0.253,0.068-0.482,0.064-0.753,0.193l-0.394,0.163l-0.098,0.042l-0.047,0.021l-0.024,0.012
				l-0.013,0.005c-0.076,0.084,0.163-0.186-0.173,0.189l-0.002,0.006l-0.01,0.019c0.002-0.008-0.015,0.026-0.029,0.098
				c-0.028,0.124,0.001,0.286,0.061,0.387c0.061,0.097,0.073,0.099,0.113,0.151c0.23,0.237,0.412,0.364,0.615,0.519
				c1.577,1.145,3.179,2.158,4.754,3.237c0.788,0.535,1.572,1.074,2.339,1.632c0.383,0.278,0.764,0.561,1.133,0.85l0.548,0.44
				c0.109,0.081,0.238,0.22,0.365,0.352l0.181,3.098l0.401,3.162c-0.358,1.486-0.854,2.993-0.795,4.66
				c-0.008,0.208,0.047,0.424,0.069,0.635l0.022,0.159c0.027,0.125,0.032,0.115,0.05,0.18c0.026,0.089,0.055,0.186,0.121,0.313
				c0.226,0.464,0.502,0.754,0.764,1.06c0.259,0.291,0.506,0.572,0.611,0.829c0.106,0.254,0.08,0.467-0.094,0.737
				c-0.169,0.27-0.421,0.496-0.722,0.758c-0.295,0.244-0.592,0.521-0.888,0.826c-0.153,0.137-0.272,0.322-0.407,0.486
				c-0.135,0.163-0.265,0.334-0.353,0.552c-0.087,0.226-0.223,0.367-0.259,0.665l-0.094,0.58c0.007,0.234,0.038,0.49,0.071,0.73
				c0.044,0.239,0.163,0.433,0.247,0.648c0.218,0.392,0.506,0.744,0.836,1.012c0.155,0.153,0.33,0.271,0.505,0.385
				c0.173,0.117,0.348,0.234,0.533,0.321c0.151,0.086,0.307,0.159,0.463,0.233c-0.344,0.24-0.688,0.479-1.048,0.701
				c-0.563,0.331-1.108,0.68-1.687,0.994c-1.137,0.652-2.306,1.264-3.43,1.98c-0.573,0.335-1.121,0.722-1.655,1.127
				c-0.561,0.367-1.028,0.869-1.528,1.322c-0.264,0.214-0.45,0.506-0.664,0.771c-0.22,0.293-0.39,0.486-0.647,0.863l-0.095,0.228
				c-0.03,0.104-0.036,0.29-0.021,0.429c0.068,0.252,0.202,0.444,0.353,0.577c0.299,0.273,0.62,0.429,0.938,0.566
				c1.282,0.514,2.594,0.731,3.901,0.947c1.311,0.199,2.623,0.342,3.938,0.455c2.631,0.224,5.267,0.337,7.905,0.343
				c1.313-0.002,2.658-0.03,3.962-0.214c0.586-0.036,1.366-0.032,1.5,0.466c0.145,0.528-0.066,1.228-0.024,1.908
				c0.003,0.182,0.022,0.325,0.066,0.542l0.041,0.117c0.027,0.051,0.063,0.104,0.099,0.153c0.074,0.083,0.152,0.153,0.238,0.199
				c0.344,0.193,0.695,0.22,1.033,0.242c0.341,0.017,0.677-0.002,1.005-0.022l0.242-0.016c-0.027,0,0.185,0.02,0.15,0.052
				c0.008-0.014,0.062,0.178,0.048,0.307c-0.146,1.248-0.81,2.435-1.188,3.719c-0.01,0.053-0.019,0.066-0.027,0.153l0.008,0.123
				c0.019,0.097,0.066,0.226,0.134,0.29c0.059,0.083,0.155,0.139,0.25,0.178l0.233,0.08c0.298,0.131,0.653,0.155,0.996,0.199
				c0.679,0.004,1.336-0.135,1.973-0.316l1.876-0.608c0.621-0.167,1.296-0.362,1.883-0.106c0.58,0.292,0.752,1.01,0.934,1.616
				c0.165,0.637,0.323,1.273,0.453,1.919c0.271,1.285,0.433,2.6,0.871,3.845c-0.418-1.251-0.561-2.565-0.811-3.857
				c-0.119-0.646-0.268-1.288-0.423-1.929c-0.178-0.61-0.321-1.356-0.97-1.705c-0.649-0.294-1.356-0.084-1.978,0.068l-1.887,0.577
				c-0.63,0.171-1.271,0.292-1.914,0.279c-0.309-0.05-0.615-0.062-0.926-0.201c-0.357-0.106-0.51-0.22-0.433-0.55
				c0.376-1.226,1.07-2.381,1.257-3.761c-0.008-0.097,0.015-0.18-0.019-0.286c-0.021-0.098-0.048-0.214-0.194-0.317
				c-0.143-0.09-0.129-0.06-0.307-0.09l-0.25,0.012c-0.328,0.016-0.651,0.026-0.968,0.006c-0.312-0.021-0.637-0.066-0.868-0.207
				c-0.24-0.113-0.243-0.396-0.256-0.716c-0.044-0.631,0.21-1.252,0.037-2.02c-0.102-0.413-0.537-0.673-0.88-0.718
				c-0.356-0.082-0.702-0.07-1.049-0.059c-1.307,0.164-2.601,0.16-3.917,0.155c-2.621-0.028-5.246-0.165-7.856-0.409
				c-1.305-0.125-2.607-0.279-3.896-0.487c-1.279-0.218-2.586-0.458-3.745-0.938c-0.282-0.121-0.557-0.271-0.742-0.445
				c-0.099-0.087-0.14-0.177-0.165-0.241c0.019-0.024-0.015-0.007-0.012-0.063l0.097-0.225c0.14-0.148,0.377-0.471,0.56-0.695
				c0.2-0.247,0.371-0.516,0.626-0.717c0.48-0.422,0.915-0.891,1.463-1.242c0.518-0.385,1.046-0.754,1.614-1.078
				c1.101-0.688,2.271-1.288,3.422-1.935c0.579-0.309,1.148-0.663,1.722-0.994c0.568-0.346,1.114-0.741,1.671-1.11
				c0.059-0.04,0.108-0.095,0.138-0.165c0.081-0.189-0.006-0.409-0.195-0.491l-0.033-0.013c-0.347-0.149-0.693-0.298-1.016-0.483
				c-0.169-0.079-0.317-0.186-0.467-0.288c-0.153-0.101-0.304-0.202-0.427-0.329c-0.275-0.228-0.486-0.5-0.645-0.786
				c-0.05-0.152-0.147-0.302-0.169-0.447c-0.01-0.146-0.038-0.28-0.059-0.434l0.099-0.58c-0.004-0.101,0.129-0.28,0.18-0.417
				c0.054-0.153,0.163-0.294,0.278-0.432c0.117-0.137,0.207-0.288,0.348-0.411c0.251-0.26,0.526-0.518,0.836-0.771
				c0.287-0.252,0.634-0.547,0.884-0.943c0.275-0.371,0.387-1.022,0.16-1.493c-0.201-0.466-0.502-0.771-0.755-1.066
				c-0.252-0.284-0.5-0.589-0.617-0.831c-0.033-0.044-0.063-0.135-0.091-0.233c-0.009-0.03-0.041-0.131-0.03-0.103l-0.017-0.133
				c-0.017-0.178-0.065-0.349-0.057-0.532c-0.057-1.459,0.43-2.969,0.803-4.488c0.013-0.049,0.017-0.104,0.009-0.159l-0.001-0.013
				l-0.397-3.2l-0.176-3.219L90.4,62.187c-0.006-0.106-0.05-0.213-0.134-0.292c-0.181-0.175-0.3-0.334-0.533-0.521l-0.567-0.46
				c-0.382-0.3-0.769-0.588-1.156-0.872c-0.777-0.568-1.565-1.113-2.357-1.655c-1.572-1.084-3.197-2.122-4.709-3.225
				c-0.029-0.023-0.06-0.046-0.089-0.07c0.152-0.043,0.327-0.068,0.482-0.109c0.221-0.046,0.438-0.097,0.675-0.116
				c0.92-0.117,1.864-0.174,2.811-0.208c1.894-0.068,3.8-0.057,5.71-0.046c0.221,0,0.419-0.153,0.464-0.379l0.004-0.015l0.332-1.635
				c0.096-0.548,0.238-1.084,0.388-1.62c0.151-0.532,0.275-1.078,0.448-1.6l0.535-1.563c0.158-0.522,0.415-1.038,0.623-1.557
				c0.233-0.527,0.408-1.033,0.679-1.517l0.756-1.479l0.86-1.419c0.273-0.482,0.608-0.924,0.932-1.371
				c0.328-0.447,0.634-0.909,1.006-1.32l1.075-1.266l1.161-1.188c0.38-0.403,0.82-0.744,1.228-1.119
				c0.405-0.379,0.835-0.728,1.28-1.06c0.445-0.329,0.864-0.697,1.334-0.994l1.38-0.933l0.005-0.002
				c0.171-0.115,0.252-0.335,0.182-0.54l-0.579-1.724c-0.205-0.566-0.381-1.151-0.529-1.752l-0.238-0.891l-0.119-0.445l-0.059-0.224
				c-0.019-0.076-0.051-0.163-0.031-0.153c-0.005-0.014,0.003-0.089,0.055-0.157c0.038-0.07,0.113-0.146,0.183-0.191
				c0.052-0.052,0.188-0.074,0.136-0.07c-0.013-0.004-0.025-0.017-0.028-0.034c0.013-0.004,0.063,0.028,0.093,0.04l0.051,0.026
				h0.002l0.057,0.048l0.159,0.081c0.034,0.038,0.066,0.074,0.103,0.107l0.123,0.098l0.363,0.292
				c0.245,0.191,0.483,0.389,0.713,0.595c0.227,0.205,0.479,0.398,0.684,0.614l0.619,0.643l0.048,0.051l1.533,1.33
				c0.12,0.104,0.294,0.135,0.448,0.064l0.017-0.008l1.306-0.589l0.008-0.004c0.119-0.055,0.213-0.161,0.245-0.3
				c0.174-0.72,0.351-1.435,0.585-2.12c0.094-0.361,0.254-0.657,0.387-0.976c0.071-0.159,0.13-0.318,0.211-0.476l0.31-0.468
				l0.309-0.468c0.056-0.097,0.171-0.191,0.271-0.262c0.051-0.032,0.035-0.011,0.049-0.055c0.019-0.012,0.086-0.006,0.125-0.01
				l0.053-0.002c0.133,0.034,0.268,0.08,0.402,0.152c0.566,0.301,1.07,0.845,1.658,1.354c0.299,0.252,0.619,0.521,1.07,0.686
				c0.229,0.08,0.482,0.113,0.748,0.087c0.138-0.028,0.281-0.068,0.411-0.113l0.248-0.131c0.393-0.208,0.619-0.381,0.959-0.52
				c0.319-0.125,0.64-0.254,0.982-0.303c0.332-0.091,0.692-0.081,1.041-0.113c0.36,0.009,0.716,0.005,1.087,0.037l1.124,0.084
				l1.142,0.059c0.018,0,0.036,0,0.054-0.004l0.026-0.004l4.845-0.835l4.884-0.566l0.036-0.004c0.044-0.006,0.089-0.022,0.128-0.05
				c0.356-0.254,0.699-0.48,0.977-0.958c0.07-0.11,0.082-0.186,0.127-0.28c0.023-0.064,0.024-0.048,0.066-0.179l0.034-0.14
				l0.14-0.563c0.171-0.75,0.382-1.498,0.619-2.243l0.17-0.559l0.197-0.526c0.14-0.356,0.282-0.711,0.451-1.038
				c0.163-0.336,0.362-0.639,0.59-0.915c0.108-0.145,0.237-0.245,0.352-0.372c0.136-0.105,0.335-0.263,0.436-0.325
				c0.06-0.038,0.121-0.061,0.184-0.08c0.041-0.019,0.027,0,0.042-0.011c0.001-0.012,0.017-0.027,0.077-0.004l0.071,0.019l0,0h0.002
				l0.101,0.074l0.204,0.142c0.155,0.076,0.233,0.231,0.341,0.356c0.12,0.117,0.175,0.286,0.245,0.443
				c0.081,0.151,0.121,0.328,0.161,0.506c0.049,0.173,0.081,0.357,0.1,0.544c0.06,0.371,0.076,0.754,0.122,1.153
				c0.034,0.421,0.096,0.781,0.183,1.191l0.27,1.137c0.086,0.383,0.195,0.766,0.315,1.146c0.099,0.385,0.292,0.754,0.436,1.129
				c0.034,0.09,0.117,0.154,0.218,0.159l0.031,0.002l0.081,0.006c0.114,0.004,0.231-0.059,0.28-0.17l1.086-2.319
				c0.327-0.679,0.962-1.308,1.662-1.576c0.354-0.135,0.708-0.11,0.955,0.099c0.126,0.103,0.227,0.256,0.298,0.411
				c0.08,0.147,0.137,0.405,0.193,0.574c0.214,0.859,0.654,1.693,1.309,2.318c0.66,0.621,1.479,1.012,2.295,1.304
				c0.824,0.282,1.662,0.478,2.487,0.682c0.836,0.191,1.634,0.465,2.452,0.699c0.814,0.241,1.593,0.584,2.393,0.872
				c0.772,0.351,1.552,0.685,2.313,1.068l1.137,0.593l0.568,0.296l0.615,0.24c0.85,0.24,1.76,0.182,2.582-0.08
				c0.83-0.246,1.614-0.611,2.362-1.03c1.497-0.837,2.886-1.84,4.276-2.828c1.393-0.982,2.767-2.02,4.339-2.702
				C173.072,23.384,171.678,24.403,170.27,25.362z M104.185,26.482L104.185,26.482C104.19,26.485,104.192,26.487,104.185,26.482z"/>
			<path style="fill:#8F9194;" d="M171.317,77.684c-5.166-2.866-11.295-4.875-18.053-6.84c-4.165-1.208-8.031-2.887-11.938-4.535
				c0.199-0.441,0.337-0.901,0.443-1.37c8.092,0.137,16.234-0.422,24.302-0.577c0.257-0.004,0.67-0.558,0.308-0.563
				c-8.142-0.126-16.304-0.319-24.452-0.355c-0.008-0.163-0.026-0.322-0.05-0.478c2.102-0.612,4.21-1.116,5.677-1.715
				c4.314-1.762,8.618-3.562,12.845-5.526c0.222-0.103,0.366-0.574,0.014-0.424c-5.829,2.478-11.818,4.979-17.895,6.769
				c-0.25,0.074-0.518,0.146-0.797,0.218c-0.093-0.297-0.212-0.581-0.36-0.849c8.418-6.432,17.224-12.769,24.444-20.37
				c0.298-0.314-0.114-0.534-0.383-0.282c-4.738,4.426-10.506,8.175-15.588,12.241c-2.708,2.165-5.713,4.054-8.575,6.102
				c0.359-0.488,0.714-0.954,1.065-1.383c4.354-5.317,8.819-10.541,12.937-16.049c0.261-0.349-0.162-0.407-0.381-0.176
				c-4.821,5.131-9.746,10.16-14.561,15.297c-0.189,0.204-0.375,0.411-0.563,0.615c0.831-1.693,1.65-3.396,2.518-5.077
				c2.438-4.72,5.645-9.033,8.007-13.796c0.181-0.364-0.315-0.27-0.445-0.044c-2.468,4.263-5.515,8.209-8.226,12.316
				c-0.388,0.588-0.76,1.185-1.125,1.783c0.81-2.672,1.633-5.339,2.49-7.997c1.996-6.188,4.62-12.165,6.412-18.417
				c0.125-0.434-0.503-0.149-0.599,0.099c-3.823,10.007-8.643,19.582-11.899,29.769c-0.044-1.695-0.08-3.387-0.046-5.06
				c0.113-5.483,0.431-10.968,0.379-16.452c-0.004-0.33-0.503-0.022-0.519,0.202c-0.409,5.621-1.022,11.222-1.398,16.851
				c-0.145,2.155-0.253,4.313-0.341,6.472c-0.266-0.012-0.523-0.004-0.78,0.007c-0.442-1.514-0.914-2.997-1.267-4.393
				c-1.485-5.871-2.553-11.807-4.433-17.575c-0.088-0.273-0.561,0.082-0.504,0.31c1.324,5.445,2.049,10.978,2.909,16.507
				c0.173,1.12,0.402,2.243,0.645,3.369c-3.571-6.802-7.171-13.574-11.251-20.13c-0.159-0.258-0.758,0.215-0.624,0.463
				c3.876,7.171,7.058,14.804,10.744,22.098c-2.223-1.808-4.511-3.553-6.613-5.428c-4.452-3.973-8.605-8.297-12.963-12.375
				c-0.18-0.167-0.599,0.2-0.432,0.381c4.037,4.39,7.944,8.864,12.221,13.026c0.469,0.457,3.799,3.255,6.833,5.732
				c-0.116,0.11-0.21,0.237-0.319,0.353c-6.987-4.98-14.836-9.042-21.889-13.712c-0.183-0.122-0.597,0.289-0.414,0.43
				c6.503,4.998,13.23,9.739,19.984,14.429c-1.099-0.389-2.139-0.76-2.947-1.161c-4.339-2.156-9.256-3.619-13.165-6.574
				c-0.225-0.171-0.712,0.258-0.5,0.441c2.843,2.446,6.496,4.194,9.805,5.919c2.194,1.144,4.879,2.074,7.368,3.183
				c-0.126,0.394-0.221,0.801-0.286,1.214c-8-1.468-16.039-2.753-23.96-4.6c-0.172-0.042-0.481,0.343-0.271,0.403
				c7.594,2.205,15.563,4.329,23.487,5.706c-3.549,0.459-7.176,1.4-10.546,1.926c-6.748,1.047-13.445,2.292-20.163,3.457
				c-0.184,0.03-0.409,0.425-0.115,0.387c10.509-1.326,21.008-2.938,31.523-4.289c-1.837,0.742-3.684,1.46-5.521,2.199
				c-3.562,1.434-7.082,2.975-10.563,4.591c-2.287,1.063-5.51,3.533-8.146,3.552c-0.19,0.002-0.54,0.405-0.24,0.44
				c1.528,0.184,2.688-0.51,4.122-1.03c3.742-1.36,7.472-2.734,11.244-4.011c3.473-1.175,6.899-2.45,10.321-3.734
				c0.184,0.216,0.378,0.421,0.597,0.597c-9.781,6.593-19.072,14.018-29.283,19.933c-0.222,0.127-0.189,0.453,0.095,0.305
				c10.699-5.605,20.393-12.938,30.577-19.383c-1.082,1.074-2.173,2.139-3.213,3.23c-2.954,3.098-5.479,7.199-8.79,9.868
				c-0.241,0.195-0.102,0.558,0.194,0.349c3.252-2.284,5.771-5.81,8.609-8.599c0.883-0.868,1.847-1.711,2.824-2.56
				c-0.189,0.377-0.337,0.674-0.415,0.824c-1.671,3.215-3.213,6.486-4.903,9.691c-2.788,5.287-4.646,11.065-7.555,16.265
				c-0.22,0.392,0.339,0.276,0.49,0.047c3.003-4.596,5.125-9.789,7.868-14.548c2.073-3.596,4.469-7.229,6.582-10.945
				c-2.547,9.537-4.229,19.487-5.892,29.068c-0.063,0.363,0.443,0.149,0.498-0.084c2.53-10.69,5.277-21.354,8.069-31.99
				c0.09-0.021,0.181-0.044,0.27-0.068c1.633,10.541,3.445,21.062,4.273,31.707c0.022,0.291,0.472,0.026,0.466-0.183
				c-0.19-7.318-0.966-14.572-1.813-21.838c-0.344-2.931-0.69-5.853-1.135-8.77c-0.07-0.463-0.129-0.935-0.187-1.412
				c0.447,0.707,0.884,1.418,1.334,2.082c2.029,3.001,4.013,6.038,6.04,9.039c0.125,0.186,0.549-0.155,0.455-0.337
				c-1.501-2.933-3.158-5.801-4.716-8.709c-0.532-0.995-1.161-1.959-1.803-2.924c0.067-0.043,0.138-0.083,0.203-0.131
				c1.283,1.404,2.634,2.757,3.831,4.193c2.936,3.523,6.07,7.595,9.639,10.484c0.179,0.146,0.578-0.201,0.409-0.36
				c-3.041-2.874-5.418-6.689-8.02-9.965c-1.258-1.584-2.505-3.172-3.738-4.771c4.059,3.378,8.713,6.256,12.984,9.005
				c0.181,0.115,0.594-0.281,0.414-0.433c-3.537-2.953-7.12-5.924-10.732-8.84c9.285,3.142,19.078,4.771,28.047,8.855
				C171.117,78.413,171.645,77.865,171.317,77.684z"/>
		</g>
		<g>
			
				<radialGradient id="SVGID_00000083056914605721039670000007399731056371981203_" cx="72.7827" cy="166.6848" r="50.4895" gradientUnits="userSpaceOnUse">
				<stop  offset="0" style="stop-color:#E3F3FC"/>
				<stop  offset="0.2199" style="stop-color:#AEB7BD"/>
				<stop  offset="0.6059" style="stop-color:#8CA4AF"/>
				<stop  offset="1" style="stop-color:#393B3D"/>
			</radialGradient>
			<path style="fill:url(#SVGID_00000083056914605721039670000007399731056371981203_);" d="M81.034,124.882
				c-1.035-0.868-2.297-1.4-3.511-1.971c-0.689-0.325-1.399-0.603-2.1-0.903c-0.603-0.258-0.859-2.229-1.123-2.789
				c-0.221-0.476-0.816-0.885-1.191-1.237c-1.048-0.986,0.232-2.974,0.851-3.82c0.418-0.574,0.996-1.166,1.076-1.898
				c0.019-0.175-0.184-0.189-0.299-0.145c-1.43,0.546-3.916,3.211-5.375,2.4c-1.045-0.581-1.957-0.998-3.118-1.311
				c-1.11-0.3-2.238-0.437-2.532-1.703c-0.21-0.912-1.093-0.345-1.356,0.196c-0.035,0.072-0.351,0.721-0.423,0.896
				c-0.013,0-0.023,0-0.035-0.002c-0.195-0.401-0.278-0.879-0.383-1.309c-0.143-0.592,0.032-1.414-0.611-1.741
				c-0.083-0.042-0.2-0.002-0.274,0.045c-0.453,0.294-0.621,0.758-0.81,1.249c-0.171,0.443-0.26,0.911-0.383,1.367
				c-0.05,0.185-0.189,0.33-0.386,0.451c-1.265,0.1-2.521,0.286-3.728,0.521c-0.002,0-0.005,0-0.008,0
				c-0.97-0.027-1.638-0.26-2.471,0.295c-0.583,0.393-1.018-0.661-1.647-0.792c-0.12-0.024-0.256,0.084-0.325,0.167
				c-0.408,0.498-0.582,1.155-0.734,1.806c-0.169,0.072-0.337,0.148-0.503,0.228c-0.2-0.165-0.39-0.334-0.578-0.504
				c-0.298-0.374-1.065-0.951-1.078-0.955c-0.012-0.01-0.022-0.02-0.034-0.028c-0.186-0.148-0.497,0.127-0.451,0.333
				c0.147,0.665,0.361,1.332,0.601,1.997c-1.845,1.159-3.366,2.737-4.358,4.867c-0.518,1.11-0.867,2.29-1.071,3.501
				c-1.514-0.006-3.501-0.019-3.995,0.294c-0.152,0.097,2.511,1.68,3.627,2.631c0.059,0.05,0.103,0.101,0.15,0.153
				c0.019,0.828,0.093,1.654,0.224,2.469c-0.183,0.724-0.401,1.445-0.275,2.045c0.123,0.587,1.14,0.856,0.264,1.589
				c-0.256,0.212-0.608,0.521-0.709,0.854c-0.23,0.775,0.457,1.226,1.116,1.485c-1.374,1.034-3.352,1.618-4.249,3.031
				c-0.673,1.059,6.307,1.34,7.61,1.167c1.328-0.176,0.764,0.5,0.887,1.139c0.061,0.322,0.771,0.231,0.958,0.229
				c0.418-0.008-0.313,1.385-0.349,1.669c-0.009,0.076,0.036,0.151,0.103,0.182c0.607,0.288,1.305-0.043,1.912-0.222
				c0.972-0.288,1.004,0.125,1.229,1.068c0.139,0.58,0.171,1.165,0.373,1.729c0.07,0.193,0.305,0.119,0.435,0.047
				c0.942-0.517,1.659-1.243,2.341-2.029c1.731,0.402,3.531,0.398,5.315,0.161c0.072,0.552,0.09,1.104,0.11,1.281
				c0.103,0.891,0.182,1.776,0.311,2.663c0.052,0.347,0.582-0.057,0.65-0.184c0.527-0.975,0.763-2.095,1.061-3.158
				c0.137-0.482,0.413-0.863,0.776-1.177c0.82-0.208,1.628-0.45,2.414-0.708c0.712-0.235,1.409-0.526,2.088-0.866
				c0.115-0.028,0.229-0.057,0.337-0.087c0.851-0.233,1.891-0.61,2.482-1.318c0.238-0.288,0.406-0.542,0.561-0.847
				c0.171-0.148,0.341-0.296,0.508-0.449c0.576,0.101,1.585,1.014,1.886,1.218c0.243,0.165,0.664-0.278,0.59-0.519
				c-0.238-0.784-0.552-1.56-0.761-2.355c1.743,0.665,3.387,1.55,5.073,2.317c0.229,0.105,0.718-0.256,0.586-0.516
				c-0.478-0.953-1.568-1.871-2.417-2.481c-0.608-0.436-1.2-0.853-1.705-1.408c-0.055-0.059-0.082-0.136-0.098-0.225
				c0.059-0.106,0.122-0.211,0.18-0.316c0.195-0.364,0.358-0.733,0.506-1.105c0.323-0.624,0.583-1.264,0.79-1.916
				c0.47-0.788,1.39-1.727,1.226-2.652c-0.017-0.093-0.383-0.387-0.648-0.609c0.005-0.124,0.014-0.247,0.017-0.37
				c0.76-0.224,1.698-0.146,2.456-0.222c0.185-0.019,0.62-0.388,0.402-0.591c-0.747-0.695-1.726-1.292-2.691-1.786
				c1.417-0.093,2.801,0.028,4.246,0.059C80.753,125.464,81.292,125.098,81.034,124.882z"/>
			<g>
				<path style="fill:#B3E4FA;" d="M52.526,113.232h0.002C52.536,113.227,52.532,113.227,52.526,113.232z"/>
				<path style="opacity:0.6;fill:#B3E4FA;" d="M74.646,112.15c-0.155,0.061-0.303,0.141-0.45,0.222
					c-0.291,0.165-0.571,0.347-0.848,0.534c-0.555,0.373-1.101,0.758-1.676,1.09c-0.57,0.311-1.2,0.637-1.831,0.568
					c-0.305-0.024-0.585-0.224-0.888-0.37l-0.89-0.46c-0.293-0.157-0.628-0.244-0.941-0.369c-0.319-0.112-0.636-0.241-0.958-0.338
					c-0.635-0.186-1.318-0.311-1.768-0.714c-0.233-0.188-0.376-0.457-0.459-0.746c-0.087-0.209-0.07-0.302-0.233-0.512
					c-0.162-0.233-0.46-0.25-0.66-0.199c-0.409,0.127-0.675,0.399-0.87,0.745l-0.226,0.464c-0.042-0.117-0.08-0.239-0.106-0.373
					l-0.096-0.431c-0.025-0.123-0.052-0.288-0.058-0.413c-0.026-0.28-0.029-0.604-0.159-0.939c-0.061-0.165-0.179-0.337-0.327-0.453
					c-0.095-0.055-0.114-0.113-0.277-0.16c-0.009-0.012-0.188-0.02-0.237,0.003c-0.06,0.016-0.116,0.038-0.166,0.068
					c-0.19,0.146-0.249,0.189-0.379,0.322c-0.104,0.143-0.241,0.3-0.296,0.439c-0.073,0.145-0.145,0.29-0.196,0.429
					c-0.06,0.136-0.114,0.307-0.148,0.438l-0.248,0.854c-0.047,0.153-0.069,0.28-0.134,0.39c-0.015,0.021-0.096,0.095-0.179,0.152
					l-3.63,0.479l-0.399-0.022l-0.424-0.034c-0.289-0.021-0.607-0.032-0.931,0.034c-0.164,0.024-0.318,0.082-0.473,0.143
					c-0.08,0.024-0.146,0.071-0.218,0.109l-0.105,0.059l-0.05,0.028l-0.188,0.074c-0.006-0.016-0.001-0.024,0.002-0.028
					c-0.035-0.024-0.071-0.046-0.112-0.063l-0.141-0.114c-0.198-0.168-0.402-0.397-0.723-0.577
					c-0.184-0.055-0.331-0.226-0.722-0.014c-0.097,0.066-0.176,0.131-0.248,0.239l-0.118,0.178
					c-0.081,0.111-0.158,0.238-0.224,0.399c-0.067,0.148-0.145,0.306-0.181,0.443c-0.082,0.233-0.138,0.465-0.195,0.693
					l-0.171,0.076l-0.413-0.362l0.036,0.04l-0.557-0.54c-0.16-0.172-0.469-0.379-0.711-0.536l0.146,0.07l-0.044-0.036l-0.067-0.042
					l-0.009-0.003l-0.02-0.01c-0.019-0.008-0.017-0.012-0.05-0.022c-0.047-0.016-0.1-0.027-0.151-0.03
					c-0.212-0.004-0.281,0.053-0.382,0.111c-0.092,0.061-0.162,0.133-0.221,0.229c-0.057,0.091-0.108,0.212-0.093,0.375
					c0.006,0.095,0.026,0.123,0.029,0.146l0.025,0.084l0.05,0.168l0.101,0.338l0.332,1.115l-0.858,0.614
					c-0.376,0.234-0.661,0.581-0.994,0.871l-0.481,0.457c-0.144,0.166-0.276,0.345-0.415,0.517c-0.26,0.356-0.578,0.677-0.79,1.065
					l-0.654,1.155l-0.081,0.145c-0.048,0.096-0.046,0.113-0.071,0.172l-0.114,0.302l-0.227,0.601l-0.228,0.601
					c-0.072,0.203-0.107,0.431-0.163,0.645l-0.233,1.01c-0.636,0-1.274-0.002-1.918,0.024c-0.37,0.016-0.741,0.038-1.122,0.087
					c-0.194,0.029-0.382,0.06-0.603,0.133l-0.172,0.072l-0.042,0.019l-0.021,0.012l-0.012,0.004l-0.006,0.002
					c-0.056,0.064,0.124-0.139-0.127,0.142l-0.002,0.002c-0.008,0.026,0.011-0.037-0.024,0.076
					c-0.022,0.085-0.004,0.202,0.039,0.272c0.038,0.063,0.04,0.057,0.064,0.088c0.111,0.113,0.177,0.155,0.258,0.22
					c0.614,0.443,1.221,0.825,1.822,1.234l0.888,0.62l0.428,0.318l0.205,0.165c0.021,0.013,0.055,0.047,0.092,0.085l0.215,2.298
					c-0.069,0.272-0.141,0.542-0.198,0.832c-0.038,0.147-0.06,0.307-0.074,0.47c-0.021,0.161-0.04,0.322-0.016,0.5l0.021,0.258
					l0.007,0.066c0.031,0.115,0.021,0.061,0.033,0.101l0.042,0.104c0.057,0.145,0.234,0.371,0.315,0.455
					c0.099,0.111,0.179,0.212,0.203,0.273c0.032,0.04-0.009,0.042,0.015,0.063c-0.003,0.022-0.035,0.054-0.039,0.086
					c-0.057,0.075-0.137,0.151-0.241,0.253c-0.11,0.092-0.227,0.201-0.348,0.324c-0.112,0.133-0.231,0.248-0.314,0.433
					c-0.039,0.101-0.092,0.149-0.112,0.299l-0.034,0.222c-0.003,0.226,0.044,0.451,0.139,0.616c0.095,0.17,0.219,0.316,0.354,0.426
					c0.121,0.102,0.248,0.182,0.377,0.256c-0.268,0.178-0.53,0.358-0.817,0.52c-0.432,0.251-0.877,0.485-1.309,0.764
					c-0.438,0.264-0.858,0.582-1.233,0.957c-0.192,0.18-0.336,0.417-0.504,0.623c-0.052,0.108-0.035,0.08-0.056,0.127
					c-0.016,0.038-0.027,0.151-0.017,0.224c0.031,0.135,0.1,0.228,0.166,0.288c0.135,0.123,0.267,0.184,0.394,0.238
					c0.512,0.205,1.012,0.282,1.516,0.364c0.503,0.076,1.006,0.129,1.509,0.169c1.006,0.081,2.012,0.121,3.021,0.119
					c0.497,0,1.028-0.026,1.512-0.084c0.271-0.037,0.451,0.008,0.503,0.116c0.053,0.149-0.014,0.434,0.001,0.699
					c-0.017,0.873,1.291,0.371,1.124,0.599c-0.048,0.448-0.296,0.909-0.44,1.407l-0.011,0.055c0.004,0.076,0.007,0.048,0.011,0.076
					c0.011,0.032,0.001,0.055,0.042,0.104c0.036,0.041,0.078,0.087,0.126,0.104l0.089,0.028c0.11,0.05,0.256,0.062,0.391,0.076
					c0.266,0,0.52-0.055,0.763-0.127l0.712-0.234c0.241-0.056,0.49-0.146,0.703-0.05c0.211,0.099,0.279,0.369,0.349,0.601
					c0.067,0.24,0.129,0.483,0.176,0.73c0.09,0.492,0.219,0.979,0.348,1.463c-0.115-0.489-0.228-0.976-0.303-1.473
					c-0.038-0.248-0.093-0.494-0.153-0.738c-0.067-0.232-0.113-0.523-0.375-0.667c-0.547-0.165-1.014,0.133-1.494,0.236
					c-0.238,0.061-0.48,0.104-0.718,0.097c-0.111-0.019-0.22-0.02-0.341-0.075l-0.088-0.032c-0.011-0.008-0.006-0.02-0.021-0.016
					c-0.017,0.016-0.019-0.036-0.026-0.063c-0.002-0.002-0.008-0.061-0.008-0.015l0.01-0.038c0.145-0.457,0.415-0.891,0.491-1.442
					c-0.017-0.079,0.043-0.157-0.118-0.284c-0.077-0.037-0.038-0.022-0.14-0.037l-0.099,0.004c-0.123,0.003-0.244,0.007-0.361-0.002
					c-0.109-0.004-0.241-0.038-0.286-0.066c-0.011,0.017-0.049-0.032-0.072-0.099c0.015,0.015,0-0.091,0-0.131
					c-0.018-0.232,0.085-0.459,0.004-0.792c-0.15-0.373-0.612-0.358-0.805-0.337c-0.515,0.043-0.986,0.047-1.492,0.039
					c-0.996-0.017-1.995-0.071-2.985-0.17c-0.495-0.05-0.989-0.11-1.476-0.191c-0.482-0.083-0.979-0.178-1.398-0.356
					c-0.101-0.043-0.197-0.099-0.244-0.148c-0.023-0.019-0.021-0.024-0.022-0.02c0.011-0.025,0.021-0.046,0.003-0.014
					c0.153-0.176,0.273-0.377,0.449-0.534c0.34-0.328,0.728-0.614,1.153-0.862c0.838-0.51,1.765-0.921,2.615-1.534
					c0.04-0.03,0.075-0.074,0.097-0.123c0.06-0.146-0.011-0.314-0.157-0.374l-0.008-0.003c-0.258-0.106-0.501-0.237-0.684-0.398
					c-0.097-0.077-0.161-0.168-0.212-0.258c-0.051-0.1-0.049-0.168-0.07-0.242l0.039-0.222c-0.011-0.002,0.041-0.077,0.054-0.113
					c0.034-0.091,0.135-0.191,0.214-0.284c0.088-0.091,0.188-0.186,0.309-0.284c0.106-0.105,0.257-0.233,0.364-0.398
					c0.05-0.105,0.109-0.206,0.127-0.325c-0.003-0.124,0.004-0.286-0.051-0.374c-0.091-0.22-0.218-0.341-0.31-0.454
					c-0.114-0.143-0.138-0.145-0.203-0.271l-0.041-0.104c0,0-0.001-0.004-0.004-0.012l-0.002-0.038l-0.013-0.188
					c-0.021-0.121-0.003-0.258,0.017-0.392c0.012-0.135,0.031-0.271,0.066-0.413c0.059-0.277,0.136-0.566,0.211-0.854
					c0.008-0.032,0.011-0.066,0.008-0.101l-0.002-0.03l-0.214-2.425l-0.003-0.026c-0.005-0.074-0.038-0.146-0.097-0.203
					c-0.073-0.07-0.104-0.117-0.213-0.207l-0.22-0.18l-0.445-0.337l-0.901-0.635c-0.504-0.347-1.019-0.688-1.506-1.03
					c0.016-0.002,0.031-0.006,0.047-0.008c0.342-0.044,0.698-0.064,1.057-0.078c0.716-0.024,1.441-0.019,2.169-0.015
					c0.161,0.002,0.307-0.108,0.345-0.269l0.006-0.024l0.286-1.203c0.052-0.2,0.079-0.403,0.152-0.603l0.231-0.601l0.23-0.601
					l0.116-0.299c0.015-0.04,0.043-0.127,0.049-0.125l0.077-0.137l0.606-1.086c0.195-0.367,0.494-0.665,0.735-1.002
					c0.129-0.163,0.25-0.331,0.385-0.488l0.452-0.431c0.312-0.272,0.574-0.604,0.931-0.828l1.013-0.732L48.3,116
					c0.112-0.083,0.167-0.229,0.123-0.371l-0.407-1.345l-0.102-0.338l-0.052-0.166l-0.017-0.058l0.063,0.03
					c0.127,0.15,0.229,0.203,0.403,0.377l0.487,0.457l0.035,0.038l0.592,0.512c0.091,0.079,0.222,0.101,0.339,0.049l0.012-0.006
					l0.491-0.224l0.007-0.004c0.089-0.039,0.159-0.121,0.184-0.223c0.064-0.271,0.131-0.542,0.217-0.794
					c0.035-0.137,0.091-0.235,0.137-0.347c0.035-0.108,0.103-0.226,0.189-0.347l0.117-0.179c0.003-0.011,0.031-0.034,0.051-0.049
					c0.028,0.011,0.057,0.024,0.087,0.034c0.18,0.097,0.373,0.29,0.604,0.492l0.193,0.153c0.087,0.048,0.175,0.095,0.263,0.137
					c0.125,0.036,0.301,0.044,0.429,0.024l0.198-0.079l0.148-0.078l0.08-0.045c0.054-0.029,0.106-0.068,0.162-0.086
					c0.111-0.043,0.224-0.087,0.345-0.104c0.235-0.052,0.492-0.048,0.771-0.029l0.429,0.031l0.444,0.022l0.03-0.002l0.028-0.004
					l3.69-0.544l0.041-0.008c0.029-0.003,0.06-0.015,0.085-0.033c0.148-0.11,0.289-0.191,0.424-0.427
					c0.078-0.151,0.111-0.32,0.149-0.451l0.233-0.859c0.039-0.157,0.071-0.273,0.13-0.408c0.049-0.14,0.108-0.263,0.167-0.384
					c0.054-0.139,0.129-0.199,0.185-0.308c0.067-0.085,0.25-0.224,0.287-0.263c0.012-0.01,0.023-0.014,0.034-0.018
					c0.016,0.01,0.061,0.046,0.087,0.059c0.084,0.063,0.146,0.145,0.188,0.256c0.093,0.216,0.11,0.498,0.141,0.806
					c0.017,0.172,0.039,0.299,0.075,0.47l0.105,0.434c0.058,0.288,0.198,0.593,0.296,0.887c0.022,0.064,0.081,0.113,0.154,0.119
					l0.01,0.002l0.068,0.004c0.078,0.006,0.156-0.036,0.191-0.111l0.007-0.018l0.418-0.899c0.118-0.237,0.366-0.476,0.598-0.542
					c0.109-0.026,0.21-0.014,0.242,0.043c0.067,0.029,0.139,0.296,0.181,0.389c0.103,0.345,0.296,0.688,0.59,0.917
					c0.584,0.479,1.293,0.559,1.926,0.731c0.319,0.085,0.625,0.201,0.938,0.299c0.31,0.112,0.633,0.183,0.933,0.33l0.902,0.434
					c0.298,0.129,0.593,0.334,0.962,0.36c0.722,0.049,1.343-0.316,1.915-0.646c0.57-0.354,1.104-0.756,1.646-1.144
					c0.271-0.195,0.546-0.385,0.829-0.56c0.143-0.085,0.287-0.168,0.44-0.232c0.119-0.088,0.392-0.112,0.385,0.097
					C75.051,112.052,74.767,112.067,74.646,112.15z M39.005,138.823c0.001-0.003,0.007-0.015,0.009-0.023
					C39.012,138.818,39.003,138.839,39.005,138.823z M47.829,113.67v0.002C47.824,113.655,47.821,113.646,47.829,113.67z
					 M47.757,113.678L47.757,113.678h0.002c-0.012-0.004-0.023-0.006-0.032-0.012C47.722,113.658,47.747,113.676,47.757,113.678z
					 M51.119,113.011c-0.008-0.004,0.019-0.002,0.034-0.004c0.004,0.002,0.008,0.004,0.011,0.006
					C51.151,113.017,51.133,113.022,51.119,113.011z M52.675,113.21L52.675,113.21C52.668,113.214,52.654,113.219,52.675,113.21z
					 M52.733,113.18h-0.002C52.733,113.18,52.733,113.18,52.733,113.18L52.733,113.18z M60.795,109.772
					c-0.004-0.003,0.009,0.006,0.013,0.008C60.79,109.776,60.749,109.766,60.795,109.772z M60.808,109.78
					c0.001,0,0.002-0.002,0.004-0.002C60.817,109.782,60.813,109.782,60.808,109.78z"/>
			</g>
			<path style="opacity:0.5;fill:#8F9194;" d="M74.295,133.232c-2.237-1.241-4.89-2.111-7.816-2.962
				c-1.802-0.523-3.477-1.25-5.169-1.963c0.088-0.19,0.147-0.39,0.192-0.593c3.504,0.057,7.029-0.184,10.521-0.25
				c0.111-0.002,0.291-0.24,0.134-0.244c-3.525-0.055-7.059-0.139-10.586-0.153c-0.004-0.07-0.012-0.141-0.022-0.207
				c0.911-0.265,1.823-0.482,2.459-0.742c1.868-0.764,3.73-1.542,5.561-2.393c0.097-0.046,0.158-0.249,0.006-0.185
				c-2.524,1.072-5.116,2.154-7.747,2.932c-0.108,0.032-0.226,0.063-0.345,0.095c-0.041-0.129-0.093-0.252-0.156-0.368
				c3.644-2.785,7.456-5.528,10.582-8.818c0.129-0.137-0.05-0.231-0.165-0.124c-2.052,1.918-4.549,3.541-6.749,5.302
				c-1.172,0.936-2.474,1.754-3.713,2.641c0.155-0.212,0.309-0.413,0.462-0.599c1.884-2.302,3.818-4.564,5.6-6.947
				c0.113-0.151-0.069-0.178-0.164-0.078c-2.087,2.223-4.219,4.401-6.305,6.624c-0.081,0.087-0.162,0.178-0.243,0.267
				c0.359-0.735,0.715-1.47,1.091-2.199c1.055-2.042,2.443-3.91,3.467-5.972c0.077-0.157-0.138-0.117-0.193-0.019
				c-1.068,1.845-2.388,3.552-3.561,5.331c-0.168,0.256-0.329,0.513-0.486,0.772c0.35-1.155,0.705-2.312,1.078-3.461
				c0.862-2.681,1.998-5.269,2.775-7.975c0.053-0.189-0.218-0.064-0.26,0.042c-1.656,4.333-3.742,8.479-5.151,12.889
				c-0.019-0.733-0.035-1.467-0.021-2.192c0.049-2.374,0.188-4.747,0.165-7.121c-0.002-0.145-0.219-0.01-0.226,0.087
				c-0.177,2.435-0.442,4.859-0.604,7.294c-0.063,0.935-0.11,1.868-0.147,2.802c-0.115-0.004-0.228,0-0.338,0.004
				c-0.192-0.655-0.396-1.298-0.549-1.9c-0.642-2.542-1.104-5.113-1.92-7.61c-0.037-0.117-0.242,0.036-0.218,0.135
				c0.572,2.357,0.887,4.754,1.26,7.148c0.075,0.482,0.174,0.97,0.279,1.457c-1.546-2.946-3.105-5.877-4.871-8.715
				c-0.069-0.112-0.328,0.093-0.271,0.2c1.679,3.104,3.057,6.407,4.653,9.565c-0.963-0.782-1.953-1.536-2.863-2.349
				c-1.928-1.721-3.726-3.592-5.613-5.356c-0.077-0.073-0.259,0.086-0.187,0.163c1.748,1.9,3.439,3.839,5.291,5.641
				c0.202,0.196,1.646,1.409,2.959,2.481c-0.051,0.047-0.091,0.103-0.139,0.153c-3.025-2.156-6.423-3.916-9.477-5.938
				c-0.079-0.053-0.259,0.125-0.18,0.185c2.815,2.164,5.729,4.218,8.652,6.248c-0.476-0.168-0.926-0.329-1.275-0.504
				c-1.879-0.934-4.007-1.566-5.7-2.846c-0.097-0.073-0.308,0.11-0.216,0.189c1.23,1.062,2.812,1.817,4.245,2.563
				c0.95,0.497,2.111,0.9,3.189,1.378c-0.056,0.172-0.096,0.347-0.124,0.526c-3.464-0.637-6.944-1.191-10.374-1.991
				c-0.074-0.019-0.207,0.147-0.117,0.175c3.289,0.954,6.738,1.873,10.169,2.47c-1.536,0.197-3.106,0.606-4.566,0.834
				c-2.921,0.453-5.82,0.992-8.729,1.497c-0.08,0.013-0.177,0.184-0.05,0.166c4.55-0.574,9.095-1.271,13.646-1.857
				c-0.795,0.322-1.593,0.633-2.39,0.953c-1.542,0.619-3.066,1.286-4.573,1.987c-0.99,0.46-2.385,1.528-3.527,1.538
				c-0.082,0-0.233,0.175-0.104,0.189c0.661,0.08,1.165-0.222,1.784-0.447c1.62-0.587,3.236-1.182,4.868-1.735
				c1.503-0.51,2.987-1.061,4.468-1.616c0.08,0.094,0.165,0.183,0.259,0.258c-4.234,2.854-8.257,6.068-12.677,8.628
				c-0.097,0.057-0.083,0.199,0.04,0.135c4.633-2.427,8.829-5.601,13.238-8.391c-0.468,0.464-0.94,0.924-1.392,1.397
				c-1.277,1.34-2.372,3.117-3.805,4.271c-0.104,0.085-0.044,0.242,0.084,0.151c1.408-0.986,2.498-2.516,3.727-3.723
				c0.382-0.375,0.801-0.74,1.223-1.108c-0.081,0.163-0.146,0.292-0.18,0.358c-0.723,1.391-1.391,2.808-2.122,4.194
				c-1.206,2.289-2.012,4.791-3.269,7.042c-0.097,0.169,0.146,0.119,0.211,0.018c1.301-1.989,2.22-4.237,3.406-6.297
				c0.897-1.558,1.936-3.13,2.85-4.738c-1.102,4.13-1.832,8.436-2.552,12.585c-0.026,0.157,0.193,0.064,0.216-0.037
				c1.095-4.629,2.285-9.244,3.493-13.85c0.04-0.01,0.079-0.018,0.118-0.028c0.706,4.563,1.491,9.116,1.849,13.726
				c0.011,0.127,0.206,0.012,0.203-0.079c-0.084-3.17-0.419-6.309-0.785-9.454c-0.148-1.27-0.299-2.532-0.491-3.796
				c-0.031-0.199-0.056-0.406-0.08-0.61c0.193,0.305,0.383,0.611,0.576,0.899c0.879,1.3,1.737,2.615,2.616,3.914
				c0.053,0.082,0.236-0.067,0.196-0.148c-0.649-1.27-1.367-2.51-2.042-3.768c-0.229-0.432-0.502-0.849-0.78-1.266
				c0.03-0.02,0.061-0.037,0.089-0.057c0.555,0.607,1.141,1.192,1.658,1.814c1.271,1.527,2.627,3.289,4.172,4.541
				c0.078,0.063,0.251-0.087,0.178-0.157c-1.316-1.245-2.346-2.895-3.473-4.314c-0.544-0.686-1.084-1.374-1.618-2.065
				c1.758,1.463,3.771,2.707,5.622,3.899c0.078,0.049,0.257-0.124,0.179-0.188c-1.531-1.279-3.082-2.565-4.646-3.827
				c4.021,1.36,8.26,2.064,12.142,3.834C74.208,133.548,74.438,133.311,74.295,133.232z"/>
		</g>
		<path style="fill:#22292C;" d="M186.751,124.033c0.295-0.337-0.122-0.563-0.398-0.294c-3.231,3.128-6.972,8.753-7.192,13.751
			c-1.231-0.737-2.669-1.114-4.175-1.258c0.059-0.078,0.104-0.159,0.107-0.241c0.021-0.48-0.008-0.968-0.053-1.457
			c0.411-3.203,1.023-6.136,2.493-9.205c0.078-0.165-0.128-0.151-0.202-0.054c-0.11,0.148-0.208,0.302-0.314,0.451
			c-0.107,0.014-0.226,0.068-0.288,0.161c-0.917,1.353-1.752,2.893-2.398,4.511c-0.032,0.155-0.08,0.302-0.104,0.459
			c-0.005,0.036-0.011,0.071-0.016,0.107c-0.387,1.082-0.657,2.202-0.815,3.352c-0.052,0.123-0.092,0.248-0.15,0.368
			c-0.015,0.032-0.038,0.047-0.055,0.075c-0.051,0.472-0.081,0.945-0.079,1.415c-0.131,0.002-0.26,0.002-0.391,0.002
			c-0.008-0.557-0.057-1.121-0.093-1.671c-0.089-1.377,0.087-2.766,0.297-4.126c0.041-0.264-0.379-0.048-0.434,0.072
			c-0.668,1.453-1.242,2.927-1.428,4.527c-0.05,0.431-0.136,0.881-0.187,1.334c-0.722,0.079-1.434,0.18-2.108,0.299
			c-0.236-0.761-0.568-1.498-0.841-2.252c-0.514-1.417-0.813-2.882-0.826-4.39c-0.005-0.438-0.689-0.036-0.701,0.272
			c-0.076,2.033,0.275,4.599,1.229,6.588c-0.068,0.013-0.14,0.026-0.206,0.041c-4.573,0.947-8.88,3.535-12.161,6.943
			c-0.426-0.401-0.847-0.805-1.237-1.232c-1.288-1.401-2.611-2.811-3.734-4.352c-0.18-0.246-0.719,0.222-0.545,0.481
			c1.06,1.595,2.341,3.031,3.546,4.517c0.382,0.47,0.784,0.949,1.201,1.423c-0.68,0.772-1.311,1.578-1.877,2.413
			c-0.439,0.648-0.868,1.326-1.275,2.02c-2.51-1.188-5.303-1.893-7.917-2.61c-0.245-0.066-0.659,0.407-0.392,0.485
			c2.772,0.797,5.361,1.691,7.883,2.876c-0.755,1.373-1.392,2.804-1.832,4.232c-0.233-0.038-0.471-0.063-0.696-0.106
			c-0.625-0.117-1.244-0.284-1.811-0.576c-0.226-0.115-0.652,0.339-0.392,0.485c0.749,0.421,1.791,0.766,2.72,0.837
			c-0.098,0.37-0.197,0.741-0.263,1.108c-2.511-0.443-5.205,0.061-7.588,0.84c-0.282,0.093-0.438,0.613-0.016,0.492
			c2.32-0.665,5.057-1.057,7.483-0.523c-0.193,1.731,0.021,3.398,0.83,4.884c-2.485,0.551-4.895,2.056-6.746,3.604
			c-0.316,0.263-0.042,0.561,0.274,0.313c2.139-1.689,4.398-2.55,6.93-3.172c0.844,1.179,2.118,2.215,3.936,3.045
			c9.543,4.357,24.251-4.096,27.552-13.4c1.494-4.213,2.708-9.86-0.748-13.316c0.551-2.226,0.75-4.505,1.491-6.714
			C183.018,128.955,184.736,126.327,186.751,124.033z M180.749,146.713c-0.525,10.346-12.832,18.599-22.609,17.605
			c-3.576-0.362-6.8-2.243-7.946-5.476c0.157-0.136,0.29-0.309,0.308-0.414c0.034-0.213,0.08-0.419,0.117-0.63
			c2.278,1.251,5.952-0.813,7.936-1.855c5.083-2.673,9.292-6.881,12.178-11.827c0.518-0.885,1.879-4.625,1.371-6.101
			C177.02,138.077,181.065,140.468,180.749,146.713z"/>
		<path style="fill:#22292C;" d="M234.139,121.015c-0.818,0.402-1.806,0.233-2.73,0.229c-0.006-0.006-0.011-0.01-0.019-0.015
			c0.615-2.579,0.593-5.224-0.561-7.183c0.333-0.603,0.553-1.258,0.975-1.836c0.615-0.839,1.398-1.55,2.18-2.228
			c0.413-0.358,0.058-0.729-0.363-0.411c-1.002,0.76-1.939,1.578-2.751,2.54c-0.214,0.254-0.502,0.61-0.738,0.995
			c-0.624-0.681-1.451-1.22-2.495-1.592c0.04-0.339,0.097-0.678,0.191-1.028c0.172-0.645,0.646-1.245,0.716-1.898l0.72-6.691
			c0.039-0.358-0.568-0.064-0.609,0.17c-0.451,2.541-0.6,5.47-1.707,7.817c-0.189,0.401-0.376,0.845-0.527,1.304
			c-0.096-0.02-0.178-0.05-0.276-0.066c-0.922-0.15-1.788-0.118-2.608,0.043c-0.067-0.214-0.133-0.424-0.185-0.625
			c-0.498-1.925-1.178-3.761-1.27-5.771c-0.023-0.5-0.813-0.048-0.805,0.314c0.035,1.572,0.377,3.078,0.787,4.591
			c0.147,0.541,0.246,1.165,0.349,1.796c-2.491,0.921-4.46,3.164-5.92,5.748c-0.203-0.167-0.429-0.316-0.624-0.472
			c-0.363-0.288-0.691-0.606-0.959-0.985c-0.118-0.171-0.465,0.143-0.364,0.32c0.232,0.405,0.528,0.746,0.859,1.074
			c0.234,0.229,0.474,0.488,0.739,0.702c-0.415,0.792-0.786,1.608-1.108,2.422c-0.227,0.424-0.44,0.861-0.647,1.305
			c-0.745-0.127-1.737-0.282-2.136-0.894c-0.153-0.235-0.697,0.196-0.576,0.428c0.302,0.574,0.987,0.818,1.565,1.021
			c0.196,0.068,0.494,0.186,0.785,0.244c-0.311,0.731-0.589,1.481-0.816,2.237c-0.454,0.022-0.909,0.04-1.366,0.082
			c-1.303,0.115-2.516,0.695-3.827,0.813c-0.211,0.019-0.56,0.532-0.227,0.534c1.385,0.01,2.708-0.447,4.091-0.438
			c0.371,0.004,0.716,0.045,1.046,0.061c-0.372,1.584-0.51,3.185-0.255,4.736c0.038,0.234,0.096,0.458,0.165,0.675
			c-0.666,0.253-1.389,0.403-2.079,0.438c-0.199,0.009-0.504,0.482-0.205,0.486c0.826,0.008,1.684-0.138,2.474-0.426
			c0.171,0.373,0.386,0.714,0.639,1.021c-1.008,0.314-2.062,0.55-2.969,1.108c-1.733,1.067-3.215,2.486-4.669,3.884
			c-0.283,0.273-0.044,0.532,0.263,0.3c1.392-1.06,2.854-1.923,4.287-2.92c1.215-0.843,2.81-0.786,4.055-1.485
			c0.276,0.193,0.577,0.351,0.889,0.489c-2.035,0.748-4.057,2.558-5.014,4.234c-0.142,0.25,0.213,0.246,0.324,0.085
			c1.489-2.175,3.79-2.808,6.007-3.916c0.962,0.173,1.978,0.115,2.926-0.218c2.596-0.915,5.051-2.554,7.029-4.587
			c0.35,0.415,0.767,0.804,1.112,1.152c0.519,0.523,1.068,0.96,1.502,1.563c0.313,0.436,0.678,1.088,1.267,1.169
			c0.329,0.046,0.91-0.525,0.527-0.784c-0.292-0.199-0.481-1.214-0.617-1.546c-0.195-0.481-0.493-0.927-0.783-1.356
			c-0.418-0.617-0.924-1.171-1.351-1.783c-0.044-0.063-0.072-0.132-0.11-0.198c0.302-0.402,0.584-0.814,0.846-1.235
			c0.706-1.139,1.326-2.479,1.789-3.876c1.115-0.256,2.283-0.235,3.261-0.923C234.558,121.534,234.75,120.716,234.139,121.015z
			 M228.762,121.307c-0.21,1.217-0.634,2.485-1.218,3.716c-0.201-0.188-0.393-0.385-0.594-0.601
			c-0.203-0.222-0.729,0.254-0.522,0.46c0.256,0.254,0.503,0.563,0.807,0.768c-0.793,1.5-1.837,2.91-3.08,4.041
			c-0.322-0.465-0.627-0.908-0.756-1.483c-0.063-0.277-0.591,0.071-0.53,0.325c0.144,0.606,0.478,1.072,0.826,1.559
			c-0.557,0.457-1.145,0.86-1.766,1.191c-0.137-0.313-0.288-0.619-0.427-0.923c-0.32-0.704-0.591-1.445-0.97-2.121
			c-0.084-0.15-0.33,0.115-0.311,0.23c0.126,0.775,0.419,1.527,0.664,2.271c0.095,0.292,0.179,0.604,0.27,0.915
			c-0.921,0.385-1.902,0.614-2.928,0.641c-1.93,0.05-3.012-1.07-3.455-2.764c0.34-0.243,0.667-0.497,0.984-0.758
			c5.099-1.804,8.877-8.205,8.466-13.596c0.228-0.193,0.411-0.438,0.492-0.706c0.06-0.201,0.093-0.362,0.106-0.506
			c1.107,0.148,2.177,0.644,3.011,1.47C229.3,116.891,229.08,119.475,228.762,121.307z"/>
		<path style="fill:#323A3D;" d="M35.935,154.473c-0.432-0.9-0.998-1.751-1.647-2.543c-2.068-2.523-6.034-5.067-8.658-1.899
			c-2.55,3.078,0.752,7.309,2.861,9.546c1.807,1.921,5.362,4.026,7.572,1.497C37.688,159.215,37.272,156.716,35.935,154.473z"/>
		<path style="opacity:0.6;fill:#B3E4FA;" d="M75.327,32.692c-6.888,4.804-14.22,9.38-18.722,16.806
			c-5.609,9.259-6.313,20.207-8.65,30.544c-1.388,6.139-3.512,11.805-8.25,16.119c-3.882,3.535-8.093,6.555-12.218,9.815
			c-1.416,1.117-3.202,2.564-4.768,4.146c-2.482,1.923-4.638,4.195-6.031,7.389c-2.541,5.826-0.516,15.029,1.957,20.583
			c0.134,0.303,0.631-0.068,0.613-0.308c-0.36-5.242-0.646-10.565,0.242-15.773c0.883-5.167,3.664-8.503,7.517-11.867
			c8.562-7.477,18.563-14.202,22.446-25.433c3.275-9.467,3.461-19.699,6.773-29.174c3.476-9.944,11.373-16.276,19.22-22.615
			C75.617,32.794,75.525,32.554,75.327,32.692z"/>
		<path style="opacity:0.6;fill:#668392;" d="M200.45,77.714c0.121-0.264,0.218-0.534,0.286-0.818
			c0.011-0.038,0.026-0.082,0.037-0.12c0.189-0.619,0.447-1.99-0.121-2.518c-0.077-0.071-0.159-0.131-0.242-0.182
			c-0.379-0.542-0.974-0.875-1.774-0.782c-1.524,0.176-2.545,1.593-2.739,3.023c-0.142,1.042,0.084,2.124,0.616,3.023
			c0.806,1.362,2.535,0.371,3.276-0.498c0.176-0.206,0.313-0.43,0.434-0.655c0.034-0.054,0.053-0.114,0.084-0.169
			C200.357,77.916,200.408,77.816,200.45,77.714z"/>
		<path style="opacity:0.6;fill:#668392;" d="M203.595,84.028c-0.123-0.184-0.468-0.229-0.659-0.179
			c-0.587,0.157-1.062,0.455-1.439,0.88c-0.355,0.189-0.707,0.486-0.875,0.825c-0.447,0.902,0.02,2.116,1.038,2.357
			c1.023,0.242,1.859-0.703,2.2-1.548C204.161,85.621,204.031,84.682,203.595,84.028z"/>
		<path style="opacity:0.6;fill:#668392;" d="M211.398,74.76c-0.041-0.053-0.103-0.089-0.161-0.119
			c-0.012-0.006-0.023-0.002-0.032-0.008c0.006-0.064,0.012-0.121,0.008-0.164c-0.024-0.315-0.304-0.379-0.568-0.275
			c-0.285,0.11-0.487,0.343-0.568,0.629c-0.263,0.218-0.476,0.518-0.564,0.745c-0.033,0.087-0.067,0.174-0.101,0.26
			c-0.246,0.631,0.438,0.958,0.948,0.714c0.344-0.163,0.626-0.364,0.857-0.669C211.448,75.569,211.672,75.11,211.398,74.76z"/>
		<path style="opacity:0.6;fill:#668392;" d="M61.888,84.637c-0.949-2.338-3.745-1.012-4.944,0.329
			c-1.474,1.645-2.229,5.168-1.177,7.185c0.517,0.99,1.604,1.049,2.521,0.625c1.157-0.318,2.246-1.4,2.826-2.291
			C62.126,88.928,62.6,86.395,61.888,84.637z"/>
		<path style="opacity:0.6;fill:#668392;" d="M68.716,83.412c-0.097-0.004-0.191-0.009-0.288-0.013
			c-0.177-0.008-0.376,0.142-0.421,0.314c-0.03,0.115-0.043,0.536-0.115,0.644c-0.309,0.465,0.335,0.554,0.608,0.286
			c0.272-0.265,0.481-0.543,0.473-0.939C68.97,83.553,68.881,83.42,68.716,83.412z"/>
		<path style="opacity:0.6;fill:#668392;" d="M68.001,94.251c-0.151-0.29-0.349-0.345-0.665-0.32
			c-0.74,0.055-1.349,0.59-1.758,1.243c-1.185,1.318-1.783,3.709-0.39,4.48c1.216,0.673,2.261-1.207,2.565-2.069
			C68.062,96.716,68.465,95.132,68.001,94.251z"/>
		<path style="fill:#22292C;" d="M66.612,164.303c-1.957,0.923-4.05,3.204-3.979,5.491c0.032,1.032,0.85,1.939,1.878,2.084
			c0.633,0.089,1.258-0.02,1.844-0.245c0.117-0.007,0.232-0.005,0.354-0.026c2.047-0.339,4.142-2.777,4.325-4.815
			C71.281,164.068,68.774,163.284,66.612,164.303z"/>
		<path style="fill:#22292C;" d="M76.614,159.097c-0.006-0.099-0.03-0.193-0.104-0.265c-0.652-0.655-1.899,0.538-2.232,1.046
			c-0.374,0.57-0.709,1.768,0.274,1.925c0.632,0.099,1.095-0.453,1.449-0.895c0.278-0.347,0.621-0.798,0.707-1.245
			C76.748,159.449,76.726,159.243,76.614,159.097z"/>
		<path style="fill:#22292C;" d="M72.187,153.679c-1.106-1.217-2.925-0.105-3.759,0.839c-0.881,0.995-1.498,2.376-1.554,3.714
			c-0.027,0.657,0.207,1.085,0.569,1.328c0.138,0.24,0.396,0.383,0.837,0.351c0.533-0.038,1.063-0.302,1.552-0.659
			c0.156-0.106,0.301-0.224,0.438-0.353c0.504-0.445,0.947-0.963,1.269-1.402C72.27,156.5,73.201,154.795,72.187,153.679z"/>
		<path style="fill:#22292C;" d="M191.352,170.112c-0.963-2.829-6.093-1.558-7.876-0.531c-1.504,0.868-4.06,3.494-3.42,5.426
			c0.006,0.31,0.048,0.616,0.171,0.919c1.131,2.803,4.916,1.654,6.8,0.592C189.043,175.381,192.27,172.806,191.352,170.112z"/>
		<path style="fill:#22292C;" d="M199.119,161.317c-0.069,0.012-0.138,0.03-0.206,0.042c-0.055-0.245-0.224-0.443-0.538-0.461
			c-1.407-0.079-2.527,1.056-3.152,2.204c-0.206,0.38-0.322,1.024,0.181,1.244c1.189,0.518,2.59-0.297,3.145-1.379
			c0.109-0.211,0.189-0.483,0.168-0.728c0.096-0.03,0.186-0.059,0.259-0.084C199.319,162.041,199.739,161.211,199.119,161.317z"/>
	</g>
</g>
</svg>
