<svg id="visual" viewBox="0 0 960 540" width="960" height="540" xmlns="http://www.w3.org/2000/svg" xmlns:xlink="http://www.w3.org/1999/xlink" version="1.1"><rect x="0" y="0" width="960" height="540" fill="#001220"></rect><defs><linearGradient id="grad1_0" x1="43.8%" y1="0%" x2="100%" y2="100%"><stop offset="14.444444444444446%" stop-color="#fbae3c" stop-opacity="1"></stop><stop offset="85.55555555555554%" stop-color="#fbae3c" stop-opacity="1"></stop></linearGradient></defs><defs><linearGradient id="grad1_1" x1="43.8%" y1="0%" x2="100%" y2="100%"><stop offset="14.444444444444446%" stop-color="#fbae3c" stop-opacity="1"></stop><stop offset="85.55555555555554%" stop-color="#f48350" stop-opacity="1"></stop></linearGradient></defs><defs><linearGradient id="grad1_2" x1="43.8%" y1="0%" x2="100%" y2="100%"><stop offset="14.444444444444446%" stop-color="#d96162" stop-opacity="1"></stop><stop offset="85.55555555555554%" stop-color="#f48350" stop-opacity="1"></stop></linearGradient></defs><defs><linearGradient id="grad1_3" x1="43.8%" y1="0%" x2="100%" y2="100%"><stop offset="14.444444444444446%" stop-color="#d96162" stop-opacity="1"></stop><stop offset="85.55555555555554%" stop-color="#af4b6d" stop-opacity="1"></stop></linearGradient></defs><defs><linearGradient id="grad1_4" x1="43.8%" y1="0%" x2="100%" y2="100%"><stop offset="14.444444444444446%" stop-color="#7c3e6b" stop-opacity="1"></stop><stop offset="85.55555555555554%" stop-color="#af4b6d" stop-opacity="1"></stop></linearGradient></defs><defs><linearGradient id="grad1_5" x1="43.8%" y1="0%" x2="100%" y2="100%"><stop offset="14.444444444444446%" stop-color="#7c3e6b" stop-opacity="1"></stop><stop offset="85.55555555555554%" stop-color="#49335c" stop-opacity="1"></stop></linearGradient></defs><defs><linearGradient id="grad1_6" x1="43.8%" y1="0%" x2="100%" y2="100%"><stop offset="14.444444444444446%" stop-color="#1d2540" stop-opacity="1"></stop><stop offset="85.55555555555554%" stop-color="#49335c" stop-opacity="1"></stop></linearGradient></defs><defs><linearGradient id="grad1_7" x1="43.8%" y1="0%" x2="100%" y2="100%"><stop offset="14.444444444444446%" stop-color="#1d2540" stop-opacity="1"></stop><stop offset="85.55555555555554%" stop-color="#001220" stop-opacity="1"></stop></linearGradient></defs><defs><linearGradient id="grad2_0" x1="0%" y1="0%" x2="56.3%" y2="100%"><stop offset="14.444444444444446%" stop-color="#fbae3c" stop-opacity="1"></stop><stop offset="85.55555555555554%" stop-color="#fbae3c" stop-opacity="1"></stop></linearGradient></defs><defs><linearGradient id="grad2_1" x1="0%" y1="0%" x2="56.3%" y2="100%"><stop offset="14.444444444444446%" stop-color="#f48350" stop-opacity="1"></stop><stop offset="85.55555555555554%" stop-color="#fbae3c" stop-opacity="1"></stop></linearGradient></defs><defs><linearGradient id="grad2_2" x1="0%" y1="0%" x2="56.3%" y2="100%"><stop offset="14.444444444444446%" stop-color="#f48350" stop-opacity="1"></stop><stop offset="85.55555555555554%" stop-color="#d96162" stop-opacity="1"></stop></linearGradient></defs><defs><linearGradient id="grad2_3" x1="0%" y1="0%" x2="56.3%" y2="100%"><stop offset="14.444444444444446%" stop-color="#af4b6d" stop-opacity="1"></stop><stop offset="85.55555555555554%" stop-color="#d96162" stop-opacity="1"></stop></linearGradient></defs><defs><linearGradient id="grad2_4" x1="0%" y1="0%" x2="56.3%" y2="100%"><stop offset="14.444444444444446%" stop-color="#af4b6d" stop-opacity="1"></stop><stop offset="85.55555555555554%" stop-color="#7c3e6b" stop-opacity="1"></stop></linearGradient></defs><defs><linearGradient id="grad2_5" x1="0%" y1="0%" x2="56.3%" y2="100%"><stop offset="14.444444444444446%" stop-color="#49335c" stop-opacity="1"></stop><stop offset="85.55555555555554%" stop-color="#7c3e6b" stop-opacity="1"></stop></linearGradient></defs><defs><linearGradient id="grad2_6" x1="0%" y1="0%" x2="56.3%" y2="100%"><stop offset="14.444444444444446%" stop-color="#49335c" stop-opacity="1"></stop><stop offset="85.55555555555554%" stop-color="#1d2540" stop-opacity="1"></stop></linearGradient></defs><defs><linearGradient id="grad2_7" x1="0%" y1="0%" x2="56.3%" y2="100%"><stop offset="14.444444444444446%" stop-color="#001220" stop-opacity="1"></stop><stop offset="85.55555555555554%" stop-color="#1d2540" stop-opacity="1"></stop></linearGradient></defs><g transform="translate(960, 0)"><path d="M0 486C-62.4 468.7 -124.8 451.4 -174.5 421.3C-224.2 391.2 -261.3 348.3 -309.7 309.7C-358.1 271.1 -417.7 236.9 -449 186C-480.3 135.1 -483.1 67.5 -486 0L0 0Z" fill="#0c1c30"></path><path d="M0 425.3C-54.6 410.1 -109.2 395 -152.7 368.6C-196.2 342.3 -228.7 304.8 -271 271C-313.3 237.2 -365.5 207.3 -392.9 162.7C-420.2 118.2 -422.7 59.1 -425.2 0L0 0Z" fill="#312c4f"></path><path d="M0 364.5C-46.8 351.5 -93.6 338.5 -130.9 316C-168.2 293.4 -196 261.2 -232.3 232.3C-268.6 203.4 -313.3 177.7 -336.8 139.5C-360.2 101.3 -362.4 50.7 -364.5 0L0 0Z" fill="#623965"></path><path d="M0 303.8C-39 292.9 -78 282.1 -109.1 263.3C-140.2 244.5 -163.3 217.7 -193.6 193.6C-223.8 169.5 -261.1 148.1 -280.6 116.2C-300.2 84.4 -302 42.2 -303.7 0L0 0Z" fill="#96446e"></path><path d="M0 243C-31.2 234.3 -62.4 225.7 -87.3 210.6C-112.1 195.6 -130.7 174.1 -154.9 154.9C-179 135.6 -208.9 118.4 -224.5 93C-240.1 67.5 -241.6 33.8 -243 0L0 0Z" fill="#c55469"></path><path d="M0 182.3C-23.4 175.8 -46.8 169.3 -65.4 158C-84.1 146.7 -98 130.6 -116.1 116.1C-134.3 101.7 -156.7 88.8 -168.4 69.7C-180.1 50.7 -181.2 25.3 -182.2 0L0 0Z" fill="#e9705a"></path><path d="M0 121.5C-15.6 117.2 -31.2 112.8 -43.6 105.3C-56.1 97.8 -65.3 87.1 -77.4 77.4C-89.5 67.8 -104.4 59.2 -112.3 46.5C-120.1 33.8 -120.8 16.9 -121.5 0L0 0Z" fill="#fa9845"></path><path d="M0 60.8C-7.8 58.6 -15.6 56.4 -21.8 52.7C-28 48.9 -32.7 43.5 -38.7 38.7C-44.8 33.9 -52.2 29.6 -56.1 23.2C-60 16.9 -60.4 8.4 -60.7 0L0 0Z" fill="#fbae3c"></path></g><g transform="translate(0, 540)"><path d="M0 -486C55.6 -459.4 111.2 -432.7 171.1 -413C230.9 -393.2 294.9 -380.3 343.7 -343.7C392.4 -307 426 -246.5 447.2 -185.2C468.3 -124 477.2 -62 486 0L0 0Z" fill="#0c1c30"></path><path d="M0 -425.2C48.7 -401.9 97.3 -378.6 149.7 -361.4C202 -344.1 258 -332.8 300.7 -300.7C343.4 -268.6 372.7 -215.7 391.3 -162.1C409.8 -108.5 417.5 -54.2 425.3 0L0 0Z" fill="#312c4f"></path><path d="M0 -364.5C41.7 -344.5 83.4 -324.5 128.3 -309.7C173.2 -294.9 221.2 -285.3 257.7 -257.7C294.3 -230.2 319.5 -184.8 335.4 -138.9C351.3 -93 357.9 -46.5 364.5 0L0 0Z" fill="#623965"></path><path d="M0 -303.7C34.8 -287.1 69.5 -270.5 106.9 -258.1C144.3 -245.8 184.3 -237.7 214.8 -214.8C245.3 -191.9 266.2 -154 279.5 -115.8C292.7 -77.5 298.2 -38.7 303.8 0L0 0Z" fill="#96446e"></path><path d="M0 -243C27.8 -229.7 55.6 -216.4 85.5 -206.5C115.4 -196.6 147.4 -190.2 171.8 -171.8C196.2 -153.5 213 -123.2 223.6 -92.6C234.2 -62 238.6 -31 243 0L0 0Z" fill="#c55469"></path><path d="M0 -182.2C20.9 -172.3 41.7 -162.3 64.1 -154.9C86.6 -147.5 110.6 -142.6 128.9 -128.9C147.2 -115.1 159.7 -92.4 167.7 -69.5C175.6 -46.5 178.9 -23.2 182.3 0L0 0Z" fill="#e9705a"></path><path d="M0 -121.5C13.9 -114.8 27.8 -108.2 42.8 -103.2C57.7 -98.3 73.7 -95.1 85.9 -85.9C98.1 -76.7 106.5 -61.6 111.8 -46.3C117.1 -31 119.3 -15.5 121.5 0L0 0Z" fill="#fa9845"></path><path d="M0 -60.7C7 -57.4 13.9 -54.1 21.4 -51.6C28.9 -49.2 36.9 -47.5 43 -43C49.1 -38.4 53.2 -30.8 55.9 -23.2C58.5 -15.5 59.6 -7.7 60.8 0L0 0Z" fill="#fbae3c"></path></g></svg>