<?xml version="1.0" encoding="utf-8"?>
<!-- Generator: Adobe Illustrator 27.5.0, SVG Export Plug-In . SVG Version: 6.00 Build 0)  -->
<svg version="1.1" id="Layer_1" xmlns="http://www.w3.org/2000/svg" xmlns:xlink="http://www.w3.org/1999/xlink" x="0px" y="0px"
	 viewBox="0 0 292.952 291.89" style="enable-background:new 0 0 292.952 291.89;" xml:space="preserve">
<g>
	
		<ellipse transform="matrix(0.7071 -0.7071 0.7071 0.7071 -62.2875 145.1944)" style="fill:#0086CA;" cx="144.121" cy="147.785" rx="139.727" ry="139.727"/>
	<path style="opacity:0.53;fill:#0086CA;" d="M95.459,162.833c-0.981-1.177-2.205-2.18-3.701-2.601
		c-1.437-0.404-2.959-0.257-4.397,0.059c-3.434,0.753-6.616,2.303-10.202,2.259c-2.721-0.033-5.287-0.946-7.452-2.587
		c-4.664-3.536-7.231-9.366-9.696-14.497c-1.303-2.711-2.582-5.444-4.114-8.036c-1.586-2.682-3.638-4.97-5.991-7.003
		c-4.288-3.706-9.707-6.568-12.78-11.486c-4.154-6.647-1.578-14.976,0.899-21.744c1.513-4.134,3.222-8.21,4.28-12.493
		c1.03-4.17,1.382-8.558,1.007-12.842c-0.184-2.103-0.632-4.217-1.707-6.057c-0.469-0.804-1.072-1.661-1.895-2.139
		c-1.466-0.851-2.951,0.061-3.9,1.231c-0.916,1.129-1.577,2.468-2.125,3.84c-0.839,1.262-1.542,2.632-2.196,3.931
		c-0.817,1.623-1.581,3.287-2.54,4.833c-1.159,1.868-2.295,3.727-3.239,5.717c-2.061,4.349-3.363,8.961-4.58,13.602
		c-1.296,4.94-2.47,9.92-3.264,14.969c-1.47,9.352-1.472,19.006-1.099,28.448c0.372,9.418,1.404,18.85,3.542,28.039
		c2.023,8.698,5.153,17.054,9.537,24.84c4.309,7.652,9.655,14.738,15.831,20.98c6.127,6.192,13.101,11.614,20.858,15.615
		c3.301,1.703,6.832,3.494,10.505,4.192c2.962,0.563,6.004,0.105,7.799-2.528c1.542-2.262,1.752-5.266,1.72-7.919
		c-0.039-3.279-0.52-6.541-1.006-9.777c-0.397-2.646-0.982-5.388-0.85-8.076c0.189-3.842,2.011-7.224,4.213-10.285
		c2.176-3.026,4.682-5.817,6.63-9.005c2.133-3.491,3.411-7.47,3.575-11.568C99.29,170.512,98.211,166.134,95.459,162.833z"/>
	<path style="opacity:0.53;fill:#0086CA;" d="M242.846,200.405c-0.819-0.949-1.972-1.784-3.517-2.477
		c-4.431-1.985-7.443-3.826-6.912-9.125c0.346-3.457,1.924-6.655,2.825-10.01c1.519-5.654-0.309-10.811-5.073-14.19
		c-2.368-1.68-4.963-3.098-6.966-5.2c-3.18-3.339-3.384-7.894-1.509-11.952c2.154-4.661,6.118-8.463,9.083-12.611
		c2.783-3.894,5.316-8.099,6.327-12.777c1.516-7.009-1.478-14.098-6.905-18.599c-6.581-5.457-10.513-8.578-12.133-17.022
		c-1.084-5.649-2.514-11.357-9.632-10.096c-5.624,0.996-14.888,5.386-17.138,11.129c-1.674,4.272,1.143,8.904-1.349,13.107
		c-1.689,2.848-5.014,4.457-7.991,5.568c-6.785,2.533-14.713,3.044-21.894,2.564c-7.156-0.479-13.978-3.899-20.489,0.949
		c-2.505,1.866-4.508,4.89-3.958,7.965c0.387,2.166,1.932,3.905,3.23,5.682c3.485,4.768-0.41,10.893,0.53,16.078
		c1.768,9.751,14.6,3.864,20.745,3.084c7.472-0.948,10.441,3.425,14.776,8.452c11.779,13.661,37.109,15.375,37.098,37.871
		c-0.004,7.247-3.041,14.854,0.566,21.733c1.608,3.068,3.83,5.359,3.441,9.016c-0.386,3.624-4.244,7.202-1.703,10.873
		c1.219,1.761,3.657,2.197,5.79,1.993c8.847-0.846,16.644-10.775,20.884-17.78C243.353,210.695,246.416,204.546,242.846,200.405z"/>
	<path style="opacity:0.49;fill:#0086CA;" d="M42.416,60.735c1.424,0.004,2.894-0.07,4.3-0.3c1.118-0.183,2.203-0.566,3.289-0.879
		c1.213-0.349,4.032-1.377,4.768,0.28c0.387,0.871-0.045,2.122-0.462,2.903c-0.546,1.025-1.627,1.614-2.634,2.098
		c-1.003,0.482-2.416,0.907-3.033,1.909c-0.69,1.12-0.609,2.497-0.495,3.756c0.131,1.455,0.405,2.891,0.595,4.338
		c0.235,1.785,0.152,3.602,0.177,5.399c0.058,4.231,0.114,8.585-1.029,12.698c-1.055,3.798-2.999,7.28-4.077,11.07
		c-0.534,1.876-0.846,3.851-0.565,5.798c0.25,1.73,0.977,3.373,1.847,4.875c1.737,2.996,4.149,5.543,6.514,8.047
		c2.299,2.434,4.666,4.854,6.539,7.644c1.796,2.676,3.142,5.638,4.529,8.537c1.488,3.109,2.97,6.25,4.855,9.143
		c1.854,2.846,4.337,5.774,7.808,6.539c3.597,0.793,7.196-0.987,10.401-2.388c3.032-1.325,6.124-2.56,9.494-2.18
		c3.217,0.363,6.238,1.648,9.428,2.155c1.837,0.292,3.717,0.307,5.533-0.128c1.667-0.399,3.213-1.232,4.828-1.794
		c3.219-1.122,6.615-0.781,9.688,0.652c3.036,1.416,5.637,3.73,8.801,4.864c-1.094-4.096-2.565-8.081-3.673-12.175
		c-0.39-1.441-0.482-2.698-0.465-4.176c0.02-1.685-0.878-2.601-2.271-3.462c-0.183-0.113-0.29-0.394-0.154-0.586
		c1.586-2.239,3.517-4.211,4.99-6.535c1.219-1.922,2.447-4.495,1.203-6.702c-1.229-2.18-3.573-2.655-5.861-2.166
		c-4.682,1.001-8.886,4.273-12.551,7.202c-0.218,0.174-0.514,0.167-0.673-0.087c-2.818-4.505-4.287-10.597-3.456-15.877
		c0.04-0.252,0.319-0.328,0.527-0.299c3.008,0.41,5.872,1.695,8.638,2.885c0.519,0.224,1.117,0.397,1.558,0.756
		c0.326,0.266,0.588,0.616,0.833,0.954c0.547,0.754,1.04,1.898,2.007,2.187c1.726,0.517,2.969-1.42,3.627-2.685
		c1.654-3.178,2.441-6.976,2.891-10.51c0.022-0.171,0.114-0.385,0.315-0.413c5.766-0.812,10.74-3.912,15.444-7.161
		c0.166-0.115,0.379-0.046,0.519,0.067c3.431,2.758,7.307,5.079,11.689,5.885c3.819,0.702,7.716,0.134,11.38-1.048
		c1.553-0.501,3.081-1.009,4.663-1.417c1.586-0.408,3.181-0.795,4.731-1.326c1.311-0.449,2.764-1.004,3.733-2.04
		c1.008-1.078,0.94-2.658,0.677-4.016c-0.607-3.139-2.23-6.042-3.799-8.79c-0.093-0.164-0.07-0.386,0.067-0.519
		c2.625-2.555,6.324-3.745,9.941-3.889c-1.167-3.254-2.81-6.369-3.242-9.837c-0.03-0.245,0.22-0.412,0.429-0.428
		c3.013-0.243,6.035,0.398,9.028,0.646c1.389,0.115,2.85,0.215,4.225-0.076c1.063-0.225,2.35-0.502,3.24-1.159
		c0.797-0.587,0.973-1.515,0.969-2.455c-0.005-1.159-0.033-2.623-0.597-3.669c-0.713-1.322-2.415-0.52-3.555-0.364
		c-4.296,0.59-5.019-5.039-5.935-8.038c-0.73-2.391-1.915-4.364-4.079-5.734c-0.929-0.588-1.951-1.014-2.917-1.533
		c-1.482-0.795-2.957-1.545-4.55-2.098c-5.642-1.957-11.713-1.543-17.555-2.359c-0.133-0.019-0.277-0.17-0.299-0.299
		c-0.368-2.079-0.598-4.438,0.266-6.431c0.827-1.906,2.6-2.595,4.529-2.494c-0.659-2.822-2.911-5.005-5.064-6.812
		c-0.243-0.204-0.111-0.651,0.189-0.716c3.194-0.691,6.548-0.843,9.805-0.908c2.848-0.057,5.756-0.18,8.299,1.295
		c2.429,1.409,4.297,3.949,7.149,4.542c3.084,0.642,6.02-1.705,8.871-2.49c3.856-1.061,7.908-0.939,11.755-1.966
		c-0.093-0.507-0.188-1.014-0.283-1.522c-19.798-10.755-42.487-16.864-66.602-16.864c-43.503,0-82.36,19.882-107.986,51.054
		C37.905,60.395,40.25,60.729,42.416,60.735z"/>
	<path style="opacity:0.49;fill:#0086CA;" d="M214.629,36.516c0.043,2.417-0.01,4.918-0.492,7.294
		c-0.254,1.255-0.73,2.411-1.114,3.623c-0.257,0.81-0.042,1.337,0.461,2.007c1.11,1.48,2.514,2.715,3.712,4.119
		c1.925,2.256,3.031,4.809,3.048,7.791c0.008,1.497-0.173,2.99-0.33,4.476c-0.204,1.927-0.346,3.853-0.448,5.788
		c-0.184,3.506-0.236,6.904,1.238,10.167c0.813,1.801,1.911,3.441,2.885,5.155c0.753,1.324,1.445,2.681,2.186,4.011
		c1.137,2.039,2.437,3.899,4.805,4.532c3.057,0.818,6.46,0.183,9.557-0.082c2.653-0.227,5.548-0.361,7.846,1.223
		c2.462,1.698,4.074,4.805,4.242,7.758c0.18,3.168-0.651,6.938-2.966,9.244c-0.972,0.968-2.043,1.779-3.335,2.265
		c-0.663,0.249-1.709,0.291-2.252,0.768c-0.73,0.64-0.1,2.327,0.091,3.061c0.54,2.081,1.147,4.16,1.958,6.153
		c1.415,3.482,3.451,6.661,5.976,9.441c2.898,3.19,6.296,5.722,9.777,8.234c7.295,5.265,14.725,10.515,20.478,17.525
		c0.383,0.467,0.752,0.944,1.129,1.416c0.505-4.831,0.769-9.734,0.769-14.699c0-51.724-28.119-96.86-69.89-121.018
		C214.237,30.014,214.571,33.256,214.629,36.516z"/>
	<path style="opacity:0.49;fill:#0086CA;" d="M277.808,123.244c-3.096,5.36-6.665,11.947-12.428,14.855
		c-2.488,1.256-5.278,1.476-7.905,0.502c-2.767-1.026-5.087-3.262-7.541-4.848c-1.121-0.725-2.459-1.714-3.859-1.476
		c-0.773,0.131-0.742,0.288-0.921,0.924c-0.138,0.489-0.454,0.906-0.828,1.24c-2.277,2.036-4.243,4.115-6.043,6.616
		c-2.083,2.896-3.978,5.986-5.424,9.253c-1.18,2.665-2.45,6.005-0.807,8.759c1.708,2.863,5.467,3.749,7.981,5.707
		c2.689,2.094,4.063,5.288,3.813,8.661c-0.294,3.963-1.37,7.844-1.682,11.821c-0.189,2.405-0.449,5.422,0.864,7.588
		c1.001,1.651,2.911,2.165,4.708,2.426c2.807,0.408,5.681,0.384,8.508,0.557c0.216,0.013,0.448,0.188,0.429,0.428
		c-0.323,3.949-1.794,7.689-3.644,11.16c-4.142,7.769-10.175,14.624-16.597,20.591c-6.932,6.441-15.684,9.953-24.791,12.061
		c-3.558,0.824-7.445,2.044-11.126,2.044c-2.314-0.001-3.886-1.13-3.482-3.597c0.685-4.183,3.802-7.375,5.545-11.086
		c2.334-4.967-0.18-10.679-1.357-15.626c-0.424-1.784-0.893-3.71-0.747-5.559c0.093-1.18,0.361-2.347,0.649-3.492
		c0.784-3.111,1.823-6.152,2.7-9.236c0.786-2.762,1.675-5.721,1.561-8.624c-0.038-0.97-0.21-2.109-0.981-2.789
		c-1.342-1.183-2.999-0.266-4.161,0.696c-1.485,1.229-2.823,2.604-4.33,3.812c-1.985,1.59-3.878,3.301-5.844,4.915
		c-3.915,3.216-7.982,6.314-12.47,8.693c-4.259,2.258-8.836,3.713-13.623,4.287c-5.218,0.625-10.495,0.42-15.73,0.163
		c-8.58-0.422-15.88-5.625-24.146-7.375c-1.975-0.418-4.046-0.617-6.04-0.208c-2.164,0.443-4.096,1.885-5.744,3.289
		c-3.535,3.011-6.328,6.762-9.7,9.938c-1.455,1.371-3.046,2.492-4.722,3.573c-1.886,1.217-3.917,2.485-5.055,4.489
		c-1.565,2.756-1.501,6.422-1.21,9.479c0.253,2.657,0.849,5.269,1.093,7.926c0.16,1.74,0.21,3.858-1.089,5.216
		c-1.596,1.668-4.371,1.511-6.458,1.271c-4.377-0.504-8.737-1.831-12.848-3.381c-8.135-3.067-15.593-7.688-22.155-13.375
		c-6.703-5.809-12.444-12.672-17.394-20.016c-5.418-8.04-10.011-16.629-13.247-25.781c-7.061-19.973-8.4-41.699-7.376-62.712
		c0.37-7.595,1.278-15.172,2.814-22.619c-6.811,16.453-10.577,34.485-10.577,53.4c0,77.169,62.558,139.727,139.727,139.727
		c77.169,0,139.727-62.558,139.727-139.727c0-10.125-1.087-19.995-3.132-29.508C279.743,119.929,278.768,121.582,277.808,123.244z"
		/>
	<g>
		<path style="fill:#B2D341;" d="M186.932,175.149c-0.835-0.449-1.813-0.571-2.759-0.521c-0.949,0.05-1.908,0.273-2.708,0.787
			c-0.188,0.121-0.386,0.295-0.577,0.507c-0.5,0.553-0.924,1.289-1.053,2.028c-0.084,0.482,0.002,1.02,0.34,1.373
			c0.31,0.325,0.776,0.446,1.222,0.504c1.681,0.22,3.589-0.233,4.809-1.458C186.965,177.605,188.385,175.93,186.932,175.149z"/>
		<path style="fill:#B2D341;" d="M165.563,115.808c-2.259-1.336-5.035-1.898-7.573-2.427c-2.488-0.519-5.006-0.926-7.531-1.221
			c-3.064-0.359-6.264-0.338-8.977,1.304c-1.6,0.968-2.911,2.382-4.179,3.736c-0.391,0.418-0.779,0.84-1.172,1.256
			c-0.317,0.337-0.858,0.694-0.896,1.169c-0.017,0.218,0.029,0.549,0.266,0.623c0.092,0.029,0.176,0.005,0.257-0.032
			c-0.063,0.203-0.044,0.401,0.146,0.559c2.871,2.399,6.908,0.763,9.861-0.592c1.607-0.738,3.172-1.616,4.843-2.207
			c2.084-0.736,4.46-0.832,6.643-0.65c2.744,0.228,5.446,1.049,7.804,2.477c0.235,0.142,0.572,0.082,0.783-0.083
			c0.665-0.518,1.396-1.28,1.232-2.203C166.929,116.734,166.206,116.188,165.563,115.808z"/>
		<path style="fill:#B2D341;" d="M184.349,120.139c-0.246-1.581-1.824-2.862-3.388-2.949c-1.676-0.094-3.218,0.924-4.595,1.743
			c-0.692,0.412-1.382,0.773-2.134,1.06c-0.588,0.225-1.155,0.479-1.608,0.93c-0.822,0.817-1.599,2.482-0.91,3.581
			c0.395,0.631,1.102,1.086,1.689,1.517c0.608,0.446,1.252,0.864,1.791,1.396c0.876,0.866,1.417,2.405,2.716,2.739
			c1.291,0.331,2.887-0.335,3.798-1.245c1.007-1.006,1.356-2.447,1.591-3.803c0.113-0.65,0.202-1.303,0.314-1.953
			C184.145,122.229,184.515,121.207,184.349,120.139z"/>
		<path style="fill:#B2D341;" d="M201.623,65.674c-1.114-0.369-2.326-0.213-3.472-0.142c-0.953,0.059-1.799-0.306-2.685-0.621
			c-0.965-0.343-2.526-0.862-3.573-0.505c-0.019-0.009-0.034-0.024-0.053-0.032c-0.762-0.315-1.484,0.15-1.947,0.744
			c-0.74,0.947-1.265,2.292-1.44,3.48c-0.172,1.166,0.34,2.298,1.178,3.099c0.355,0.339,0.785,0.611,1.022,1.055
			c0.385,0.72,0.184,1.458,0.058,2.214c-0.366,2.181,1.031,4.742,3.516,4.362c0.888-0.135,1.474-0.761,1.765-1.58
			c0.245-0.691,0.269-1.533,0.715-2.138c0.39-0.529,1.048-0.874,1.615-1.175c0.723-0.383,1.469-0.72,2.195-1.096
			c1.341-0.693,2.914-1.588,3.418-3.117C204.519,68.451,203.37,66.252,201.623,65.674z"/>
		<path style="fill:#CDDC3A;" d="M286.959,131.145c-0.972-3.411-2.462-6.65-3.393-10.068c-0.957-3.515-1.371-7.143-1.704-10.761
			c-0.337-3.659-0.605-7.333-1.309-10.945c-0.693-3.555-1.862-7.011-3.236-10.357c-1.333-3.247-2.882-6.4-4.485-9.521
			c-1.575-3.067-3.054-6.243-4.995-9.099c-3.644-5.362-8.617-9.612-13.29-14.037c-2.444-2.314-4.757-4.769-7.259-7.022
			c-1.229-1.106-2.509-2.159-3.871-3.099c-1.428-0.985-2.963-1.758-4.48-2.591c-1.78-0.976-3.521-2.015-5.239-3.089
			c-7.682-6.424-16.063-12.038-25.015-16.711c0.91,1.008,1.818,2.018,2.613,3.12c1.587,2.201,2.235,4.749,2.788,7.363
			c0.087,0.412,0.176,0.831,0.268,1.251c-0.001,0.251-0.002,0.501-0.012,0.753c-0.105,2.705-0.646,5.348-0.442,8.067
			c0.174,2.31,0.688,4.657,2.093,6.542c1.187,1.592,2.781,2.847,3.799,4.57c1.325,2.24,1.586,5.211,1.744,7.755
			c0.167,2.694,0.085,5.395,0.136,8.092c0.096,5.087,0.9,10.067,3.709,14.413c1.857,2.872,4.561,4.994,8.039,5.33
			c1.732,0.167,3.496-0.091,5.168-0.539c1.954-0.523,3.745-1.482,5.68-2.038c1.387-0.399,2.257-0.096,2.967,1.178
			c0.949,1.702,1.211,3.77,2.722,5.125c1.213,1.088,2.916,1.244,4.259,2.108c1.871,1.205,2.43,3.015,2.213,5.155
			c-0.209,2.062-0.945,4.056-1.713,5.967c-0.772,1.921-1.514,4.472-3.379,5.61c-0.981,0.599-2.153,0.789-3.17,1.319
			c-0.873,0.455-1.605,1.137-2.208,1.91c-0.946,1.213-1.417,2.662-1.28,4.199c0.291,3.282,2.609,5.982,3.667,9.018
			c0.529,1.519,0.699,3.082,0.041,4.589c-1.092,2.499-2.695,4.777-4.209,7.032c-1.484,2.208-2.844,4.461-4.161,6.771
			c-1.178,2.066-2.196,4.221-2.061,6.66c0.106,1.923,1.035,3.371,2.391,4.671c1.586,1.521,3.23,2.887,4.291,4.856
			c2.137,3.967,1.686,8.751,0.979,13.029c-0.639,3.866-2.061,8.011-1.35,11.954c0.315,1.748,1.155,3.44,2.683,4.425
			c1.395,0.9,3.19,1.231,4.749,0.574c3.167-1.335,4.284-5.21,6.902-7.24c0.719-0.558,0.986-0.482,1.479,0.281
			c0.7,1.084,1.287,2.303,1.64,3.545c0.764,2.685-0.087,5.175-1.251,7.6c-0.589,1.227-1.582,2.873-1.121,4.296
			c0.486,1.499,2.197,2.433,3.238,3.495c0.81,0.827,1.237,1.978,1.815,2.993c-0.034,0.163-0.064,0.326-0.103,0.49
			c-0.563,2.326-1.472,4.558-2.548,6.691c-2.272,4.507-5.208,8.635-7.616,13.065c-1.121,2.063-2.124,4.19-2.896,6.41
			c-0.064,0.183-0.021,0.354,0.128,0.477c0.099,0.082,0.199,0.154,0.299,0.219c9.016-10.856,16.405-23.106,21.826-36.37
			c0.402-0.784,0.699-1.643,0.969-2.437c0.211-0.545,0.419-1.092,0.623-1.641c1.051-2.531,2.49-4.916,4.017-7.176
			c1.753-2.595,3.452-5.058,4.371-8.09c0.845-2.789,1.1-5.708,1.283-8.603c0.232-3.654,0.552-7.268,1.131-10.886
			c0.595-3.721,1.34-7.417,1.976-11.131C288.985,144.068,288.797,137.594,286.959,131.145z"/>
		<path style="fill:#CDDC3A;" d="M203.127,181.101c-0.841-2.096-2.821-3.397-5.048-3.597c-1.914-0.172-3.713,0.573-5.351,1.521
			c-0.042-0.079-0.085-0.158-0.121-0.24c-0.238-0.545-0.314-1.212-0.695-1.684c-0.686-0.849-2.088-0.704-3.219-0.515
			c-0.01,0.014-0.024,0.022-0.034,0.036c-0.215,0.317-0.34,0.7-0.618,0.965c-0.107,0.102-0.234,0.184-0.329,0.298
			c-0.118,0.142-0.176,0.323-0.245,0.494c-1.104,2.744-6.111,4.042-8.048,1.509c-2.268-2.967,1.089-4.95,2.96-6.624
			c0.744-0.665,1.408-1.917,1.933-2.777c-0.02-0.228-0.054-0.455-0.114-0.681c-0.347-1.294-1.293-1.906-2.449-2.419
			c-1.228-0.545-2.585-0.941-3.665-1.765c-1.173-0.895-2.011-2.13-2.878-3.302c-0.936-1.266-2.021-2.363-3.58-2.802
			c-1.71-0.482-3.538-0.214-5.288-0.247c-0.653-0.012-1.297-0.066-1.916-0.19c-0.313,0.529-0.643,1.046-1.04,1.52
			c-0.116,0.139-0.373,0.163-0.519,0.067c-0.762-0.501-1.569-0.931-2.311-1.464c-0.345-0.248-0.735-0.474-0.776-0.933
			c-0.023-0.252,0.033-0.497,0.119-0.733c0.032-0.088,0.064-0.228,0.125-0.324c-0.005-0.01-0.009-0.02-0.014-0.031
			c-0.29-0.426-0.471-0.993-0.701-1.457c-0.273-0.552-0.548-1.103-0.812-1.658c-0.088-0.186-0.175-0.374-0.261-0.561
			c-0.633-0.692-1.324-1.335-1.985-1.999c-0.292-0.294-0.59-0.582-0.887-0.871c-0.289-0.119-0.577-0.239-0.869-0.353
			c-0.834-0.328-2.22-0.846-3.408-0.883c-1.288-0.487-2.719-0.426-4.057-0.058c-0.743,0.204-1.426,0.51-2.079,0.871
			c-0.092-0.072-0.181-0.147-0.274-0.215c-0.622,0.043-1.238,0.137-1.851,0.25c-1.19,0.752-2.281,1.719-3.246,2.87
			c-0.187,0.222-0.369,0.52-0.562,0.822c-0.668,0.25-1.361,0.374-2.061,0.263c-1.569-0.248-2.834-1.507-3.546-2.858
			c-1.517-2.877-1.312-6.332-2.459-9.339c-0.52-1.365-1.32-2.663-2.664-3.333c-1.407-0.702-3.076-0.931-4.38-1.831
			c-1.401-0.968-0.822-2.361,0.158-3.4c1.21-1.284,2.732-2.253,3.865-3.613c1.048-1.258,1.55-3.01,1.198-4.632
			c-0.371-1.712-1.869-2.452-3.523-2.223c-1.918,0.265-3.589,1.465-4.961,2.762c-1.521,1.438-2.78,3.122-4.077,4.756
			c-0.379,0.478-0.768,0.948-1.167,1.41c-1.677-2.89-5.03-3.915-7.394-6.178c-3.646-3.491-2.396-8.999-0.268-12.95
			c1.267-2.353,2.877-4.498,4.57-6.559c4.499,1.826,3.179,9.565,8.563,10.127c2.446,0.255,4.332-1.129,4.993-3.461
			c0.602-2.126,0.399-4.358,0.393-6.537c-0.008-2.543,0.77-4.926,2.961-6.382c2.096-1.393,4.751-1.813,7.194-2.151
			c2.778-0.384,5.53-0.692,8.28-1.259c1.688-0.348,3.418-0.703,5.149-0.522c1.927,0.201,3.528,1.176,5.067,2.284
			c2.55,1.836,5.227,4.102,8.58,3.745c1.837-0.196,3.432-1.058,5.034-1.913c1.419-0.757,2.867-1.457,4.263-2.259
			c1.399-0.804,2.782-1.713,3.898-2.891c0.552-0.583,0.977-1.215,1.297-1.899c-0.009-0.171-0.021-0.342-0.02-0.516
			c0.009-1.153,0.211-2.293,0.241-3.445c0.026-0.957,0.001-2.084-0.886-2.646c-0.738-0.467-1.641-0.691-2.251-1.35
			c-0.538-0.58-0.544-1.133-0.303-1.847c0.265-0.784,0.658-1.528,1.051-2.254c0.315-0.582,0.61-1.227,0.996-1.766
			c0.372-0.52,0.904-1.175,1.483-1.483c0.452-0.24,0.93-0.15,1.413-0.082c0.844,0.119,1.7,0.142,2.551,0.084
			c0.714-0.049,1.483-0.172,2.063-0.625c0.588-0.459,0.901-1.189,1.124-1.879c0.28-0.864,0.506-1.883,0.083-2.74
			c-0.315-0.639-0.871-1.138-1.287-1.709c-0.53-0.726-0.888-1.557-1.092-2.43c-0.256-1.09-0.271-2.294,0.414-3.236
			c1.24-1.706,3.742-1.899,5.552-2.658c0.89-0.373,1.777-0.917,2.178-1.837c0.232-0.53,0.28-1.118,0.249-1.69
			c-0.049-0.891-0.638-1.529-1.198-2.185c-0.565-0.661-1.19-1.287-1.693-1.999c-0.561-0.793-0.973-1.685-1.392-2.558
			c-0.851-1.775-1.722-3.812-3.518-4.827c-1.693-0.957-3.78-1.033-5.673-1.169c-2.039-0.146-3.976-0.345-5.894-1.092
			c-0.59-0.23-1.336-0.649-1.995-0.549c-0.731,0.112-1.496,0.72-2.093,1.112c-0.844,0.554-1.575,1.277-2.447,1.788
			c-0.814,0.478-1.716,0.65-2.652,0.534c-1.791-0.221-3.231-1.214-3.894-2.905c-0.161-0.412-0.28-0.837-0.381-1.266
			c-0.014-0.034-0.033-0.064-0.046-0.098c-0.3-0.815-0.514-1.668-1.343-2.11c-0.73-0.389-1.587-0.218-2.372-0.358
			c-0.805-0.143-1.433-0.666-2.096-1.111c-1.037-0.695-2.455-1.496-3.38-0.249c-0.706,0.952-1.385,1.933-2.029,2.927
			c-0.306,0.472-0.388,0.944-0.278,1.508c0.157,0.801,0.822,1.69,0.677,2.526c-0.102,0.591-1.01,0.897-1.481,1.122
			c-0.74,0.353-1.508,0.653-2.23,1.042c-0.65,0.351-1.364,0.838-1.801,1.445c-0.319,0.444-0.275,0.831-0.046,1.297
			c0.644,1.311,0.824,2.679,0.64,4.13c-0.077,0.604-0.218,1.302-0.608,1.791c-0.358,0.449-0.869,0.416-1.357,0.256
			c0.267-1.91-2.179-2.686-3.457-3.614c-0.338-0.246-0.649-0.528-0.785-0.934c-0.097-0.29-0.117-0.598-0.102-0.908
			c0.149-0.257,0.302-0.513,0.443-0.774c0.503-0.929,1.095-1.957,1.254-3.018c0.123-0.82-0.478-1.508-1.008-2.064
			c-0.538-0.564-1.14-1.067-1.769-1.531c-1.206,0.152-2.325,0.085-3.406-0.594c-1.095-0.688-2.235-1.657-2.735-2.883
			c-0.749-1.835,0.509-3.495,1.833-4.658c1.548-1.359,3.398-2.303,4.907-3.703c0.748-0.693,1.475-1.415,2.274-2.049
			c0.612-0.486,1.374-1.082,2.197-1.104c0.796-0.021,1.493,0.614,1.978,1.179c0.654,0.764,1.16,1.641,1.714,2.477
			c0.539,0.813,1.115,1.642,2.078,1.967c1.264,0.427,2.638,0.003,3.907-0.184c1.487-0.219,2.95-0.257,4.451-0.229
			c1.452,0.027,3.016,0.115,4.413-0.353c0.801-0.268,1.861-0.597,2.395-1.308c0.315-0.42,0.219-0.902,0.024-1.354
			c-0.285-0.659-0.719-1.255-1.096-1.862c-0.319-0.516-0.596-1.053-0.845-1.603c-0.291-0.101-0.581-0.199-0.87-0.296
			c-1.338,0.339-2.771,0.816-4.023,0.157c-1.129-0.594-1.646-1.899-3.024-2.07c-0.371-0.046-0.645-0.592-0.216-0.799
			c1.852-0.892,3.327-2.319,4.951-3.546c0.741-0.56,1.522-1.067,2.384-1.42c0.943-0.387,1.975-0.543,2.986-0.631
			c2.034-0.175,4.081,0.051,6.094,0.345c2.179,0.319,4.32-0.209,6.493-0.295c3.157-0.125,5.296,2.974,7.705,4.517
			c1.378,0.883,3.001,1.351,4.613,0.86c1.396-0.426,2.514-1.459,3.815-2.089c0.695-0.337,1.395-0.581,2.176-0.577
			c0.793,0.004,1.567,0.221,2.314,0.465c1.499,0.489,2.939,1.001,4.389,0.219c-0.073-0.954,0.011-2.179-0.745-2.794
			c-0.347-0.282-0.774-0.431-1.213-0.555c0.562-0.17,1.116-0.373,1.653-0.646c0.29-0.147,0.612-0.548,0.284-0.829
			c-2.267-1.943-4.908-3.293-7.688-4.343c-2.869-1.083-5.849-1.873-8.674-3.071c-2.944-1.248-5.729-2.862-8.75-3.933
			c-3.208-1.137-6.554-1.231-9.922-1.374c-1.83-0.078-3.665-0.18-5.472-0.497c-1.685-0.296-3.368-0.595-5.064-0.828
			c-3.442-0.473-6.878-0.627-10.344-0.35c-3.4,0.272-6.827,0.244-10.203,0.78c-1.651,0.262-3.299,0.647-4.855,1.268
			c-1.532,0.611-2.979,1.422-4.531,1.986c-0.818,0.297-1.593,0.427-2.46,0.464c-0.723,0.031-1.448,0.083-2.123,0.367
			c-1.179,0.496-1.837,1.411-2.141,2.617c-0.103,0.41-0.209,0.819-0.374,1.206c-0.159,0.056-0.318,0.111-0.476,0.168
			c-0.841,0.188-1.699,0.326-2.585,0.381c-2.53,0.159-5.103-0.013-7.598,0.521c-0.693,0.148-1.377,0.329-2.056,0.53
			c-0.336-0.02-0.672-0.037-1.008-0.047c-2.739-0.081-5.308,0.71-7.939,1.358c-1.338,0.33-2.698,0.511-4.044,0.798
			c-1.316,0.281-2.608,0.656-3.888,1.069c-2.556,0.825-5.058,1.819-7.648,2.537c-4.581,1.269-9.429,1.102-13.986,2.456
			c-1.035,0.307-2.071,0.679-3.004,1.23c-0.863,0.51-1.607,1.22-2.26,1.975c-1.406,1.626-2.471,3.501-3.669,5.277
			c-1.373,2.036-2.953,3.962-4.478,5.886c-1.629,2.056-3.324,4.066-5.198,5.904c-2.539,2.491-5.529,4.474-7.876,7.17
			c-1.005,1.155-2.043,2.504-2.323,4.047c-0.243,1.339,0.413,2.558,1.608,3.189c1.385,0.731,3.061,0.628,4.56,0.407
			c1.819-0.268,3.589-0.797,5.361-1.274c1.411-0.38,2.935-0.871,4.415-0.784c1.322,0.077,2.593,0.563,3.876,0.852
			c1.201,0.27,2.363,0.331,3.57,0.06c0.969-0.218,1.934-0.576,2.928-0.588c-1.569,2.026-3.254,3.972-5.023,5.821
			c-0.989,1.034-2.074,1.971-3.023,3.043c-1.347,1.523-2.445,3.263-2.976,5.241c-0.549,2.043-0.483,4.111-0.28,6.182
			c-0.445,2.897-0.763,5.836-0.994,8.755c-0.266,3.363-0.382,6.769-1.107,10.075c-0.671,3.064-1.887,6.022-2.129,9.172
			c-0.398,5.184,1.634,10.004,4.798,14.011c3.336,4.225,7.535,7.681,11.18,11.625c2.15,2.326,4.153,4.79,5.878,7.45
			c1.504,2.318,2.923,4.723,4.91,6.671c1.767,1.732,4.131,3.163,6.681,3.109c2.309-0.049,4.342-1.226,6.338-2.257
			c2.58-1.333,5.379-2.419,8.337-2.048c1.501,0.188,2.761,0.773,4.011,1.597c0.994,0.655,1.968,1.33,3.084,1.766
			c2.65,1.035,5.614,0.792,8.389,0.605c2.829-0.19,6.184-0.599,8.779,0.816c1.943,1.06,3.233,2.983,5.191,4.023
			c0.051,0.027,0.102,0.044,0.153,0.069c0.028,0.094,0.052,0.187,0.097,0.284c0.308,0.662,0.989,1.171,1.54,1.621
			c0.506,0.413,1.025,0.812,1.51,1.249c0.394-0.242,0.838-0.401,1.184-0.709c0.173-0.154,0.436-0.171,0.606,0
			c0.489,0.493,0.96,1.004,1.429,1.515c0.167,0.582,0.326,1.166,0.579,1.718c-1.125,0.656-2.036,1.552-2.918,2.531
			c-1.07,1.187-2.016,2.069-3.714,1.788c-1.234-0.204-2.474-0.652-3.735-0.651c-1.116,0-2.065,0.483-2.872,1.233
			c-1.409,1.31-2.423,3.113-3.4,4.749c-1.147,1.922-2.195,3.901-3.282,5.857c-1.72,3.094-3.589,5.89-6.007,8.48
			c-4.064,4.354-9.293,8.528-11.083,14.446c-1.035,3.423-0.247,6.617,0.352,10.042c0.775,4.429,1.259,8.892,0.846,13.386
			c-0.245,2.665-0.516,5.34-0.292,8.017c0.035,0.415,0.083,0.855,0.154,1.301c0.001,0.012,0,0.024,0.001,0.036
			c0.131,1.979,0.601,3.846,1.595,5.571c0.822,1.426,1.931,2.663,3.17,3.739c2.631,2.286,5.817,3.831,8.93,5.341
			c3.112,1.511,6.289,2.978,8.97,5.203c3.371,2.797,6.1,6.476,10.12,8.421c2.101,1.016,4.385,1.454,6.69,1.702
			c2.413,0.259,4.847,0.493,7.273,0.319c2.44-0.176,5.05-0.676,7.472-0.111c1.966,0.459,3.618,1.711,5.115,3.011
			c1.511,1.312,3.017,2.635,4.52,3.956c1.636,1.438,3.178,2.99,4.928,4.295c1.05,0.784,2.16,1.384,3.344,1.84
			c1.681,2.262,3.61,4.473,5.897,6.115c0.777,0.557,1.568,0.985,2.493,1.219c0.488,0.124,0.982,0.226,1.478,0.32
			c0.122-0.764,0.183-1.534,0.141-2.312c-0.052-0.965-0.243-1.917-0.474-2.853c-0.176-0.714-0.784-1.229-1.174-1.838
			c-0.063-0.099-0.113-0.204-0.163-0.309c0.306-0.812,0.445-1.684,0.483-2.573c0.116-0.206,0.204-0.414,0.216-0.63
			c0.02-0.386-0.093-0.814-0.251-1.23c-0.047-0.643-0.116-1.277-0.188-1.884c-0.143-1.21-0.347-2.411-0.585-3.605
			c-0.195-0.978-0.45-2.004-0.267-3.005c0.152-0.834,0.667-1.527,1.192-2.169c0.79-0.966,1.622-1.897,2.394-2.879
			c1.439-1.829,2.457-3.757,2.838-6.072c0.454-2.765,0.77-5.542,2.062-8.076c1.307-2.563,3.129-4.825,4.931-7.049
			c1.724-2.128,3.394-4.211,4.541-6.719c1.056-2.311,1.688-4.789,2.095-7.29c0.849-5.218,0.594-10.529,1.293-15.757
			c0.381-2.846,1.112-5.642,2.232-8.288c1.08-2.55,2.651-4.894,3.477-7.551C203.701,185.699,203.964,183.185,203.127,181.101z
			 M121.035,9.894c0.211-0.008,0.418-0.018,0.624-0.032c-0.812,0.131-1.622,0.266-2.429,0.411
			C119.78,9.993,120.402,9.918,121.035,9.894z"/>
	</g>
	<g>
		<path style="fill:#B2D341;" d="M186.932,175.149c-0.835-0.449-1.813-0.571-2.759-0.521c-0.949,0.05-1.908,0.273-2.708,0.787
			c-0.188,0.121-0.386,0.295-0.577,0.507c-0.5,0.553-0.924,1.289-1.053,2.028c-0.084,0.482,0.002,1.02,0.34,1.373
			c0.31,0.325,0.776,0.446,1.222,0.504c1.681,0.22,3.589-0.233,4.809-1.458C186.965,177.605,188.385,175.93,186.932,175.149z"/>
		<path style="fill:#B2D341;" d="M167.069,117.518c-0.102-0.573-0.516-1.017-0.982-1.363c-0.088,0.514-0.355,0.95-0.971,1.129
			c-1.101,0.32-2.433-0.256-3.446-0.637c-1.072-0.402-2.09-0.833-3.228-1.01c-2.018-0.313-4.095-0.306-6.129-0.193
			c-1.023,0.057-2.044,0.149-3.06,0.283c-0.866,0.114-1.786,0.204-2.607,0.514c-1.585,0.598-2.966,1.659-4.507,2.356
			c-1.348,0.61-2.886,1.03-4.255,0.243c-0.521-0.299-0.842-0.728-0.975-1.217c-0.259,0.278-0.517,0.557-0.777,0.833
			c-0.317,0.337-0.858,0.694-0.896,1.169c-0.017,0.218,0.029,0.549,0.266,0.623c0.092,0.029,0.176,0.005,0.257-0.032
			c-0.063,0.203-0.044,0.401,0.146,0.559c2.871,2.399,6.908,0.763,9.861-0.592c1.607-0.738,3.172-1.616,4.843-2.206
			c2.084-0.736,4.46-0.832,6.643-0.65c2.744,0.228,5.446,1.049,7.804,2.477c0.235,0.142,0.572,0.082,0.783-0.083
			C166.503,119.203,167.234,118.441,167.069,117.518z"/>
		<path style="fill:#B2D341;" d="M184.349,120.139c-0.189-1.215-1.166-2.246-2.318-2.701c0.561,0.61,0.816,1.441,0.719,2.288
			c-0.122,1.074-0.718,1.926-1.333,2.779c-0.685,0.95-1.424,1.905-2.349,2.634c-0.797,0.628-1.582,0.897-2.576,0.622
			c-1.03-0.285-2.003-0.865-2.813-1.555c-0.693-0.591-1.348-1.364-1.268-2.328c0.031-0.375,0.155-0.721,0.32-1.046
			c-0.035,0.032-0.074,0.057-0.108,0.091c-0.822,0.817-1.599,2.482-0.91,3.581c0.395,0.631,1.102,1.086,1.689,1.517
			c0.608,0.446,1.252,0.864,1.791,1.396c0.876,0.866,1.417,2.405,2.716,2.739c1.291,0.331,2.887-0.335,3.798-1.245
			c1.007-1.006,1.356-2.447,1.591-3.803c0.113-0.65,0.202-1.303,0.314-1.953C184.145,122.229,184.515,121.207,184.349,120.139z"/>
		<path style="fill:#8FC749;" d="M201.623,65.674c-1.114-0.369-2.326-0.213-3.472-0.142c-0.953,0.059-1.799-0.306-2.685-0.621
			c-0.965-0.343-2.526-0.862-3.573-0.505c-0.019-0.009-0.034-0.024-0.053-0.032c-0.762-0.315-1.484,0.15-1.947,0.744
			c-0.74,0.947-1.265,2.292-1.44,3.48c-0.172,1.166,0.34,2.298,1.178,3.099c0.355,0.339,0.785,0.611,1.022,1.055
			c0.385,0.72,0.184,1.458,0.058,2.214c-0.366,2.181,1.031,4.742,3.516,4.362c0.888-0.135,1.474-0.761,1.765-1.58
			c0.245-0.691,0.269-1.533,0.715-2.138c0.39-0.529,1.048-0.874,1.615-1.175c0.723-0.383,1.469-0.72,2.195-1.096
			c1.341-0.693,2.914-1.588,3.418-3.117C204.519,68.451,203.37,66.252,201.623,65.674z"/>
		<path style="opacity:0.66;fill:#BCD641;" d="M286.959,131.145c-0.972-3.411-2.462-6.65-3.393-10.068
			c-0.957-3.515-1.371-7.143-1.704-10.761c-0.337-3.659-0.605-7.333-1.309-10.945c-0.693-3.555-1.862-7.011-3.236-10.357
			c-1.333-3.247-2.882-6.4-4.485-9.521c-1.575-3.067-3.054-6.243-4.995-9.099c-3.644-5.362-8.617-9.612-13.29-14.037
			c-2.444-2.314-4.757-4.769-7.259-7.022c-1.229-1.106-2.509-2.159-3.871-3.099c-1.428-0.985-2.963-1.758-4.48-2.591
			c-1.78-0.976-3.521-2.015-5.239-3.089c-7.682-6.424-16.063-12.038-25.015-16.711c0.91,1.008,1.818,2.018,2.613,3.12
			c1.587,2.201,2.235,4.749,2.788,7.363c0.087,0.412,0.176,0.831,0.268,1.251c-0.001,0.251-0.002,0.501-0.012,0.753
			c-0.105,2.705-0.646,5.348-0.442,8.067c0.174,2.31,0.688,4.657,2.093,6.542c1.187,1.592,2.781,2.847,3.799,4.57
			c1.325,2.24,1.586,5.211,1.744,7.755c0.167,2.694,0.085,5.395,0.136,8.092c0.096,5.087,0.9,10.067,3.709,14.413
			c1.857,2.872,4.561,4.994,8.039,5.33c1.732,0.167,3.496-0.091,5.168-0.539c1.954-0.523,3.745-1.482,5.68-2.038
			c1.387-0.399,2.257-0.096,2.967,1.178c0.949,1.702,1.211,3.77,2.722,5.125c1.213,1.088,2.916,1.244,4.259,2.108
			c1.871,1.205,2.43,3.015,2.213,5.155c-0.209,2.062-0.945,4.056-1.713,5.967c-0.772,1.921-1.514,4.472-3.379,5.61
			c-0.981,0.599-2.153,0.789-3.17,1.319c-0.873,0.455-1.605,1.137-2.208,1.91c-0.946,1.213-1.417,2.662-1.28,4.199
			c0.291,3.282,2.609,5.982,3.667,9.018c0.529,1.519,0.699,3.082,0.041,4.589c-1.092,2.499-2.695,4.777-4.209,7.032
			c-1.484,2.208-2.844,4.461-4.161,6.771c-1.178,2.066-2.196,4.221-2.061,6.66c0.106,1.923,1.035,3.371,2.391,4.671
			c1.586,1.521,3.23,2.887,4.291,4.856c2.137,3.967,1.686,8.751,0.979,13.029c-0.639,3.866-2.061,8.011-1.35,11.954
			c0.315,1.748,1.155,3.44,2.683,4.425c1.395,0.9,3.19,1.231,4.749,0.574c3.167-1.335,4.284-5.21,6.902-7.24
			c0.719-0.558,0.986-0.482,1.479,0.281c0.7,1.084,1.287,2.303,1.64,3.545c0.764,2.685-0.087,5.175-1.251,7.6
			c-0.589,1.227-1.582,2.873-1.121,4.296c0.486,1.499,2.197,2.433,3.238,3.495c0.81,0.827,1.237,1.978,1.815,2.993
			c-0.034,0.163-0.064,0.326-0.103,0.49c-0.563,2.326-1.472,4.558-2.548,6.691c-2.272,4.507-5.208,8.635-7.616,13.065
			c-1.121,2.063-2.124,4.19-2.896,6.41c-0.064,0.183-0.021,0.354,0.128,0.477c0.099,0.082,0.199,0.154,0.299,0.219
			c9.016-10.856,16.405-23.106,21.826-36.37c0.402-0.784,0.699-1.643,0.969-2.437c0.211-0.545,0.419-1.092,0.623-1.641
			c1.051-2.531,2.49-4.916,4.017-7.176c1.753-2.595,3.452-5.058,4.371-8.09c0.845-2.789,1.1-5.708,1.283-8.603
			c0.232-3.654,0.552-7.268,1.131-10.886c0.595-3.721,1.34-7.417,1.976-11.131C288.985,144.068,288.797,137.594,286.959,131.145z
			 M255.376,89.863c-0.711-0.322-1.437-0.586-2.173-0.843c-0.367-0.128-0.705-0.263-0.943-0.584c-0.268-0.36-0.406-0.82-0.577-1.231
			c-0.427-1.026-0.913-2.021-1.395-3.022c-1.04-2.159-2.186-4.114-4.418-5.205c-1.566-0.765-3.152-0.932-4.784-0.274
			c-2.451,0.988-4.693,3.612-7.574,2.898c-1.902-0.471-3.409-2.18-4.432-3.752c-1.344-2.065-1.948-4.477-2.09-6.916
			c-0.283-4.877,1.214-9.778,0.44-14.637c-0.3-1.881-0.952-3.648-2.2-5.1c-1.182-1.375-2.56-2.565-3.763-3.921
			c-1.067-1.203-2.104-2.603-2.303-4.245c-0.123-1.02,0.137-1.96,0.605-2.808c-0.069-0.24-0.142-0.479-0.199-0.721
			c-0.255-1.073-0.451-2.383,0.107-3.399c0.588-1.071,1.841-1.222,2.94-1.057c3.663,0.552,6.429,3.729,8.546,6.52
			c2.42,3.19,4.598,6.869,5.749,10.728c0.554,1.857,0.674,3.79,1.595,5.536c0.746,1.412,1.892,2.444,3.357,3.072
			c1.483,0.636,3.103,0.924,4.665,1.299c1.992,0.477,3.948,1.077,5.791,1.982c1.731,0.85,3.444,1.945,4.107,3.849
			c0.263,0.756,0.346,1.563,0.445,2.353c0.123,0.986,0.277,1.965,0.561,2.92c0.335,1.122,0.762,2.195,1.496,3.119
			c0.726,0.914,1.638,1.669,2.56,2.377c1.495,1.146,3.099,2.189,4.206,3.74c1.959,2.747,3.402,5.932,4.603,9.071
			c0.69,1.803,1.286,3.65,1.691,5.538c0.334,1.557,0.574,3.189,0.422,4.783c-0.118,1.237-0.484,2.539-1.445,3.393
			c-1.061,0.943-2.75,1.378-4.113,0.948c-1.534-0.484-2.592-1.858-3.35-3.206c-0.839-1.494-1.417-3.125-1.951-4.748
			c-0.551-1.672-1.08-3.377-1.927-4.928C258.693,91.684,257.116,90.651,255.376,89.863z M264.056,166.018
			c-0.702,0.907-0.991,1.947-1.056,3.077c-0.153,2.672-0.032,5.292-1.206,7.773c-1.119,2.367-2.987,5.116-5.57,6.024
			c-0.58,0.204-1.204,0.277-1.813,0.185c-0.549-0.083-1.294-0.315-1.684-0.733c-0.199-0.213-0.283-0.553-0.381-0.819
			c-0.182-0.491-0.348-0.988-0.512-1.485c-0.423-1.277-0.826-2.561-1.228-3.845c-0.342-1.093-0.714-2.164-0.866-3.305
			c-0.513-3.868,1.223-7.582,0.881-11.439c-0.19-2.152-1.251-3.962-2.205-5.85c-0.796-1.576-1.598-3.213-1.917-4.964
			c-0.313-1.719-0.087-3.417,0.639-5.005c0.828-1.811,2.169-3.25,3.617-4.583c1.871-1.723,4.305-3.27,4.86-5.927
			c0.344-1.649,0.088-3.452-0.253-5.08c-0.287-1.37-0.831-2.669-1.218-4.011c-0.717-1-1.576-1.909-2.076-3.049
			c-0.319-0.726-0.485-1.54-0.324-2.329c0.134-0.655,0.614-1.222,1.064-1.694c1.123-1.177,2.515-2.039,3.756-3.078
			c0.641-0.537,1.235-1.133,1.849-1.7c0.39-0.36,0.793-0.759,1.269-1.005c0.947-0.49,2.147-0.192,3.151-0.103
			c2.616,0.231,5.875,0.811,6.977,3.561c0.872,2.175,0.254,4.738,0.014,6.978c-0.152,1.419-0.211,2.835-0.088,4.259
			c0.173,2.001,0.684,3.961,1.315,5.863c1.249,3.761,3.02,7.334,4.129,11.144c1.024,3.517,1.472,7.508-0.019,10.966
			c-1.372,3.181-4.35,5.028-7.105,6.891C266.646,163.689,265.113,164.655,264.056,166.018z M278.064,177.738
			c-0.215,2.458-0.73,4.905-1.57,7.226c-0.777,2.147-1.837,4.283-3.439,5.939c-0.68,0.703-1.47,1.307-2.361,1.717
			c-0.833,0.383-2.037,0.962-2.947,0.478c-0.761-0.404-0.916-1.377-1.02-2.148c-0.092-0.682-0.113-1.374-0.244-2.05
			c-0.165-0.849-0.287-1.704-0.388-2.563c-0.11-0.935-0.199-1.873-0.317-2.808c-0.119-0.95-0.321-1.884-0.448-2.832
			c-0.188-1.402-0.152-2.83,0.209-4.203c0.337-1.278,0.942-2.431,1.689-3.495c0.295-1.758,0.962-3.472,2.076-4.861
			c1.042-1.299,2.685-2.368,4.409-1.87c2.225,0.644,3.352,3.257,3.951,5.269C278.254,173.522,278.243,175.697,278.064,177.738z"/>
		<path style="opacity:0.66;fill:#558C40;" d="M244.263,88.524c1.387-0.399,2.257-0.096,2.967,1.178
			c0.949,1.702,1.211,3.77,2.722,5.125c1.213,1.088,2.916,1.244,4.259,2.108c1.871,1.205,2.43,3.015,2.213,5.155
			c-0.209,2.062-0.945,4.056-1.713,5.967c-0.772,1.921-1.514,4.472-3.379,5.61c-0.981,0.599-2.153,0.789-3.17,1.319
			c-0.873,0.455-1.605,1.137-2.208,1.91c-0.946,1.213-1.417,2.662-1.28,4.199c0.291,3.282,2.609,5.982,3.667,9.018
			c0.01,0.03,0.018,0.06,0.029,0.09c0.073-0.182,0.138-0.367,0.183-0.561c0.324-1.386-0.334-2.661-0.82-3.925
			c-0.26-0.678-0.495-1.369-0.581-2.093c-0.084-0.714,0.053-1.411,0.186-2.111c0.193-1.008,0.525-2.149,1.397-2.783
			c0.627-0.456,1.402-0.511,2.149-0.575c0.906-0.077,1.764-0.238,2.518-0.781c1.167-0.841,2.05-2.2,2.747-3.432
			c0.818-1.445,1.492-2.968,2.349-4.39c0.621-1.03,1.785-1.581,2.428-2.575c0.344-0.531,0.414-1.157,0.509-1.768
			c0.12-0.77,0.212-1.52,0.143-2.302c-0.113-1.277-0.629-2.466-1.39-3.488c-1.554-2.087-3.875-3.251-5.788-4.936
			c-2.131-1.877-3.483-4.462-5.642-6.313c-1.14-0.977-2.517-1.794-4.013-2.048c-1.249-0.212-2.506,0.021-3.711,0.358
			c-2.483,0.693-4.873,1.593-7.478,0.922c-2.366-0.609-4.643-2.194-6.138-4.115c-1.316-1.692-2.049-3.732-2.369-5.838
			c-0.696-4.585,0.172-9.227,0.222-13.826c0.024-2.242-0.127-4.518-0.847-6.657c-0.35-1.041-0.845-2.028-1.482-2.924
			c-0.824-1.159-1.873-2.161-2.782-3.254c-1.335-1.605-2.561-3.322-3.059-5.382c-0.625-2.583-0.202-5.211-0.358-7.826
			c-0.215-3.601-1.379-7.079-2.357-10.576c-1.877-1.094-3.775-2.155-5.706-3.162c0.91,1.008,1.818,2.018,2.613,3.12
			c1.587,2.201,2.235,4.749,2.788,7.363c0.087,0.412,0.176,0.831,0.268,1.251c-0.001,0.251-0.002,0.501-0.012,0.753
			c-0.105,2.705-0.646,5.348-0.442,8.067c0.174,2.31,0.688,4.657,2.093,6.542c1.187,1.592,2.781,2.847,3.799,4.57
			c1.325,2.24,1.586,5.211,1.744,7.755c0.167,2.694,0.085,5.395,0.136,8.092c0.096,5.087,0.9,10.067,3.709,14.413
			c1.857,2.872,4.561,4.994,8.039,5.33c1.732,0.167,3.496-0.091,5.168-0.539C240.538,90.039,242.329,89.08,244.263,88.524z"/>
		<path style="opacity:0.66;fill:#558C40;" d="M286.959,131.145c-0.972-3.411-2.462-6.65-3.393-10.068
			c-0.957-3.515-1.371-7.143-1.704-10.761c-0.337-3.659-0.605-7.333-1.309-10.945c-0.693-3.555-1.862-7.011-3.236-10.357
			c-1.333-3.247-2.882-6.4-4.485-9.521c-0.892-1.737-1.762-3.504-2.694-5.234c0.37,0.811,0.746,1.618,1.094,2.439
			c1.042,2.457,2.004,4.955,2.817,7.498c0.852,2.667,1.744,5.326,2.393,8.052c0.636,2.673,1.04,5.424,0.912,8.177
			c-0.058,1.247-0.203,2.493-0.564,3.691c-0.355,1.181-0.814,2.328-1.185,3.504c-0.332,1.051-0.753,2.323-0.487,3.431
			c0.261,1.084,0.954,1.959,1.699,2.756c0.726,0.777,1.491,1.534,2.069,2.434c0.587,0.914,0.935,2.041,1.156,3.096
			c0.952,4.559-0.646,9.133-0.345,13.712c0.141,2.15,0.776,4.407,2.241,6.037c1.215,1.351,2.682,2.455,3.352,4.207
			c0.846,2.211,0.259,4.643-0.395,6.819c-0.351,1.168-0.742,2.335-0.931,3.544c-0.2,1.278-0.098,2.618,0.149,3.881
			c0.367,1.877,1.058,3.668,1.589,5.502c0.06-0.415,0.112-0.829,0.178-1.244c0.595-3.721,1.34-7.417,1.976-11.131
			C288.985,144.068,288.797,137.594,286.959,131.145z"/>
		<path style="fill:#B2D341;" d="M62.18,73.597c0.334-1.017,0.418-2.071,0.436-3.135C62.434,71.507,62.294,72.555,62.18,73.597z"/>
		<path style="opacity:0.66;fill:#BCD641;" d="M203.127,181.101c-0.841-2.096-2.821-3.397-5.048-3.597
			c-1.914-0.172-3.713,0.573-5.351,1.521c-0.042-0.079-0.085-0.158-0.121-0.24c-0.238-0.545-0.314-1.212-0.695-1.684
			c-0.686-0.849-2.088-0.704-3.219-0.515c-0.01,0.014-0.024,0.022-0.034,0.036c-0.215,0.317-0.34,0.7-0.618,0.965
			c-0.107,0.102-0.234,0.184-0.329,0.298c-0.118,0.142-0.176,0.323-0.245,0.494c-1.104,2.744-6.111,4.042-8.048,1.509
			c-2.268-2.967,1.089-4.95,2.96-6.624c0.744-0.665,1.408-1.917,1.933-2.777c-0.02-0.228-0.054-0.455-0.114-0.681
			c-0.347-1.294-1.293-1.906-2.449-2.419c-1.228-0.545-2.585-0.941-3.665-1.765c-1.173-0.895-2.011-2.13-2.878-3.302
			c-0.936-1.266-2.021-2.363-3.58-2.802c-1.71-0.482-3.538-0.214-5.288-0.247c-0.653-0.012-1.297-0.066-1.916-0.19
			c-0.313,0.529-0.643,1.046-1.04,1.52c-0.116,0.139-0.373,0.163-0.519,0.067c-0.762-0.501-1.569-0.931-2.311-1.464
			c-0.345-0.248-0.735-0.474-0.776-0.933c-0.023-0.252,0.033-0.497,0.119-0.733c0.032-0.088,0.064-0.228,0.125-0.324
			c-0.005-0.01-0.009-0.02-0.014-0.031c-0.29-0.426-0.471-0.993-0.701-1.457c-0.273-0.552-0.548-1.103-0.812-1.658
			c-0.088-0.186-0.175-0.374-0.261-0.561c-0.633-0.692-1.324-1.335-1.985-1.999c-0.292-0.294-0.59-0.582-0.887-0.871
			c-0.289-0.119-0.577-0.239-0.869-0.353c-0.834-0.328-2.22-0.846-3.408-0.883c-1.288-0.487-2.719-0.426-4.057-0.058
			c-0.743,0.204-1.426,0.51-2.079,0.871c-0.092-0.072-0.181-0.147-0.274-0.215c-0.622,0.043-1.238,0.137-1.851,0.25
			c-1.19,0.752-2.281,1.719-3.246,2.87c-0.187,0.222-0.369,0.52-0.562,0.822c-0.668,0.25-1.361,0.374-2.061,0.263
			c-1.569-0.248-2.834-1.507-3.546-2.858c-1.517-2.877-1.312-6.332-2.459-9.339c-0.52-1.365-1.32-2.663-2.664-3.333
			c-1.407-0.702-3.076-0.931-4.38-1.831c-1.401-0.968-0.822-2.361,0.158-3.4c1.21-1.284,2.732-2.253,3.865-3.613
			c1.048-1.258,1.55-3.01,1.198-4.632c-0.371-1.712-1.869-2.452-3.523-2.223c-1.918,0.265-3.589,1.465-4.961,2.762
			c-1.521,1.438-2.78,3.122-4.077,4.756c-0.379,0.478-0.768,0.948-1.167,1.41c-1.677-2.89-5.03-3.915-7.394-6.178
			c-3.646-3.491-2.396-8.999-0.268-12.95c1.267-2.353,2.877-4.498,4.57-6.559c4.499,1.826,3.179,9.565,8.563,10.127
			c2.446,0.255,4.332-1.129,4.993-3.461c0.602-2.126,0.399-4.358,0.393-6.537c-0.008-2.543,0.77-4.926,2.961-6.382
			c2.096-1.393,4.751-1.813,7.194-2.151c2.778-0.384,5.53-0.692,8.28-1.259c1.688-0.348,3.418-0.703,5.149-0.522
			c1.927,0.201,3.528,1.176,5.067,2.284c2.55,1.836,5.227,4.102,8.58,3.745c1.837-0.196,3.432-1.058,5.034-1.913
			c1.419-0.757,2.867-1.457,4.263-2.259c1.399-0.804,2.782-1.713,3.898-2.891c0.552-0.583,0.977-1.215,1.297-1.899
			c-0.009-0.171-0.021-0.342-0.02-0.516c0.009-1.153,0.211-2.293,0.241-3.445c0.026-0.957,0.001-2.084-0.886-2.646
			c-0.738-0.467-1.641-0.691-2.251-1.35c-0.538-0.58-0.544-1.133-0.303-1.847c0.265-0.784,0.658-1.528,1.051-2.254
			c0.315-0.582,0.61-1.227,0.996-1.766c0.372-0.52,0.904-1.175,1.483-1.483c0.452-0.24,0.93-0.15,1.413-0.082
			c0.844,0.119,1.7,0.142,2.551,0.084c0.714-0.049,1.483-0.172,2.063-0.625c0.588-0.459,0.901-1.189,1.124-1.879
			c0.28-0.864,0.506-1.883,0.083-2.74c-0.315-0.639-0.871-1.138-1.287-1.709c-0.53-0.726-0.888-1.557-1.092-2.43
			c-0.256-1.09-0.271-2.294,0.414-3.236c1.24-1.706,3.742-1.899,5.552-2.658c0.89-0.373,1.777-0.917,2.178-1.837
			c0.232-0.53,0.28-1.118,0.249-1.69c-0.049-0.891-0.638-1.529-1.198-2.185c-0.565-0.661-1.19-1.287-1.693-1.999
			c-0.561-0.793-0.973-1.685-1.392-2.558c-0.851-1.775-1.722-3.812-3.518-4.827c-1.693-0.957-3.78-1.033-5.673-1.169
			c-2.039-0.146-3.976-0.345-5.894-1.092c-0.59-0.23-1.336-0.649-1.995-0.549c-0.731,0.112-1.496,0.72-2.093,1.112
			c-0.844,0.554-1.575,1.277-2.447,1.788c-0.814,0.478-1.716,0.65-2.652,0.534c-1.791-0.221-3.231-1.214-3.894-2.905
			c-0.161-0.412-0.28-0.837-0.381-1.266c-0.014-0.034-0.033-0.064-0.046-0.098c-0.3-0.815-0.514-1.668-1.343-2.11
			c-0.73-0.389-1.587-0.218-2.372-0.358c-0.805-0.143-1.433-0.666-2.096-1.111c-1.037-0.695-2.455-1.496-3.38-0.249
			c-0.706,0.952-1.385,1.933-2.029,2.927c-0.306,0.472-0.388,0.944-0.278,1.508c0.157,0.801,0.822,1.69,0.677,2.526
			c-0.102,0.591-1.01,0.897-1.481,1.122c-0.74,0.353-1.508,0.653-2.23,1.042c-0.65,0.351-1.364,0.838-1.801,1.445
			c-0.319,0.444-0.275,0.831-0.046,1.297c0.644,1.311,0.824,2.679,0.64,4.13c-0.077,0.604-0.218,1.302-0.608,1.791
			c-0.358,0.449-0.869,0.416-1.357,0.256c0.267-1.91-2.179-2.686-3.457-3.614c-0.338-0.246-0.649-0.528-0.785-0.934
			c-0.097-0.29-0.117-0.598-0.102-0.908c0.149-0.257,0.302-0.513,0.443-0.774c0.503-0.929,1.095-1.957,1.254-3.018
			c0.123-0.82-0.478-1.508-1.008-2.064c-0.538-0.564-1.14-1.067-1.769-1.531c-1.206,0.152-2.325,0.085-3.406-0.594
			c-1.095-0.688-2.235-1.657-2.735-2.883c-0.749-1.835,0.509-3.495,1.833-4.658c1.548-1.359,3.398-2.303,4.907-3.703
			c0.748-0.693,1.475-1.415,2.274-2.049c0.612-0.486,1.374-1.082,2.197-1.104c0.796-0.021,1.493,0.614,1.978,1.179
			c0.654,0.764,1.16,1.641,1.714,2.477c0.539,0.813,1.115,1.642,2.078,1.967c1.264,0.427,2.638,0.003,3.907-0.184
			c1.487-0.219,2.95-0.257,4.451-0.229c1.452,0.027,3.016,0.115,4.413-0.353c0.801-0.268,1.861-0.597,2.395-1.308
			c0.315-0.42,0.219-0.902,0.024-1.354c-0.285-0.659-0.719-1.255-1.096-1.862c-0.319-0.516-0.596-1.053-0.845-1.603
			c-0.291-0.101-0.581-0.199-0.87-0.296c-1.338,0.339-2.771,0.816-4.023,0.157c-1.129-0.594-1.646-1.899-3.024-2.07
			c-0.371-0.046-0.645-0.592-0.216-0.799c1.852-0.892,3.327-2.319,4.951-3.546c0.741-0.56,1.522-1.067,2.384-1.42
			c0.943-0.387,1.975-0.543,2.986-0.631c2.034-0.175,4.081,0.051,6.094,0.345c2.179,0.319,4.32-0.209,6.493-0.295
			c3.157-0.125,5.296,2.974,7.705,4.517c1.378,0.883,3.001,1.351,4.613,0.86c1.396-0.426,2.514-1.459,3.815-2.089
			c0.695-0.337,1.395-0.581,2.176-0.577c0.793,0.004,1.567,0.221,2.314,0.465c1.499,0.489,2.939,1.001,4.389,0.219
			c-0.073-0.954,0.011-2.179-0.745-2.794c-0.347-0.282-0.774-0.431-1.213-0.555c0.562-0.17,1.116-0.373,1.653-0.646
			c0.29-0.147,0.612-0.548,0.284-0.829c-2.267-1.943-4.908-3.293-7.688-4.343c-2.869-1.083-5.849-1.873-8.674-3.071
			c-2.944-1.248-5.729-2.862-8.75-3.933c-3.208-1.137-6.554-1.231-9.922-1.374c-1.83-0.078-3.665-0.18-5.472-0.497
			c-1.685-0.296-3.368-0.595-5.064-0.828c-3.442-0.473-6.878-0.627-10.344-0.35c-3.4,0.272-6.827,0.244-10.203,0.78
			c-1.651,0.262-3.299,0.647-4.855,1.268c-1.532,0.611-2.979,1.422-4.531,1.986c-0.818,0.297-1.593,0.427-2.46,0.464
			c-0.723,0.031-1.448,0.083-2.123,0.367c-1.179,0.496-1.837,1.411-2.141,2.617c-0.103,0.41-0.209,0.819-0.374,1.206
			c-0.159,0.056-0.318,0.111-0.476,0.168c-0.841,0.188-1.699,0.326-2.585,0.381c-2.53,0.159-5.103-0.013-7.598,0.521
			c-0.693,0.148-1.377,0.329-2.056,0.53c-0.336-0.02-0.672-0.037-1.008-0.047c-2.739-0.081-5.308,0.71-7.939,1.358
			c-1.338,0.33-2.698,0.511-4.044,0.798c-1.316,0.281-2.608,0.656-3.888,1.069c-2.556,0.825-5.058,1.819-7.648,2.537
			c-4.581,1.269-9.429,1.102-13.986,2.456c-1.035,0.307-2.071,0.679-3.004,1.23c-0.863,0.51-1.607,1.22-2.26,1.975
			c-1.406,1.626-2.471,3.501-3.669,5.277c-1.373,2.036-2.953,3.962-4.478,5.886c-1.629,2.056-3.324,4.066-5.198,5.904
			c-2.539,2.491-5.529,4.474-7.876,7.17c-1.005,1.155-2.043,2.504-2.323,4.047c-0.243,1.339,0.413,2.558,1.608,3.189
			c1.385,0.731,3.061,0.628,4.56,0.407c1.819-0.268,3.589-0.797,5.361-1.274c1.411-0.38,2.935-0.871,4.415-0.784
			c1.322,0.077,2.593,0.563,3.876,0.852c1.201,0.27,2.363,0.331,3.57,0.06c0.969-0.218,1.934-0.576,2.928-0.588
			c-1.569,2.026-3.254,3.972-5.023,5.821c-0.989,1.034-2.074,1.971-3.023,3.043c-1.347,1.523-2.445,3.263-2.976,5.241
			c-0.549,2.043-0.483,4.111-0.28,6.182c-0.445,2.897-0.763,5.836-0.994,8.755c-0.266,3.363-0.382,6.769-1.107,10.075
			c-0.671,3.064-1.887,6.022-2.129,9.172c-0.398,5.184,1.634,10.004,4.798,14.011c3.336,4.225,7.535,7.681,11.18,11.625
			c2.15,2.326,4.153,4.79,5.878,7.45c1.504,2.318,2.923,4.723,4.91,6.671c1.767,1.732,4.131,3.163,6.681,3.109
			c2.309-0.049,4.342-1.226,6.338-2.257c2.58-1.333,5.379-2.419,8.337-2.048c1.501,0.188,2.761,0.773,4.011,1.597
			c0.994,0.655,1.968,1.33,3.084,1.766c2.65,1.035,5.614,0.792,8.389,0.605c2.829-0.19,6.184-0.599,8.779,0.816
			c1.943,1.06,3.233,2.983,5.191,4.023c0.051,0.027,0.102,0.044,0.153,0.069c0.028,0.094,0.052,0.187,0.097,0.284
			c0.308,0.662,0.989,1.171,1.54,1.621c0.506,0.413,1.025,0.812,1.51,1.249c0.394-0.242,0.838-0.401,1.184-0.709
			c0.173-0.154,0.436-0.171,0.606,0c0.489,0.493,0.96,1.004,1.429,1.515c0.167,0.582,0.326,1.166,0.579,1.718
			c-1.125,0.656-2.036,1.552-2.918,2.531c-1.07,1.187-2.016,2.069-3.714,1.788c-1.234-0.204-2.474-0.652-3.735-0.651
			c-1.116,0-2.065,0.483-2.872,1.233c-1.409,1.31-2.423,3.113-3.4,4.749c-1.147,1.922-2.195,3.901-3.282,5.857
			c-1.72,3.094-3.589,5.89-6.007,8.48c-4.064,4.354-9.293,8.528-11.083,14.446c-1.035,3.423-0.247,6.617,0.352,10.042
			c0.775,4.429,1.259,8.892,0.846,13.386c-0.245,2.665-0.516,5.34-0.292,8.017c0.035,0.415,0.083,0.855,0.154,1.301
			c0.001,0.012,0,0.024,0.001,0.036c0.131,1.979,0.601,3.846,1.595,5.571c0.822,1.426,1.931,2.663,3.17,3.739
			c2.631,2.286,5.817,3.831,8.93,5.341c3.112,1.511,6.289,2.978,8.97,5.203c3.371,2.797,6.1,6.476,10.12,8.421
			c2.101,1.016,4.385,1.454,6.69,1.702c2.413,0.259,4.847,0.493,7.273,0.319c2.44-0.176,5.05-0.676,7.472-0.111
			c1.966,0.459,3.618,1.711,5.115,3.011c1.511,1.312,3.017,2.635,4.52,3.956c1.636,1.438,3.178,2.99,4.928,4.295
			c1.05,0.784,2.16,1.384,3.344,1.84c1.681,2.262,3.61,4.473,5.897,6.115c0.777,0.557,1.568,0.985,2.493,1.219
			c0.488,0.124,0.982,0.226,1.478,0.32c0.122-0.764,0.183-1.534,0.141-2.312c-0.052-0.965-0.243-1.917-0.474-2.853
			c-0.176-0.714-0.784-1.229-1.174-1.838c-0.063-0.099-0.113-0.204-0.163-0.309c0.306-0.812,0.445-1.684,0.483-2.573
			c0.116-0.206,0.204-0.414,0.216-0.63c0.02-0.386-0.093-0.814-0.251-1.23c-0.047-0.643-0.116-1.277-0.188-1.884
			c-0.143-1.21-0.347-2.411-0.585-3.605c-0.195-0.978-0.45-2.004-0.267-3.005c0.152-0.834,0.667-1.527,1.192-2.169
			c0.79-0.966,1.622-1.897,2.394-2.879c1.439-1.829,2.457-3.757,2.838-6.072c0.454-2.765,0.77-5.542,2.062-8.076
			c1.307-2.563,3.129-4.825,4.931-7.049c1.724-2.128,3.394-4.211,4.541-6.719c1.056-2.311,1.688-4.789,2.095-7.29
			c0.849-5.218,0.594-10.529,1.293-15.757c0.381-2.846,1.112-5.642,2.232-8.288c1.08-2.55,2.651-4.894,3.477-7.551
			C203.701,185.699,203.964,183.185,203.127,181.101z M167.208,60.785c0.55-1.357,1.405-2.381,2.639-3.157
			c1.108-0.697,2.418-1.192,3.736-1.234c1.222-0.04,2.403,0.408,3.129,1.422c0.97,1.356,0.764,3.215,0.934,4.786
			c0.094,0.862,0.317,1.641,0.724,2.407c0.288,0.54,0.558,1.089,0.805,1.648c0.59,1.338,1.081,2.741,1.223,4.204
			c0.129,1.329-0.116,2.749-1.091,3.728c-1.094,1.098-2.708,1.003-4.141,1.085c-0.777,0.044-1.627,0.124-2.279,0.591
			c-0.507,0.363-0.907,0.891-1.24,1.41c-0.74,1.152-1.233,2.442-1.803,3.681c-0.527,1.145-1.126,2.341-2.085,3.191
			c-0.928,0.822-2.318,1.319-3.56,1.17c-1.107-0.133-1.877-0.936-2.094-2.013c-0.258-1.278,0.142-2.458,0.56-3.648
			c1.329-3.778,3.189-7.318,4.265-11.19c0.084-0.303,0.189-0.606,0.306-0.906C166.729,65.561,166.247,63.157,167.208,60.785z
			 M129.445,57.737c1.344-0.06,2.537,0.325,3.818,0.653c1.434,0.368,2.888,0.663,4.302,1.105c1.224,0.383,2.508,0.862,3.446,1.769
			c0.122,0.118,0.142,0.255,0.11,0.38c1.004,0.184,2.013,0.313,3.027,0.333c1.187,0.023,2.277-0.225,3.305-0.83
			c0.876-0.515,1.622-1.204,2.409-1.84c0.762-0.615,1.57-1.179,2.518-1.467c1.15-0.349,2.379-0.238,3.519,0.09
			c2.499,0.718,5.215,1.937,6.932,3.96c2.853,3.361,1.507,7.751-0.363,11.237c-2.246,4.185-5.389,7.782-7.95,11.762
			c-1.256,1.953-2.156,4.239-4.167,5.567c-1.666,1.101-3.655,1.002-5.547,0.725c-2.71-0.397-5.404-1.052-8.163-0.85
			c-2.671,0.196-4.965,1.331-7.149,2.808c-2.277,1.539-4.48,3.081-7.06,4.085c-0.891,0.347-1.962,0.663-2.907,0.335
			c-0.843-0.292-1.331-1.039-1.597-1.855c-0.422-1.292-0.37-2.696-0.437-4.035c-0.075-1.499,0.164-3.003,0.684-4.41
			c0.963-2.604,2.725-4.776,4.082-7.17c0.063-2.249,0.64-4.567,0.359-6.813c-0.186-1.489-0.893-2.745-1.586-4.045
			c-0.614-1.152-1.121-2.374-0.976-3.707c0.168-1.532,1.042-2.896,2.025-4.043c0.938-1.096,2.102-2.019,3.39-2.67
			C126.705,58.187,128.058,57.799,129.445,57.737z M58.95,48.773c-2.013,0.336-3.803,1.412-5.737,2.007
			c-1.737,0.534-3.601,0.46-5.273-0.288c-1.035-0.463-1.77-1.335-1.56-2.516c0.212-1.193,1.126-2.228,1.935-3.073
			c0.992-1.037,2.104-1.956,3.224-2.85c1.505-1.202,2.86-2.523,4.125-3.978c2.761-3.176,5.131-6.688,8.061-9.713
			c0.48-0.762,1.044-1.459,1.794-1.979c1.03-0.714,2.29-1.071,3.487-1.388c2.289-0.606,4.64-0.999,6.974-1.384
			c2.595-0.429,5.201-0.787,7.813-1.09c5.124-0.594,10.272-0.949,15.411-1.374c4.925-0.407,9.833-1.002,14.607-2.326
			c2.587-0.718,5.095-1.683,7.688-2.386c2.353-0.638,4.772-1.188,7.212-1.338c1.618-0.1,3.943-0.125,5.018,1.343
			c1.334,1.82-0.352,4.525-1.395,6.039c-2.031,2.946-4.894,5.065-8.234,6.313c-3.359,1.256-6.977,1.661-10.529,1.942
			c-3.666,0.289-7.36,0.401-10.993,1.011c-3.572,0.6-7.11,1.786-9.686,4.445c-2.098,2.166-3.298,4.973-4.729,7.582
			c-1.714,3.125-3.91,5.889-6.833,7.971c-3.45,2.457-8.051,3.731-12.097,1.995c-1.847-0.792-3.37-2.126-5-3.27
			C62.645,49.353,60.948,48.44,58.95,48.773z M108.04,135.72c-0.197,0.992-0.769,1.849-1.573,2.453
			c-0.654,0.491-1.491,0.581-2.287,0.513c-3.993-0.34-7.288-3.218-11.336-3.315c-2.41-0.057-4.497,0.963-6.714,1.749
			c-1.822,0.646-3.88,1.2-5.832,0.998c-3.059-0.317-5.13-2.537-6.534-5.109c-1.597-2.927-2.529-6.158-3.883-9.195
			c-0.623-1.397-1.329-2.8-2.296-3.995c-1.269-1.57-3.002-2.499-4.86-3.216c-1.862-0.719-3.85-1.335-5.297-2.784
			c-1.791-1.792-2.259-4.3-2.163-6.747c0.108-2.732,0.851-5.415,0.836-8.153c-0.016-2.986-0.841-5.892-1.18-8.844
			c-0.304-2.649-0.113-5.361,1.176-7.746c1.109-2.053,2.84-3.658,4.262-5.482c0.462-0.594,0.878-1.223,1.229-1.886
			c-0.206-0.009-0.393-0.142-0.367-0.407c0.186-1.937,0.452-3.871,0.872-5.772c0.847-3.831,2.382-8.119,5.833-10.353
			c0.808-0.523,1.755-0.96,2.709-1.122c1.253-0.213,2.529-0.099,3.779,0.073c1.332,0.184,2.649,0.458,3.976,0.665
			c1.171,0.183,2.375,0.397,3.563,0.422c0.728,0.015,1.436-0.079,2.083-0.43c0.683-0.371,1.265-0.906,1.848-1.412
			c1.974-1.713,3.986-3.332,6.425-4.338c1.908-0.787,4.047-1.095,6.017-0.338c2.274,0.874,4.013,2.818,5.276,4.842
			c1.508,2.417,2.346,5.151,3.395,7.779c1.073,2.689,2.586,5.047,4.25,7.401c1.681,2.378,3.371,4.801,4.097,7.664
			c0.729,2.878,0.481,5.88-0.338,8.71c-0.85,2.938-2.272,5.639-3.75,8.3c-1.413,2.543-2.894,5.047-4.278,7.605
			c-1.394,2.577-2.7,5.213-3.7,7.971c-0.903,2.49-1.644,5.153-1.688,7.82c-0.03,1.845,0.5,3.491,1.491,5.036
			c1.117,1.741,2.627,3.194,3.63,5.008C107.638,131.757,108.424,133.782,108.04,135.72z M145.531,249.824
			c-2.266-0.484-4.413-1.384-6.636-2.022c-2.379-0.683-4.754-0.821-7.216-0.878c-2.192-0.05-4.423-0.143-6.495-0.936
			c-2.173-0.832-3.777-2.351-5.39-3.976c-0.782-0.787-1.564-1.576-2.424-2.279c-0.865-0.707-1.824-1.263-2.805-1.79
			c-1.401-0.752-2.858-1.376-4.321-1.995c-1.032-0.437-2.088-0.874-2.98-1.568c-0.831-0.646-1.402-1.507-1.738-2.502
			c-0.507-1.502-0.543-3.165-0.525-4.734c0.028-2.479-0.059-4.897-0.433-7.353c-0.778-5.108-2.248-10.076-3.184-15.154
			c-0.383-2.082-0.653-4.166-0.233-6.266c0.326-1.631,1.084-3.109,2.11-4.409c1.113-1.411,2.484-2.596,3.844-3.761
			c1.637-1.403,3.21-2.859,4.811-4.301c1.687-1.521,3.423-3.009,4.874-4.765c1.404-1.698,2.409-3.608,2.979-5.733
			c0.545-2.032,0.858-4.153,1.771-6.067c0.827-1.735,2.247-2.847,4.074-3.402c1.463-0.444,2.978-0.542,4.502-0.577
			c0.084-0.157,0.248-0.269,0.47-0.213c1.862,0.468,3.585-0.876,4.982-1.929c0.793-0.598,1.572-1.223,2.422-1.74
			c0.924-0.562,1.959-1.001,2.972-1.372c2.286-0.839,4.803-1.125,7.175-0.479c4.111,1.12,6.849,4.343,8.997,7.836
			c1.084,1.763,2.038,3.599,3.041,5.408c1.157,2.086,2.498,4.039,3.495,6.217c0.917,2.002,1.597,4.102,1.835,6.297
			c0.249,2.3-0.038,4.631-0.72,6.836c-1.303,4.211-3.405,8.103-4.891,12.243c-0.71,1.976-1.251,4.019-1.467,6.111
			c-0.257,2.487-0.034,4.933,0.382,7.39c0.862,5.099,2.195,10.213,1.915,15.425c-0.242,4.502-1.735,9.208-4.764,12.627
			C153.342,248.968,149.484,250.669,145.531,249.824z M177.508,250.645c-0.65,1.272-1.568,2.454-2.294,3.712
			c-0.185,0.455-0.401,0.899-0.65,1.322c-0.197,0.489-0.356,0.993-0.433,1.527c-0.297,2.051,0.208,4.41-0.798,6.31
			c-0.48,0.907-1.357,1.459-2.353,1.641c-1.274,0.233-2.869,0.131-3.96-0.634c-1.618-1.134-1.322-3.366-2.259-4.943
			c-0.415-0.176-0.848-0.315-1.272-0.472c-1.05-0.389-2.264-1.134-3.023-2.124c-0.454-0.402-0.764-0.921-0.846-1.607
			c-0.171-1.448,0.518-2.821,1.263-4.017c0.358-0.575,0.756-1.13,1.175-1.668c0.066-0.11,0.124-0.227,0.193-0.335
			c1.175-1.842,2.741-3.544,4.631-4.676c0.054-0.129,0.171-0.223,0.358-0.209c0.045-0.025,0.088-0.054,0.134-0.078
			c1.624-0.859,3.376-1.137,5.076-0.787c1.323,0.005,2.616,0.287,3.68,0.889c1.048,0.593,1.964,1.521,2.163,2.749
			C178.485,248.431,178.039,249.606,177.508,250.645z M194.022,209.34c0.018,0.826-0.044,1.65-0.211,2.471
			c-0.21,1.682-0.552,3.345-1.062,4.96c-1.065,3.372-2.889,6.724-5.521,9.135c-1.662,1.522-4.123,2.244-5.819,3.711
			c-0.345,0.394-0.669,0.802-0.961,1.233c0.035,0.222,0.072,0.445,0.108,0.666c0.077,0.463-0.516,0.695-0.745,0.411
			c-0.005,0.01-0.011,0.019-0.016,0.029c-0.069,0.209-0.129,0.42-0.182,0.634c0.001,2.416,0.105,5.173-1.485,7.081
			c-0.956,1.147-2.412,1.661-3.853,1.853c-1.883,0.251-4.081,0.281-5.844-0.522c-2.923-1.331-2.724-4.752-2.169-7.413
			c0.41-1.968,1.104-3.846,1.169-5.875c0.079-2.438-0.466-4.827-1.08-7.169c-0.595-2.269-1.258-4.528-1.534-6.864
			c-0.26-2.206-0.081-4.445,0.649-6.55c0.365-1.055,0.816-2.073,1.309-3.072c0.587-1.568,1.448-3.024,2.033-4.594
			c0.767-2.057,1.12-4.307,1.596-6.445c0.404-1.813,0.669-3.828,1.599-5.467c0.508-0.896,1.275-1.482,2.272-1.735
			c1.201-0.305,2.466-0.326,3.684-0.548c1.491-0.273,2.959-0.662,4.449-0.944c1.529-0.289,3.137-0.555,4.695-0.368
			c0.582,0.07,1.134,0.184,1.613,0.535c0.51,0.373,0.947,0.837,1.354,1.317c1.012,1.193,1.9,2.524,2.601,3.923
			c0.74,1.477,0.995,3.053,1.033,4.697c0.048,2.091-0.207,4.178-0.134,6.27c0.064,1.817,0.403,3.617,0.472,5.439
			C194.083,207.201,194.074,208.271,194.022,209.34z"/>
		<path style="opacity:0.66;fill:#558C40;" d="M142.581,31.343c0.654,0.764,1.16,1.641,1.714,2.477
			c0.111,0.168,0.227,0.334,0.344,0.499c-0.438-1.118-0.648-2.369-0.891-3.469c-0.351-1.59-0.81-3.884-2.858-3.859
			c-1.639,0.02-3.271,0.997-4.637,1.794c-2.037,1.188-3.926,2.605-5.896,3.896c-1.782,1.167-3.634,2.201-5.644,2.922
			c-1.521,0.545-3.084,1.006-4.533,1.731c-1.146,0.574-2.425,1.394-2.713,2.738c-0.368,1.722,0.936,3.389,2.026,4.565
			c0.694,0.748,1.472,1.432,2.353,1.951c0.712,0.419,1.608,0.829,2.454,0.672c1.522-0.284,2.832-1.366,4.224-1.989
			c1.263-0.565,2.748-0.86,3.811,0.256c1.098,1.153,1.411,2.779,0.63,4.174c-0.655,1.169-2.115,2.186-2.271,3.585
			c-0.177,1.58,1.969,2.272,3.13,2.604c1.371,0.391,2.904,0.604,3.936,1.676c0.622,0.646,1.118,1.401,1.7,2.081
			c0.255,0.298,0.545,0.663,0.903,0.84c0.269,0.133,0.578,0.076,0.857-0.018c1.091-0.368,1.156-1.712,1.08-2.717
			c-0.357,0.432-0.861,0.402-1.344,0.244c0.267-1.91-2.179-2.686-3.457-3.614c-0.338-0.246-0.649-0.528-0.785-0.934
			c-0.097-0.29-0.117-0.598-0.102-0.908c0.149-0.257,0.302-0.513,0.443-0.774c0.503-0.929,1.095-1.957,1.254-3.018
			c0.123-0.82-0.478-1.508-1.008-2.064c-0.538-0.564-1.14-1.067-1.769-1.531c-1.206,0.152-2.325,0.085-3.406-0.594
			c-1.095-0.688-2.235-1.657-2.735-2.883c-0.749-1.835,0.509-3.495,1.833-4.658c1.548-1.359,3.398-2.303,4.907-3.703
			c0.748-0.693,1.475-1.415,2.274-2.049c0.612-0.486,1.374-1.082,2.197-1.104C141.4,30.143,142.097,30.778,142.581,31.343z"/>
		<path style="opacity:0.66;fill:#558C40;" d="M191.289,60.681c0.232-0.53,0.28-1.118,0.249-1.69
			c-0.049-0.891-0.638-1.529-1.198-2.185c-0.565-0.661-1.19-1.287-1.693-1.999c-0.561-0.793-0.973-1.685-1.392-2.558
			c-0.851-1.775-1.722-3.812-3.518-4.827c-1.693-0.957-3.78-1.033-5.673-1.169c-2.039-0.146-3.976-0.345-5.894-1.092
			c-0.59-0.23-1.336-0.649-1.995-0.549c-0.731,0.112-1.496,0.72-2.093,1.112c-0.844,0.554-1.575,1.277-2.447,1.788
			c-0.814,0.478-1.716,0.65-2.652,0.534c-1.791-0.221-3.231-1.214-3.894-2.905c-0.161-0.412-0.28-0.837-0.381-1.266
			c-0.014-0.034-0.033-0.064-0.046-0.098c-0.3-0.815-0.514-1.668-1.343-2.11c-0.73-0.389-1.587-0.218-2.372-0.358
			c-0.805-0.143-1.433-0.666-2.096-1.111c-1.037-0.695-2.455-1.496-3.38-0.249c-0.706,0.952-1.385,1.933-2.029,2.927
			c-0.306,0.472-0.388,0.944-0.278,1.508c0.072,0.367,0.25,0.754,0.408,1.144c0.013-0.026,0.027-0.054,0.04-0.08
			c0.303-0.606,0.713-1.205,0.898-1.858c0.128-0.45,0.183-0.891,0.595-1.181c0.532-0.374,1.304-0.485,1.934-0.409
			c1.576,0.191,3.19,1.309,4.039,2.635c0.718,1.123,0.895,2.589,0.976,3.891c0.061,0.983,0.037,2.061,0.683,2.874
			c0.986,1.242,2.905,1.771,4.382,2.074c1.354,0.277,2.625,0.138,3.711-0.766c1.247-1.037,2.064-2.48,3.377-3.452
			c1.109-0.821,2.398-1.049,3.753-0.992c1.471,0.062,2.929,0.29,4.401,0.362c1.599,0.077,3.208,0.138,4.788,0.412
			c1.155,0.201,2.479,0.526,3.297,1.433c0.81,0.897,1.363,2.075,1.869,3.158c0.577,1.234,1.139,2.538,1.398,3.882
			c0.218,1.129-0.018,2.332-0.954,3.091c-1.03,0.836-2.454,0.849-3.648,1.319c-0.756,0.297-1.402,0.802-1.768,1.54
			c-0.376,0.758-0.235,1.566,0.138,2.295c0.425,0.83,1.008,1.554,1.589,2.281c-0.174-0.986-0.119-2.029,0.489-2.865
			c1.24-1.706,3.742-1.899,5.552-2.658C190.001,62.144,190.887,61.6,191.289,60.681z"/>
		<path style="opacity:0.66;fill:#558C40;" d="M176.99,172.95c-0.986,0.759-1.971,1.487-2.641,2.559
			c-1.56,2.493-0.628,5.456,1.432,7.362c1.534,1.419,3.684,0.411,5.148-0.58c0.479-0.324,0.936-0.682,1.379-1.057
			c-1.139-0.046-2.204-0.455-2.886-1.347c-2.268-2.967,1.089-4.95,2.96-6.624c0.744-0.665,1.408-1.917,1.933-2.777
			c-0.02-0.228-0.054-0.455-0.114-0.681c-0.347-1.294-1.293-1.906-2.449-2.419c-1.228-0.545-2.585-0.941-3.665-1.765
			c-1.173-0.895-2.011-2.13-2.878-3.302c-0.936-1.266-2.021-2.363-3.58-2.802c-1.71-0.482-3.538-0.214-5.288-0.247
			c-0.653-0.012-1.297-0.066-1.916-0.19c-0.313,0.529-0.643,1.046-1.04,1.52c-0.116,0.139-0.373,0.163-0.519,0.067
			c-0.762-0.501-1.569-0.931-2.311-1.464c-0.345-0.248-0.735-0.474-0.776-0.933c-0.023-0.252,0.033-0.497,0.119-0.733
			c0.032-0.088,0.064-0.228,0.125-0.324c-0.005-0.01-0.009-0.02-0.014-0.031c-0.29-0.426-0.471-0.993-0.701-1.457
			c-0.273-0.552-0.548-1.103-0.812-1.658c-0.088-0.186-0.175-0.374-0.261-0.561c-0.042-0.045-0.087-0.088-0.129-0.133
			c0.313,1.882,0.453,3.791,0.419,5.708c-0.027,1.529-0.355,3.141,0.055,4.642c0.25,0.915,0.821,1.795,1.815,1.978
			c1.006,0.186,2.026-0.331,2.828-0.884c1.021-0.704,1.874-1.558,2.715-2.46c0.534-0.572,1.124-1.154,1.946-1.221
			c1.08-0.088,2.112,0.592,2.997,1.112c1.893,1.112,3.939,1.946,5.679,3.309c1.516,1.188,3.098,3.364,2.256,5.388
			C178.458,171.804,177.706,172.398,176.99,172.95z"/>
		<path style="opacity:0.66;fill:#558C40;" d="M152.152,258.255c-1.207-1.173-2.59-2.26-4.164-2.894
			c-1.549-0.624-3.353-0.535-4.987-0.433c-1.775,0.111-3.542,0.369-5.32,0.436c-1.402,0.053-2.907,0.151-4.276-0.229
			c-0.959-0.266-1.71-0.849-2.344-1.6c-0.927-1.098-1.701-2.315-2.664-3.385c-4.801-5.329-11.993-7.783-18.375-10.616
			c-1.556-0.691-3.103-1.407-4.604-2.212c-1.484-0.796-2.885-1.65-4.034-2.904c-2.145-2.341-3.024-5.419-3.399-8.506
			c-0.246-2.029-0.328-4.075-0.567-6.107c-0.233-1.974-0.553-3.936-0.938-5.886c0.099,1.884,0.092,3.773-0.082,5.668
			c-0.245,2.665-0.516,5.34-0.292,8.017c0.035,0.415,0.083,0.855,0.154,1.301c0.001,0.012,0,0.024,0.001,0.036
			c0.131,1.979,0.601,3.846,1.595,5.571c0.822,1.426,1.931,2.663,3.17,3.739c2.631,2.286,5.817,3.831,8.93,5.341
			c3.112,1.511,6.289,2.978,8.97,5.203c3.371,2.797,6.1,6.476,10.12,8.421c2.101,1.016,4.385,1.454,6.69,1.702
			c2.413,0.259,4.847,0.493,7.273,0.319c2.44-0.176,5.05-0.676,7.472-0.111c1.893,0.441,3.492,1.619,4.944,2.865
			C154.399,260.692,153.344,259.414,152.152,258.255z"/>
		<path style="opacity:0.66;fill:#558C40;" d="M198.443,198.544c-0.541,1.413-1.18,2.786-1.701,4.206
			c-0.623,1.699-1.046,3.459-1.336,5.243c-0.569,3.497-0.762,7.067-1.08,10.593c-0.272,3.012-0.605,6.332-2.444,8.853
			c-1.671,2.291-4.278,3.556-6.244,5.544c-0.928,0.938-1.816,1.945-2.164,3.249c-0.3,1.124-0.182,2.314-0.063,3.456
			c0.096,0.918,0.204,1.831,0.253,2.746c0.221-0.675,0.486-1.339,0.817-1.987c1.307-2.563,3.129-4.825,4.931-7.049
			c1.724-2.128,3.394-4.211,4.541-6.719c1.056-2.311,1.688-4.789,2.095-7.29c0.849-5.218,0.594-10.529,1.293-15.757
			c0.231-1.725,0.607-3.426,1.104-5.092C198.444,198.541,198.444,198.542,198.443,198.544z"/>
		<path style="opacity:0.66;fill:#558C40;" d="M203.127,181.101c-0.683-1.702-2.121-2.867-3.829-3.357
			c0.248,0.425,0.428,0.887,0.503,1.387c0.166,1.103-0.16,1.818-0.793,2.679c-0.775,1.053-1.056,2.41-0.919,3.699
			c0.149,1.403,0.714,2.731,1.058,4.091c0.624,2.466,0.489,4.929-0.177,7.319c0.19-0.529,0.382-1.057,0.602-1.575
			c1.08-2.55,2.651-4.894,3.477-7.551C203.701,185.699,203.964,183.185,203.127,181.101z"/>
		<path style="opacity:0.66;fill:#558C40;" d="M124.454,128.851c-1.449,1.153-2.985,2.219-4.318,3.51
			c-0.52,0.504-1.03,1.052-1.357,1.704c-0.429,0.853-0.511,1.988-0.49,2.928c0.017,0.728,0.175,1.486,0.701,2.022
			c0.463,0.472,1.103,0.711,1.724,0.896c1.56,0.465,3.203,0.686,4.598,1.589c1.838,1.191,2.628,3.117,2.795,5.234
			c0.157,1.983-0.169,4.334,1.348,5.89c0.948,0.973,2.389,1.533,3.688,1.842c0.966,0.23,1.994,0.246,2.895-0.218
			c0.11-0.057,0.208-0.131,0.312-0.197c-1.288-0.433-2.323-1.535-2.941-2.706c-1.517-2.877-1.312-6.332-2.459-9.339
			c-0.52-1.365-1.32-2.663-2.664-3.333c-1.407-0.702-3.076-0.931-4.38-1.831c-1.401-0.968-0.822-2.361,0.158-3.4
			c1.21-1.284,2.732-2.253,3.865-3.613c1.048-1.258,1.55-3.01,1.198-4.632c-0.137-0.63-0.428-1.126-0.821-1.493
			C128.23,125.721,126.021,127.604,124.454,128.851z"/>
		<path style="opacity:0.66;fill:#558C40;" d="M175.811,81.041c0.315-0.582,0.61-1.227,0.996-1.766
			c0.372-0.52,0.904-1.175,1.483-1.483c0.059-0.031,0.118-0.043,0.178-0.064c-0.505-0.251-1.04-0.435-1.607-0.43
			c-1.507,0.013-2.456,1.433-3.093,2.622c-0.774,1.445-1.281,3.01-2.001,4.48c-0.251,0.513-0.542,1.007-0.825,1.503
			c-0.167,0.294-0.384,0.609-0.457,0.945c-0.068,0.316,0.031,0.625,0.126,0.925c0.153,0.481,0.303,0.989,0.54,1.435
			c0.317,0.596,0.9,1.013,1.184,1.62c0.349,0.748-0.031,1.568-0.395,2.232c-1.129,2.06-2.623,3.917-4.804,4.921
			c-2.043,0.94-4.535,0.971-6.417-0.382c-0.91-0.655-1.581-1.541-2.281-2.402c-0.682-0.839-1.41-1.64-2.486-1.936
			c-2.634-0.723-5.238,0.746-7.735,1.377c-4.162,1.052-8.517,0.609-12.744,1.161c-2.024,0.264-4.07,0.773-5.799,1.899
			c-0.876,0.57-1.652,1.303-2.269,2.147c-0.781,1.069-1.122,2.326-1.284,3.624c-0.149,1.191-0.176,2.4-0.423,3.578
			c-0.241,1.149-0.769,2.124-1.515,3.025c-0.899,1.085-2.251,1.893-3.591,1.042c-1.223-0.777-1.958-2.24-2.627-3.474
			c-0.779-1.437-1.437-2.865-2.866-3.78c-0.676-0.432-1.451-0.678-2.242-0.433c-0.777,0.241-1.393,0.852-1.902,1.461
			c-1.235,1.477-2.059,3.282-2.997,4.951c-1.156,2.058-2.049,4.411-2.061,6.798c-0.002,0.323,0.016,0.64,0.05,0.952
			c0.345-1.697,1.006-3.361,1.789-4.815c1.267-2.353,2.877-4.498,4.57-6.559c4.499,1.826,3.179,9.565,8.563,10.127
			c2.446,0.255,4.332-1.129,4.993-3.461c0.602-2.126,0.399-4.358,0.393-6.537c-0.008-2.543,0.77-4.926,2.961-6.382
			c2.096-1.393,4.751-1.813,7.194-2.151c2.778-0.384,5.53-0.692,8.28-1.259c1.688-0.348,3.418-0.703,5.149-0.522
			c1.927,0.201,3.528,1.176,5.067,2.284c2.55,1.836,5.227,4.102,8.58,3.745c1.837-0.196,3.432-1.058,5.034-1.913
			c1.419-0.757,2.867-1.457,4.263-2.259c1.399-0.804,2.782-1.713,3.898-2.891c0.552-0.583,0.977-1.215,1.297-1.899
			c-0.009-0.171-0.021-0.342-0.02-0.516c0.009-1.153,0.211-2.293,0.241-3.445c0.026-0.957,0.001-2.084-0.886-2.646
			c-0.738-0.467-1.641-0.691-2.251-1.35c-0.538-0.58-0.544-1.133-0.303-1.847C175.025,82.511,175.418,81.767,175.811,81.041z"/>
		<path style="opacity:0.66;fill:#558C40;" d="M195.085,16.643c-1.62,0.87-3.534,1.251-5.34,1.491
			c-0.789,0.105-1.591,0.185-2.389,0.156c-1.052-0.038-2.028-0.478-3.062-0.645c-1.364-0.221-2.692,0.177-4.047,0.276
			c-1.342,0.098-2.505-0.313-3.735-0.792c-3.255-1.267-6.497-2.569-10.002-2.939c-3.272-0.346-6.582,0.125-9.5,1.694
			c-1.411,0.759-2.561,1.793-3.829,2.749c-0.951,0.717-1.984,1.318-3.014,1.913c-0.944,0.546-1.914,1.075-2.782,1.739
			c-0.589,0.451-1.29,1.059-1.392,1.844c-0.122,0.939,0.653,1.788,1.271,2.385c1.155,1.115,2.448,2.025,4.098,2.087
			c0.925,0.035,1.839-0.107,2.748-0.279c-0.752-0.643-1.307-1.499-2.408-1.636c-0.371-0.046-0.645-0.592-0.216-0.799
			c1.852-0.892,3.327-2.319,4.951-3.546c0.741-0.56,1.522-1.067,2.384-1.42c0.943-0.387,1.975-0.543,2.986-0.631
			c2.034-0.175,4.081,0.051,6.094,0.345c2.179,0.319,4.32-0.209,6.493-0.295c3.157-0.125,5.296,2.974,7.705,4.517
			c1.378,0.883,3.001,1.351,4.613,0.86c1.396-0.426,2.514-1.459,3.815-2.089c0.695-0.337,1.395-0.581,2.176-0.577
			c0.793,0.004,1.567,0.221,2.314,0.465c1.499,0.489,2.939,1.001,4.389,0.219c-0.073-0.954,0.011-2.179-0.745-2.794
			c-0.347-0.282-0.774-0.431-1.213-0.555c0.562-0.17,1.116-0.373,1.653-0.646c0.29-0.147,0.612-0.548,0.284-0.829
			c-1.178-1.01-2.459-1.857-3.807-2.588C195.424,16.44,195.26,16.549,195.085,16.643z"/>
	</g>
</g>
</svg>
