<?xml version="1.0" encoding="utf-8"?>
<!-- Generator: Adobe Illustrator 27.5.0, SVG Export Plug-In . SVG Version: 6.00 Build 0)  -->
<svg version="1.1" id="Layer_1" xmlns="http://www.w3.org/2000/svg" xmlns:xlink="http://www.w3.org/1999/xlink" x="0px" y="0px"
	 viewBox="0 0 419.02 420.31" style="enable-background:new 0 0 419.02 420.31;" xml:space="preserve">
<symbol  id="Nuevo_s_x2019_mbolo_22" viewBox="-192.501 -78.06 385 156.119">
	<polygon style="fill:#EC008C;" points="192.499,26.94 -192.501,67.405 -192.501,78.06 192.499,37.595 	"/>
	<polygon style="fill:#3EC7F4;" points="192.499,9.44 -192.501,49.905 -192.501,60.56 192.499,20.095 	"/>
	<polygon style="fill:#FBB040;" points="192.499,-8.06 -192.501,32.405 -192.501,43.06 192.499,2.595 	"/>
	<polygon style="fill:#FFF200;" points="192.499,-25.56 -192.501,14.905 -192.501,25.56 192.499,-14.905 	"/>
	<polygon style="fill:#ED1C24;" points="192.499,-43.06 -192.501,-2.595 -192.501,8.06 192.499,-32.405 	"/>
	<polygon style="fill:#D7DF23;" points="192.499,-60.56 -192.501,-20.095 -192.501,-9.44 192.499,-49.905 	"/>
	<polygon style="fill:#92278F;" points="192.499,-78.06 -192.501,-37.595 -192.501,-26.94 192.499,-67.405 	"/>
</symbol>
<rect y="0" style="fill:#F04B23;" width="419.021" height="420.31"/>
<g>
	<g>
		<path style="fill:#181919;" d="M327.74,98.44c-23.512-27.293-59.475-42.948-98.668-42.948c-5.266,0-10.652,0.278-16.005,0.823
			c-48.04,4.875-92.349,27.98-118.532,61.806c-17.959,23.203-25.787,49.446-22.037,73.881
			c6.384,42.136,39.925,80.603,88.342,102.001c-7.074,13.065-16.313,23.316-27.541,30.534l-17.76,11.419l20.816,3.508
			c0.342,0.056,3.465,0.556,8.465,0.556c14.859,0,42.863-4.185,67.463-31.444c5.146,0.642,10.355,0.967,15.49,0.968
			c0.002,0,0,0,0.002,0c64.178,0,116.166-48.35,126.416-117.558C359.36,157.46,349.967,124.236,327.74,98.44z"/>
	</g>
</g>
<g>
	<path style="opacity:0.01;fill:#AE3514;" d="M329.022,365.048c0,5.728-54.277,10.373-121.242,10.373
		c-66.958,0-121.226-4.645-121.226-10.373c0-5.737,54.268-10.381,121.226-10.381C274.744,354.667,329.022,359.31,329.022,365.048z"
		/>
	<path style="opacity:0.02;fill:#AE3514;" d="M324.122,365.048c0,5.494-52.087,9.955-116.343,9.955
		c-64.249,0-116.33-4.461-116.33-9.955c0-5.504,52.081-9.965,116.33-9.965C272.035,355.082,324.122,359.543,324.122,365.048z"/>
	<path style="opacity:0.03;fill:#AE3514;" d="M319.223,365.048c0,5.266-49.889,9.536-111.443,9.536
		c-61.54,0-111.437-4.271-111.437-9.536c0-5.274,49.897-9.547,111.437-9.547C269.334,355.501,319.223,359.774,319.223,365.048z"/>
	<path style="opacity:0.03;fill:#AE3514;" d="M315.723,365.048c0,5.102-48.318,9.234-107.943,9.234
		c-59.607,0-107.941-4.133-107.941-9.234c0-5.108,48.334-9.242,107.941-9.242C267.404,355.806,315.723,359.94,315.723,365.048z"/>
	<path style="opacity:0.03;fill:#AE3514;" d="M310.488,365.048c0,4.854-45.979,8.788-102.709,8.788
		c-56.723,0-102.707-3.934-102.707-8.788c0-4.863,45.984-8.797,102.707-8.797C264.51,356.251,310.488,360.185,310.488,365.048z"/>
	<path style="opacity:0.03;fill:#AE3514;" d="M307.016,365.048c0,4.691-44.432,8.489-99.236,8.489
		c-54.797,0-99.223-3.799-99.223-8.489c0-4.695,44.426-8.497,99.223-8.497C262.584,356.551,307.016,360.353,307.016,365.048z"/>
	<path style="opacity:0.03;fill:#AE3514;" d="M301.772,365.268c0,4.568-43.253,8.269-96.609,8.269
		c-53.351,0-96.606-3.7-96.606-8.269c0-4.571,43.256-8.268,96.606-8.268C258.52,357,301.772,360.698,301.772,365.268z"/>
	<path style="opacity:0.03;fill:#AE3514;" d="M294.801,365.268c0,4.238-40.131,7.674-89.638,7.674
		c-49.503,0-89.629-3.436-89.629-7.674c0-4.237,40.126-7.674,89.629-7.674C254.67,357.594,294.801,361.032,294.801,365.268z"/>
	<path style="opacity:0.03;fill:#AE3514;" d="M289.557,365.268c0,3.995-37.779,7.223-84.394,7.223
		c-46.605,0-84.389-3.228-84.389-7.223c0-3.993,37.784-7.228,84.389-7.228C251.777,358.04,289.557,361.275,289.557,365.268z"/>
	<path style="opacity:0.03;fill:#AE3514;" d="M286.061,365.268c0,3.825-36.22,6.925-80.898,6.925s-80.897-3.1-80.897-6.925
		c0-3.83,36.219-6.925,80.897-6.925S286.061,361.439,286.061,365.268z"/>
	<path style="opacity:0.03;fill:#AE3514;" d="M282.555,365.268c0,3.66-34.65,6.629-77.392,6.629
		c-42.734,0-77.384-2.969-77.384-6.629c0-3.662,34.649-6.626,77.384-6.626C247.904,358.642,282.555,361.606,282.555,365.268z"/>
	<path style="opacity:0.03;fill:#AE3514;" d="M278.777,365.268c0,3.483-32.956,6.3-73.614,6.3c-40.649,0-73.607-2.817-73.607-6.3
		c0-3.481,32.958-6.3,73.607-6.3C245.821,358.969,278.777,361.788,278.777,365.268z"/>
	<path style="opacity:0.03;fill:#AE3514;" d="M271.779,365.268c0,3.154-29.821,5.702-66.616,5.702
		c-36.792,0-66.61-2.548-66.61-5.702c0-3.151,29.818-5.703,66.61-5.703C241.958,359.566,271.779,362.117,271.779,365.268z"/>
	<path style="opacity:0.03;fill:#AE3514;" d="M280.863,365.048c0,3.454-32.717,6.253-73.084,6.253
		c-40.356,0-73.073-2.799-73.073-6.253c0-3.456,32.717-6.262,73.073-6.262C248.146,358.786,280.863,361.591,280.863,365.048z"/>
	<path style="opacity:0.03;fill:#AE3514;" d="M278.565,365.048c0,3.347-31.683,6.055-70.785,6.055
		c-39.091,0-70.777-2.708-70.777-6.055c0-3.352,31.687-6.063,70.777-6.063C246.882,358.985,278.565,361.696,278.565,365.048z"/>
	<path style="opacity:0.03;fill:#AE3514;" d="M275.138,365.048c0,3.179-30.151,5.76-67.358,5.76c-37.188,0-67.339-2.582-67.339-5.76
		c0-3.19,30.151-5.772,67.339-5.772C244.986,359.276,275.138,361.857,275.138,365.048z"/>
	<path style="opacity:0.03;fill:#AE3514;" d="M272.85,365.048c0,3.075-29.133,5.566-65.07,5.566c-35.932,0-65.06-2.49-65.06-5.566
		c0-3.08,29.128-5.574,65.06-5.574C243.717,359.474,272.85,361.968,272.85,365.048z"/>
	<path style="opacity:0.03;fill:#AE3514;" d="M269.417,365.193c0,2.993-28.358,5.42-63.351,5.42c-34.988,0-63.347-2.428-63.347-5.42
		c0-2.998,28.358-5.426,63.347-5.426C241.059,359.767,269.417,362.195,269.417,365.193z"/>
	<path style="opacity:0.03;fill:#AE3514;" d="M264.844,365.193c0,2.778-26.318,5.03-58.777,5.03c-32.463,0-58.77-2.251-58.77-5.03
		c0-2.781,26.307-5.035,58.77-5.035C238.525,360.158,264.844,362.412,264.844,365.193z"/>
	<path style="opacity:0.03;fill:#AE3514;" d="M261.406,365.193c0,2.618-24.78,4.735-55.34,4.735
		c-30.557,0-55.336-2.117-55.336-4.735c0-2.621,24.779-4.739,55.336-4.739C236.626,360.454,261.406,362.572,261.406,365.193z"/>
	<path style="opacity:0.03;fill:#AE3514;" d="M259.112,365.193c0,2.507-23.751,4.539-53.046,4.539
		c-29.291,0-53.043-2.031-53.043-4.539c0-2.508,23.752-4.542,53.043-4.542C235.361,360.651,259.112,362.685,259.112,365.193z"/>
	<path style="opacity:0.03;fill:#AE3514;" d="M256.817,365.193c0,2.4-22.72,4.342-50.751,4.342c-28.026,0-50.752-1.942-50.752-4.342
		c0-2.404,22.725-4.346,50.752-4.346C234.098,360.847,256.817,362.789,256.817,365.193z"/>
	<path style="opacity:0.03;fill:#AE3514;" d="M254.334,365.193c0,2.282-21.604,4.13-48.268,4.13c-26.658,0-48.273-1.848-48.273-4.13
		c0-2.286,21.615-4.135,48.273-4.135C232.73,361.058,254.334,362.907,254.334,365.193z"/>
	<path style="opacity:0.03;fill:#AE3514;" d="M249.748,365.193c0,2.064-19.556,3.735-43.682,3.735
		c-24.124,0-43.673-1.671-43.673-3.735c0-2.071,19.549-3.741,43.673-3.741C230.192,361.452,249.748,363.122,249.748,365.193z"/>
	<path style="opacity:0.03;fill:#AE3514;" d="M257.389,365.048c0,2.342-22.201,4.246-49.609,4.246
		c-27.395,0-49.609-1.904-49.609-4.246c0-2.35,22.215-4.252,49.609-4.252C235.188,360.796,257.389,362.698,257.389,365.048z"/>
	<path style="opacity:0.03;fill:#AE3514;" d="M255.833,365.048c0,2.27-21.504,4.111-48.054,4.111
		c-26.528,0-48.047-1.841-48.047-4.111c0-2.278,21.519-4.118,48.047-4.118C234.329,360.93,255.833,362.77,255.833,365.048z"/>
	<path style="opacity:0.03;fill:#AE3514;" d="M253.506,365.048c0,2.156-20.476,3.911-45.727,3.911
		c-25.244,0-45.711-1.754-45.711-3.911c0-2.165,20.467-3.918,45.711-3.918C233.03,361.13,253.506,362.883,253.506,365.048z"/>
	<path style="opacity:0.03;fill:#AE3514;" d="M251.965,365.048c0,2.083-19.783,3.78-44.186,3.78c-24.393,0-44.17-1.698-44.17-3.78
		c0-2.093,19.777-3.787,44.17-3.787C232.182,361.261,251.965,362.955,251.965,365.048z"/>
	<path style="opacity:0.03;fill:#AE3514;" d="M249.625,365.147c0,2.03-19.256,3.682-43.003,3.682
		c-23.755,0-43.013-1.651-43.013-3.682c0-2.036,19.258-3.686,43.013-3.686C230.369,361.461,249.625,363.11,249.625,365.147z"/>
	<path style="opacity:0.03;fill:#AE3514;" d="M246.52,365.147c0,1.888-17.861,3.412-39.897,3.412
		c-22.035,0-39.907-1.524-39.907-3.412c0-1.891,17.872-3.42,39.907-3.42C228.658,361.727,246.52,363.256,246.52,365.147z"/>
	<path style="opacity:0.03;fill:#AE3514;" d="M244.186,365.147c0,1.775-16.818,3.212-37.563,3.212
		c-20.747,0-37.577-1.436-37.577-3.212c0-1.779,16.83-3.221,37.577-3.221C227.367,361.926,244.186,363.367,244.186,365.147z"/>
	<path style="opacity:0.03;fill:#AE3514;" d="M242.628,365.147c0,1.7-16.122,3.08-36.006,3.08c-19.894,0-36.012-1.38-36.012-3.08
		c0-1.71,16.118-3.086,36.012-3.086C226.506,362.06,242.628,363.437,242.628,365.147z"/>
	<path style="opacity:0.03;fill:#AE3514;" d="M241.066,365.147c0,1.627-15.423,2.946-34.444,2.946
		c-19.029,0-34.452-1.319-34.452-2.946c0-1.634,15.423-2.951,34.452-2.951C225.644,362.195,241.066,363.513,241.066,365.147z"/>
	<path style="opacity:0.03;fill:#AE3514;" d="M239.395,365.147c0,1.547-14.683,2.804-32.772,2.804
		c-18.097,0-32.769-1.257-32.769-2.804c0-1.556,14.672-2.808,32.769-2.808C224.712,362.339,239.395,363.591,239.395,365.147z"/>
	<path style="opacity:0.03;fill:#AE3514;" d="M236.275,365.147c0,1.4-13.283,2.536-29.653,2.536
		c-16.379,0-29.655-1.135-29.655-2.536c0-1.405,13.276-2.54,29.655-2.54C222.992,362.607,236.275,363.741,236.275,365.147z"/>
	<path style="opacity:0.03;fill:#AE3514;" d="M240.313,365.048c0,1.535-14.561,2.782-32.533,2.782
		c-17.963,0-32.529-1.248-32.529-2.782c0-1.542,14.566-2.792,32.529-2.792C225.752,362.256,240.313,363.506,240.313,365.048z"/>
	<path style="opacity:0.03;fill:#AE3514;" d="M239.303,365.048c0,1.486-14.114,2.695-31.523,2.695
		c-17.398,0-31.504-1.208-31.504-2.695c0-1.497,14.105-2.704,31.504-2.704C225.189,362.344,239.303,363.55,239.303,365.048z"/>
	<path style="opacity:0.03;fill:#AE3514;" d="M237.76,365.048c0,1.415-13.418,2.565-29.98,2.565
		c-16.549,0-29.973-1.149-29.973-2.565c0-1.422,13.424-2.57,29.973-2.57C224.342,362.478,237.76,363.625,237.76,365.048z"/>
	<path style="opacity:0.03;fill:#AE3514;" d="M236.744,365.048c0,1.369-12.965,2.476-28.965,2.476
		c-15.989,0-28.957-1.107-28.957-2.476c0-1.376,12.968-2.485,28.957-2.485C223.779,362.563,236.744,363.672,236.744,365.048z"/>
	<path style="opacity:0.03;fill:#AE3514;" d="M235.225,365.11c0,1.332-12.629,2.414-28.199,2.414
		c-15.576,0-28.203-1.082-28.203-2.414c0-1.335,12.627-2.418,28.203-2.418C222.596,362.691,235.225,363.774,235.225,365.11z"/>
	<path style="opacity:0.03;fill:#AE3514;" d="M233.184,365.11c0,1.237-11.712,2.237-26.158,2.237c-14.451,0-26.168-1-26.168-2.237
		c0-1.24,11.717-2.242,26.168-2.242C221.472,362.868,233.184,363.87,233.184,365.11z"/>
	<path style="opacity:0.03;fill:#AE3514;" d="M231.659,365.11c0,1.162-11.034,2.108-24.634,2.108
		c-13.611,0-24.641-0.946-24.641-2.108c0-1.168,11.029-2.109,24.641-2.109C220.625,363.001,231.659,363.941,231.659,365.11z"/>
	<path style="opacity:0.03;fill:#AE3514;" d="M230.639,365.11c0,1.118-10.568,2.019-23.613,2.019
		c-13.044,0-23.621-0.901-23.621-2.019c0-1.118,10.577-2.024,23.621-2.024C220.07,363.086,230.639,363.992,230.639,365.11z"/>
	<path style="opacity:0.03;fill:#AE3514;" d="M229.616,365.11c0,1.069-10.118,1.933-22.591,1.933
		c-12.479,0-22.599-0.864-22.599-1.933c0-1.068,10.12-1.933,22.599-1.933C219.498,363.177,229.616,364.042,229.616,365.11z"/>
	<path style="opacity:0.03;fill:#AE3514;" d="M228.508,365.11c0,1.019-9.624,1.838-21.482,1.838
		c-11.867,0-21.494-0.819-21.494-1.838c0-1.02,9.627-1.841,21.494-1.841C218.884,363.269,228.508,364.09,228.508,365.11z"/>
	<path style="opacity:0.03;fill:#AE3514;" d="M226.467,365.11c0,0.919-8.706,1.664-19.441,1.664
		c-10.742,0-19.453-0.744-19.453-1.664c0-0.922,8.711-1.663,19.453-1.663C217.761,363.447,226.467,364.188,226.467,365.11z"/>
</g>
<path style="fill:#F1C318;" d="M210.092,55.882c-83.129,8.435-141.887,70.493-133.316,126.335
	c6.648,43.876,44.621,80.814,91.424,99.019c-6.555,14.745-17.156,30.603-34.285,41.613c0,0,39.543,6.665,71.34-31.578
	c1.25,0.198,2.496,0.406,3.746,0.577c63.695,8.223,122.502-36.62,133.313-109.63C353.197,109.496,293.467,47.38,210.092,55.882z"/>
<path style="fill:#52C3C5;" d="M101.246,201.267C92.68,145.424,151.432,83.367,234.561,74.933
	c31.572-3.22,59.744,3.689,81.984,17.462c-23.71-28.289-62.543-45.151-108.605-40.454c-83.129,8.435-141.883,70.492-133.316,126.336
	c4.824,31.821,26.133,59.988,55.328,80.012C114.838,241.739,104.436,222.305,101.246,201.267z"/>
<path style="fill:#FFFFFF;" d="M323.941,88.943c-23.512-27.295-59.475-42.949-98.67-42.949c-5.264,0-10.65,0.276-16.004,0.824
	C161.23,51.69,116.92,74.795,90.735,108.622c-17.96,23.205-25.786,49.448-22.036,73.881c6.385,42.136,39.926,80.606,88.342,102.004
	c-7.074,13.064-16.313,23.314-27.542,30.534l-17.759,11.418l20.816,3.506c0.341,0.058,3.465,0.558,8.465,0.558
	c14.857,0,42.863-4.185,67.463-31.444c5.146,0.642,10.354,0.966,15.49,0.966c0.002,0,0,0,0.002,0
	c64.178,0,116.166-48.348,126.416-117.557C355.56,147.962,346.168,114.739,323.941,88.943z M334.234,180.082
	c-9.035,61.016-54.375,103.628-110.26,103.628c-4.615,0-9.301-0.304-13.86-0.892c-0.943-0.13-1.886-0.282-2.827-0.433l-5.338-0.851
	l-2.977,3.574c-13.756,16.549-28.914,23.89-41.283,26.987c7.123-8.076,13.133-17.594,17.975-28.48l3.48-7.826l-7.982-3.105
	c-47.374-18.427-80.444-53.92-86.313-92.645c-3.064-19.978,3.613-41.79,18.805-61.418C127.15,88.268,167.246,67.5,210.918,63.069
	c4.813-0.49,9.643-0.738,14.354-0.738c34.943,0,65.59,13.236,86.295,37.274C330.639,121.743,338.69,150.32,334.234,180.082z"/>
</svg>
