<svg version="1.1" xmlns="http://www.w3.org/2000/svg" xmlns:xlink="http://www.w3.org/1999/xlink">
    <title>Homepage Icons</title>
    <desc>Created with Sketch.</desc>
    <style>
        g {
            display: none;
        }

        g:target {
            display: inline;
        }
    </style>
    <g id="angle-left" width="8" height="14" transform="translate(6, 6)" viewBox="0 0 8 14" fill="none"
        xmlns="http://www.w3.org/2000/svg">
        <path d="M7 1 1 7l6 6" stroke="#fff" stroke-width="2" stroke-linecap="round" stroke-linejoin="round" />
    </g>
    <g id="angle-right" width="8" height="14" transform="translate(9, 6)" viewBox="0 0 8 14" fill="none"
        xmlns="http://www.w3.org/2000/svg">
        <path d="m1 1 6 6-6 6" stroke="#fff" stroke-width="2" stroke-linecap="round" stroke-linejoin="round" />
    </g>
    <g id="green-check-circle" width="14" height="14" viewBox="0 0 14 14" fill="none"
        xmlns="http://www.w3.org/2000/svg">
        <rect width="14" height="14" rx="7" fill="#2CCD59" />
        <path d="M4 7.05697L5.78182 8.83879L9.2858 6" stroke="white" stroke-width="1.10526" stroke-linecap="round"
            stroke-linejoin="round" />
    </g>
    <g id="success-icon" width="16" height="16" viewBox="0 0 16 16" fill="none" xmlns="http://www.w3.org/2000/svg">
        <rect width="16" height="16" rx="8" fill="#2CCD59" />
        <path d="M4 7.86165L6.69676 11L12 6" stroke="white" stroke-width="1.10526" stroke-linecap="round"
            stroke-linejoin="round" />
    </g>

    <g width="33" height="32" viewBox="0 0 33 32" fill="none" xmlns="http://www.w3.org/2000/svg" id="right-black">
<path d="M16.5004 28C23.1278 28 28.5004 22.6275 28.5004 16C28.5004 9.37263 23.1278 4.00004 16.5004 4.00004C9.87301 4.00004 4.50043 9.37263 4.50043 16C4.50043 22.6275 9.87301 28 16.5004 28Z" fill="black" stroke="black" stroke-width="1.5" stroke-miterlimit="10"/>
<path d="M18.4138 11.2575L22.6565 15.5002L18.4138 19.7428" stroke="white" stroke-width="1.5" stroke-linecap="round" stroke-linejoin="round"/>
<path d="M11.3427 15.5002H21.2422" stroke="white" stroke-width="1.5" stroke-linecap="round" stroke-linejoin="round"/>
</g>


    <g id="trophy" width="67" height="93" transform="translate(20, 0)" fill="none" xmlns="http://www.w3.org/2000/svg">
        <path
            d="M17.178 74.995c-.565-.145-.977-.44-.87-1.095.126-.797.817-.766 1.378-.82 2.173-.187 4.36.169 6.396-1.267 2.76-1.942 4.94-4.252 6.2-7.4.207-.513.73-1.8-.274-2.038-4.918-1.869-7.82-5.837-10.248-9.448a25.82 25.82 0 0 1-1.146-2.451c-.023-.054-.344.383-.382.34-2.454 3.215-5.147 4.18-8.08 2.896a4.485 4.485 0 0 1-2.332-2.28 4.505 4.505 0 0 1-.176-3.262c.691-2.355 2.543-3.482 4.995-2.953.885.188 1.909.433 1.848 1.647-.062 1.379-1.146 1.214-2.047 1.149-1.18-.1-2.207.092-2.25 1.501-.041 1.41.852 2.095 2.258 2.134 1.618.042 3.092-.383 3.791-1.915a3.894 3.894 0 0 0-.672-4.401c-2.29-2.605-5.132-4.466-7.927-6.423C3.581 36.067.958 32.187.114 27.247c-.966-5.623 3.36-10.835 9.038-11.241 2.933-.211 5.797-.054 8.336 1.715.19.136.42.205.653.196 7.255-.364 14.51.145 21.783.134 3.537-.039 7.07.27 10.546.923.642.135 1.31.014 1.864-.337 2.29-1.33 4.81-1.375 7.255-.939 5.807 1.03 8.728 6.34 6.777 12.111a13.975 13.975 0 0 1-5.231 6.974c-2.764 1.996-5.525 4.007-8.16 6.17-2.707 2.226-4.418 5.04-3.925 8.74.225 1.701.806 3.23 2.902 3.402 1.879.149 4.456-1.36 4.964-2.934a1.445 1.445 0 0 0-.714-1.85c-1.073-.567-2.211-.544-3.055.364-.561.597-.852 1.73-1.91.992-1.225-.862-.22-1.77.28-2.528 1.084-1.65 3.482-2.13 5.22-1.126 2.206 1.272 3.1 3.447 2.237 5.4-1.478 3.36-4.86 5.19-8.263 4.539-2.787-.529-3.818-2.681-4.712-5.263a112.433 112.433 0 0 1-3.268 4.424c-1.276 1.662-4.097 3.535-5.094 4.022-.53.256-1.91.907-2.016 1.727-.054.956.015 1.915.206 2.853.577 2.107 1.417 4.182 3.055 5.776 1.264 1.218 2.55 2.585 4.23 2.654 3.636.142 5.266-.069 6.873.237 1.42.265 2.188.989 2.25 2.505a52.47 52.47 0 0 1-.764 10.8c-.145.882-.5 1.487-1.486 1.487-.702-.72-.79-1.59-.763-2.555.118-2.754.137-5.515.26-8.269.045-1.053-.203-1.532-1.406-1.532-1.695 0-3.39.046-5.082-.046-8.568-.482-17.19-1.16-25.816-1.777Zm33.033-32.819c.069-.088 6.01-4.47 9.164-6.997 1.397-1.119 3.88-4.053 4.555-5.7 2.318-5.633-1.886-10.298-7.816-9.912-2.875.184-3.746 1.123-3.704 3.953a89.91 89.91 0 0 1-.359 9.613l-1.84 9.043Zm-32.57-10.21a43.407 43.407 0 0 0 1.573 13.489c1.306 4.84 3.26 9.318 7.159 12.639 2.887 2.466 6.147 3.125 9.687 1.493 4.334-2 7.11-5.553 9.095-9.717 3.769-7.9 5.25-16.3 5.086-25.032-.034-1.743-.256-1.873-1.909-1.119-9.756 4.432-19.363 4.638-28.5-1.693-1.489-1.03-1.703-.103-1.794.939a70.276 70.276 0 0 0-.394 9h-.003Zm-1.597 10.513a11.372 11.372 0 0 0-.076-1.15 50.25 50.25 0 0 1 .565-19.513c.382-1.64.038-2.497-1.313-3.14-3.01-1.437-6.717-1.66-9.275.214a8.669 8.669 0 0 0-2.998 3.953 8.696 8.696 0 0 0-.343 4.955c.851 3.486 3.085 6.37 5.67 8.752 2.257 2.076 5.239 3.73 7.77 5.929Zm3.819-23.06c7.388 6.403 21.734 6.391 28.859 1.34-4.731-.62-9.45-.571-14.151-.713-4.758-.145-9.527-.298-14.697-.632l-.011.004Zm18.71 54.328c-2.406-2.915-4.155-5.63-4.43-9.054-.046-.56-.435.766-.714 0-.382-1.069-1.355-.92-1.527-.161a12.927 12.927 0 0 1-3.727 6.346c-.718.705-1.47 1.371-2.531 2.36 4.578.133 8.568.018 12.944.505l-.016.004Z"
            fill="#100E12" />
        <path
            d="M17.179 74.995c6.922.494 13.845 1.03 20.771 1.47 3.402.215 6.812.315 10.218.353 1.18 0 1.424.475 1.379 1.532-.123 2.754-.142 5.515-.26 8.27-.042.964.046 1.834.764 2.554-.046.486-.088.973-.13 1.459-.848 0-1.7.077-2.543.027-9.397-.548-18.798-1.027-28.221-.766-2.837.073-2.849 0-2.673-2.88.038-.716.198-1.429.217-2.145.061-2.853.6-5.71 0-8.56l.478-1.314Zm12.096 3.29h-2.867a.998.998 0 0 0-1.085.927c-.072.67.443.927.943 1.065.447.105.906.14 1.363.107 3.612-.169 7.194.36 10.799.406.912 0 3.188.513 2.749 1.574-.382.912-.516 2.493-2.807 2.42-3.799-.118-7.606-.153-11.401 0-2.035.096-3.055-.283-2.707-2.57.107-.67-.226-1.409-.352-2.117-.076-.414-.275-.766-.71-.808-.435-.043-.68.463-.73.8-.198 1.371-.026 2.739.058 4.117.11 1.873 1.058 2.425 2.768 2.463 4.78.107 9.57-.203 14.342.291 1.252.126 2.207-.383 2.367-1.773.16-1.39.245-2.746.382-4.117.134-1.276-.508-1.778-1.691-1.873-3.65-.257-7.3-.571-11.42-.912Z"
            fill="#FAC704" />
        <path
            d="M16.674 76.282c.6 2.85.062 5.707 0 8.56-.019.716-.179 1.429-.217 2.145-.16 2.88-.15 2.953 2.673 2.88 9.423-.245 18.824.234 28.22.766.845.05 1.696 0 2.544-.027.683.238 1.493.418 1.248 1.413-.244.996-1.145.992-1.909.954-7.812-.413-13.043-.383-19.565-.915-4.433-.353-8.9-.226-13.337-.49-1.176-.07-1.795-.33-1.722-1.686.214-4.128.32-8.26.5-12.39.038-.927.31-1.742 1.565-1.21Z"
            fill="#100E12" />
        <path
            d="M52.898 10.736c-1.34-.795-2.267-1.722-2.566-3.2-.272-1.34-.089-2.524 1.122-3.195 2.3-1.024 3.584 2.168 3.652 2.999.077.52.084 1.046.021 1.567a5.878 5.878 0 0 0 1.587-1.122c.793-.692 1.184-1.639 1.654-2.541.296-.594.619-1.393 1.409-1.075.888.36.51 1.244.26 1.856-.846 2.099-2.071 3.892-4.413 4.5a3.484 3.484 0 0 0-.763.232c-.054.045-.47.704-.725.986a5.482 5.482 0 0 1-2.265 1.505c-.376.13-.837.193-1.062-.297-.225-.49.014-.763.396-1.018.542-.35 1.066-.745 1.693-1.197Zm.823-2.122c.332-1.17-.272-1.898-1.184-2.459-.272-.169-.512 0-.512.297-.009 1.054.941 2.108 1.696 2.162Z"
            fill="#fff" />
        <path
            d="M26.419 4.83a61.273 61.273 0 0 1-.932 8.196c-.126.716-.382 1.49-1.31 1.417-.847-.065-.882-.823-.874-1.494.027-2.424.107-4.937.313-7.388.084-.996.069-1.991.218-2.983.137-.931.42-2.47 1.588-2.574.056-.004.112-.004.168 0 1.146.061.848 1.815.855 2.57.008.754 0 1.505-.026 2.256ZM29.565 13.934a.86.86 0 0 1-.867-.383 1.293 1.293 0 0 1-.05-1.15 12.522 12.522 0 0 1 2.173-4.09c.317-.383.783-.69 1.375-.348a1.044 1.044 0 0 1 .534 1.317c-.29.884-.69 1.729-1.19 2.513a8.942 8.942 0 0 1-1.326 1.807c-.178.174-.404.29-.649.334ZM17.316 9.617c.115.004.229.027.336.069.5.195.783.831 1.065 1.256.283.425.596.92.863 1.398.54.936.926 1.952 1.146 3.01.183.958-.737.816-1.146.384-1.298-1.36-2.566-2.773-3.345-4.512a1.095 1.095 0 0 1 .031-1.15 1.305 1.305 0 0 1 1.05-.455Z"
            fill="#100E12" />
        <path
            d="M17.645 31.965c-.065-3 .062-6.001.381-8.985.092-1.042.306-1.969 1.795-.938 9.137 6.33 18.744 6.128 28.5 1.692 1.657-.766 1.878-.624 1.909 1.119.164 8.732-1.317 17.131-5.086 25.033-1.986 4.163-4.761 7.717-9.095 9.716-3.54 1.632-6.8.973-9.687-1.493-3.899-3.336-5.854-7.814-7.16-12.64a43.405 43.405 0 0 1-1.558-13.504Zm15.73 2.55v8.19c0 3.198.032 3.186-3.176 3.768-.691.127-1.573.2-1.497 1.195.073.904.852 1.092 1.604 1.096 2.291 0 4.582.03 6.896 0 .829 0 1.642-.292 1.646-1.303.003-1.01-.795-1.053-1.55-1.091-.757-.039-1.478.084-1.528-1.027-.088-1.574-.351-3.14-.382-4.71-.065-2.567-.019-5.137 0-7.707 0-.704-.118-1.329-.828-1.627-.71-.3-1.127.233-1.486.67-.924 1.149-2.07 2.01-3.161 2.953-1.092.942-2.047 1.85-3.09 2.75-.599.517-.732 1.218-.316 1.754.553.709.97-.092 1.428-.383 2.066-1.241 3.707-3.041 5.44-4.527Z"
            fill="#FAC704" />
        <path
            d="M19.875 19.414c5.17.333 9.927.487 14.708.628 4.7.142 9.42.092 14.15.713-7.125 5.052-21.47 5.063-28.858-1.34ZM38.588 73.743c-4.376-.487-8.366-.383-12.933-.525 1.062-.988 1.814-1.655 2.532-2.36a12.927 12.927 0 0 0 3.726-6.346c.084-.364.188-.98.237-1.21.02-.1.71-.233 1.295-.142.336.05.63.046.641.12.05.467.073.938.073 1.409.275 3.424 2.023 6.131 4.429 9.054Z"
            fill="#FAC704" />
        <path
            d="M29.275 78.285c4.124.341 7.774.655 11.424.939 1.184.095 1.825.597 1.692 1.872-.142 1.372-.23 2.746-.382 4.118-.153 1.37-1.115 1.915-2.367 1.773-4.773-.494-9.546-.184-14.342-.291-1.71-.038-2.673-.59-2.768-2.463-.084-1.379-.256-2.746-.058-4.117.05-.337.245-.827.73-.8.485.026.634.382.71.808.126.708.458 1.447.351 2.118-.355 2.298.672 2.68 2.707 2.57 3.796-.173 7.603-.138 11.402 0 2.29.072 1.619-1.755 1.688-2.739.087-1.202-.718-1.245-1.63-1.256-3.605-.046-7.187-.575-10.799-.406a4.5 4.5 0 0 1-1.363-.107c-.5-.138-1.016-.383-.943-1.065a1.005 1.005 0 0 1 .693-.883.997.997 0 0 1 .391-.044c1.104-.046 2.218-.027 2.864-.027Z"
            fill="#100E12" />
        <path
            d="M33.376 34.516c-1.734 1.486-3.375 3.286-5.456 4.539-.459.275-.875 1.076-1.429.383-.416-.537-.282-1.238.317-1.755 1.043-.9 2.047-1.846 3.09-2.75 1.042-.903 2.237-1.819 3.161-2.952.359-.437.787-.966 1.485-.67.7.294.833.922.829 1.627-.02 2.57-.065 5.14 0 7.706.038 1.57.302 3.137.382 4.71.06 1.112.832.99 1.527 1.027.695.039 1.558.108 1.55 1.092-.007.984-.817 1.287-1.645 1.302-2.291.035-4.582.023-6.896 0-.764 0-1.528-.191-1.604-1.095-.076-.996.806-1.069 1.497-1.195 3.207-.582 3.196-.57 3.177-3.769.004-2.704.015-5.396.015-8.2Z"
            fill="#000" />
    </g>
    <g id="play-button-bg" width="83" height="74" viewBox="0 0 83 74" fill="none" xmlns="http://www.w3.org/2000/svg">
        <path fill-rule="evenodd" clip-rule="evenodd"
            d="M43.2865 74C67.9034 74 83 63.0268 83 38.0086C83 12.9903 67.9191 0 43.2865 0C18.6538 0 0 21.447 0 42.9458C0 64.4446 18.6695 74 43.2865 74Z"
            fill="white" />
    </g>
    <g id="stroke-yellow" width="136" height="19" viewBox="0 0 136 19" transform="translate(0, 26)" fill="none"
        xmlns="http://www.w3.org/2000/svg">
        <path fill-rule="evenodd" clip-rule="evenodd"
            d="M134.436 0.000295117C113.001 0.508806 91.5685 1.18856 70.1355 1.84221C48.7165 2.49586 27.2399 2.58775 5.83727 3.84911C3.88449 3.96397 4.14418 9.13157 5.94177 9.51896C11.9904 10.8252 17.894 10.8064 23.9582 9.65992C24.1524 9.62337 24.3099 9.49076 24.4355 9.30281C39.7076 8.95615 54.9867 8.27535 70.2455 7.87439C72.3277 7.82009 74.41 7.76579 76.4914 7.7115C51.3767 10.6101 26.2245 12.9397 1.04656 14.6323C-0.402428 14.7294 -0.319762 19.0763 1.12689 18.999C45.6946 16.6308 90.1921 12.3622 134.548 6.06588C136.541 5.78291 136.462 -0.0477367 134.436 0.000295117Z"
            fill="#FFDA49" />
    </g>
    <g id="firstfold-inspire" width="165" height="19" viewBox="0 0 165 19" fill="none"
        xmlns="http://www.w3.org/2000/svg">
        <path fill-rule="evenodd" clip-rule="evenodd"
            d="M163.103 0.000295117C137.097 0.508806 111.094 1.18856 85.0909 1.84221C59.1046 2.49586 33.0484 2.58775 7.08198 3.84911C4.7128 3.96397 5.02787 9.13157 7.20876 9.51896C14.5472 10.8252 21.7096 10.8064 29.0669 9.65992C29.3025 9.62337 29.4936 9.49076 29.646 9.30281C48.1746 8.95615 66.7118 8.27535 85.2243 7.87439C87.7505 7.82009 90.2768 7.76579 92.8021 7.7115C62.332 10.6101 31.8165 12.9397 1.26972 14.6323C-0.488239 14.7294 -0.387947 19.0763 1.36718 18.999C55.4383 16.6308 109.424 12.3622 163.238 6.06588C165.656 5.78291 165.561 -0.0477367 163.103 0.000295117Z"
            fill="#FFDA49" />
    </g>
    <g id="teachers-stroke" width="142" height="21" viewBox="0 0 142 21" fill="none" xmlns="http://www.w3.org/2000/svg">
        <path fill-rule="evenodd" clip-rule="evenodd"
            d="M140.367 0.000326182C117.986 0.562365 95.6083 1.31367 73.2297 2.03613C50.8658 2.75859 28.4416 2.86014 6.09479 4.25428C4.05586 4.38123 4.32701 10.0928 6.20391 10.521C12.5194 11.9647 18.6834 11.9439 25.0152 10.6768C25.2179 10.6364 25.3824 10.4898 25.5135 10.2821C41.4594 9.8989 57.4125 9.14644 73.3446 8.70327C75.5187 8.64326 77.6928 8.58324 79.866 8.52323C53.6433 11.727 27.3814 14.3017 1.09273 16.1725C-0.420182 16.2798 -0.333869 21.0843 1.1766 20.9989C47.7105 18.3814 94.1711 13.6635 140.484 6.7044C142.565 6.39164 142.483 -0.0527617 140.367 0.000326182Z"
            fill="#FFDA49" />
    </g>
    <g id="teachers-stroke-mweb" width="110" height="15" viewBox="0 0 110 15" fill="none"
        xmlns="http://www.w3.org/2000/svg">
        <path fill-rule="evenodd" clip-rule="evenodd"
            d="M108.735 0.000232988C91.3977 0.401689 74.0628 0.938338 56.7273 1.45438C39.4031 1.97042 22.0322 2.04296 4.72132 3.03877C3.14186 3.12945 3.35191 7.20913 4.80584 7.51497C9.69811 8.54622 14.4731 8.53138 19.378 7.62625C19.535 7.5974 19.6624 7.49271 19.764 7.34433C32.1164 7.07064 44.4745 6.53317 56.8162 6.21662C58.5004 6.17376 60.1845 6.13089 61.8681 6.08802C41.5547 8.37641 21.211 10.2155 0.846483 11.5518C-0.325493 11.6284 -0.258631 15.0602 0.911452 14.9992C36.9588 13.1296 72.9495 9.75966 108.825 4.78886C110.438 4.56546 110.374 -0.0376869 108.735 0.000232988Z"
            fill="#FFDA49" />
    </g>
    <g id="results-stroke" width="112" height="13" viewBox="0 0 112 13" fill="none" xmlns="http://www.w3.org/2000/svg">
        <path fill-rule="evenodd" clip-rule="evenodd"
            d="M110.712 0.000201923C93.0594 0.348131 75.4094 0.813226 57.7587 1.26046C40.1195 1.7077 22.4328 1.77057 4.80716 2.6336C3.19899 2.71219 3.41285 6.24792 4.89322 6.51297C9.87444 7.40672 14.7362 7.39387 19.7303 6.60942C19.8902 6.58441 20.0199 6.49368 20.1233 6.36508C32.7003 6.12789 45.2831 5.66208 57.8492 5.38774C59.564 5.35059 61.2788 5.31344 62.9929 5.27629C42.3102 7.25955 21.5966 8.85345 0.861873 10.0115C-0.331411 10.078 -0.263333 13.0522 0.928024 12.9993C37.6308 11.379 74.2758 8.45837 110.804 4.15034C112.446 3.95673 112.381 -0.032662 110.712 0.000201923Z"
            fill="#FFDA49" />
    </g>

    <g id="results-stroke-mweb" width="86" height="12" viewBox="0 0 86 12" fill="none"
        xmlns="http://www.w3.org/2000/svg">
        <path fill-rule="evenodd" clip-rule="evenodd"
            d="M85.0111 0.00018639C71.4564 0.321351 57.9036 0.75067 44.3504 1.1635C30.8061 1.57633 17.2252 1.63437 3.69121 2.43102C2.45637 2.50356 2.62058 5.76731 3.75729 6.01197C7.58216 6.83698 11.3153 6.82511 15.15 6.101C15.2728 6.07792 15.3724 5.99417 15.4518 5.87546C25.1092 5.65651 34.771 5.22654 44.4199 4.9733C45.7366 4.939 47.0534 4.90471 48.3696 4.87042C32.4882 6.70112 16.5831 8.17242 0.661795 9.24143C-0.254476 9.30276 -0.202202 12.0482 0.71259 11.9994C28.8951 10.5037 57.0332 7.80773 85.0816 3.83108C86.3421 3.65237 86.2923 -0.0301495 85.0111 0.00018639Z"
            fill="#FFDA49" />
    </g>

    <g id="testimonials-stroke" width="118" height="17" viewBox="0 0 118 17" fill="none"
        xmlns="http://www.w3.org/2000/svg">
        <path fill-rule="evenodd" clip-rule="evenodd"
            d="M116.643 0.000264052C98.0448 0.455248 79.4492 1.06345 60.8529 1.6483C42.2688 2.23314 23.6346 2.31536 5.06469 3.44394C3.37036 3.54671 3.59569 8.17035 5.15536 8.51696C10.4034 9.68572 15.5256 9.6689 20.7873 8.64308C20.9557 8.61039 21.0924 8.49173 21.2014 8.32357C34.4521 8.0134 47.709 7.40426 60.9483 7.0455C62.7549 6.99692 64.5616 6.94834 66.3675 6.89976C44.5768 9.49326 22.7536 11.5776 0.908045 13.092C-0.349165 13.1789 -0.277441 17.0682 0.97774 16.9991C39.6468 14.8802 78.2549 11.0609 116.74 5.42737C118.469 5.17418 118.401 -0.0427118 116.643 0.000264052Z"
            fill="#FFDA49" />
    </g>
    <g id="app-stroke" width="163" height="18" viewBox="0 0 163 18" fill="none" xmlns="http://www.w3.org/2000/svg">
        <path fill-rule="evenodd" clip-rule="evenodd"
            d="M161.126 0.417745C135.435 0.872939 109.748 1.48142 84.0595 2.06654C58.3882 2.65165 32.6478 2.73391 6.99614 3.86301C4.65567 3.96583 4.96692 8.59161 7.12138 8.93838C14.3708 10.1077 21.4464 10.0909 28.7146 9.06456C28.9473 9.03185 29.1361 8.91315 29.2866 8.7449C47.5907 8.43458 65.9031 7.82517 84.1913 7.46624C86.6869 7.41764 89.1825 7.36904 91.6772 7.32043C61.5764 9.91513 31.4308 12.0004 1.25433 13.5156C-0.482321 13.6025 -0.383244 17.4936 1.35061 17.4244C54.7663 15.3046 108.098 11.4835 161.259 5.84736C163.648 5.59406 163.554 0.374749 161.126 0.417745Z"
            fill="#FFDA49" />
    </g>

    <g id="tag" width="74" height="29" viewBox="0 0 74 29" fill="none" xmlns="http://www.w3.org/2000/svg">
        <path
            d="M70 28.2124L3.5034 28.2124C1.60149 28.2124 0.0596923 26.6706 0.0596922 24.7687L0.0596913 4.10645C0.0596912 2.20454 1.6015 0.662737 3.50341 0.662737L70 0.662734C72.6186 0.662734 74.2791 3.46965 73.0182 5.76469L69.1642 12.7793C68.5968 13.812 68.5968 15.0631 69.1642 16.0958L73.0182 23.1105C74.2791 25.4055 72.6186 28.2124 70 28.2124Z"
            fill="#FF6969" />
    </g>

    <g id="bod-text" width="174" height="21" viewBox="0 0 174 21" fill="none" xmlns="http://www.w3.org/2000/svg">
        <path fill-rule="evenodd" clip-rule="evenodd"
            d="M171.999 0.000326182C144.575 0.562365 117.154 1.31367 89.7322 2.03613C62.3285 2.75859 34.851 2.86014 7.46827 4.25428C4.96986 4.38123 5.30211 10.0928 7.60197 10.521C15.3407 11.9647 22.8938 11.9439 30.6524 10.6768C30.9008 10.6364 31.1024 10.4898 31.263 10.2821C50.8023 9.8989 70.3506 9.14644 89.8729 8.70327C92.5369 8.64326 95.201 8.58324 97.864 8.52323C65.7319 11.727 33.5519 14.3017 1.33898 16.1725C-0.514871 16.2798 -0.409107 21.0843 1.44175 20.9989C58.4622 18.3814 115.393 13.6635 172.142 6.7044C174.692 6.39164 174.591 -0.0527617 171.999 0.000326182Z"
            fill="#FFDA49" />
    </g>
    <g id="bod-text-mweb" width="130" height="10" viewBox="0 0 130 10" fill="none" xmlns="http://www.w3.org/2000/svg">
        <path fill-rule="evenodd" clip-rule="evenodd"
            d="M128.505 0.327044C108.015 0.567918 87.5287 0.889907 67.0413 1.19953C46.5673 1.50916 26.0381 1.55268 5.57974 2.15017C3.71311 2.20457 3.96135 4.65238 5.67963 4.83588C11.4614 5.45464 17.1045 5.44573 22.9012 4.90266C23.0868 4.88534 23.2374 4.82253 23.3574 4.7335C37.9558 4.56929 52.5608 4.24681 67.1464 4.05688C69.1368 4.03116 71.1272 4.00544 73.1168 3.97972C49.11 5.35275 25.0675 6.45622 1.00039 7.25797C-0.384674 7.30397 -0.305655 9.36302 1.07717 9.32642C43.6786 8.20465 86.213 6.1827 128.612 3.20022C130.517 3.06618 130.442 0.304292 128.505 0.327044Z"
            fill="#FFDA49" />
    </g>
    <g id="offerings-text" width="142" height="22" viewBox="0 0 142 22" fill="none" xmlns="http://www.w3.org/2000/svg">
        <path fill-rule="evenodd" clip-rule="evenodd"
            d="M140.367 0.614096C117.986 1.17613 95.6083 1.92744 73.2297 2.6499C50.8658 3.37235 28.4416 3.47391 6.09479 4.86805C4.05586 4.995 4.32701 10.7066 6.20391 11.1347C12.5194 12.5785 18.6834 12.5577 25.0152 11.2905C25.2179 11.2501 25.3824 11.1036 25.5135 10.8958C41.4594 10.5127 57.4125 9.76021 73.3446 9.31704C75.5187 9.25703 77.6928 9.19701 79.866 9.137C53.6433 12.3407 27.3814 14.9155 1.09273 16.7863C-0.420182 16.8936 -0.333869 21.698 1.1766 21.6126C47.7105 18.9952 94.1711 14.2773 140.484 7.31817C142.565 7.00541 142.483 0.561008 140.367 0.614096Z"
            fill="#FFDA49" />
    </g>

    <g id="offerings-text-mweb" width="91" height="14" viewBox="0 0 91 14" fill="none"
        xmlns="http://www.w3.org/2000/svg">
        <path fill-rule="evenodd" clip-rule="evenodd"
            d="M89.9536 0.327106C75.6108 0.675035 61.2701 1.14013 46.9289 1.58737C32.5971 2.0346 18.2267 2.09747 3.90582 2.9605C2.59918 3.03909 2.77294 6.57482 3.97574 6.83987C8.02299 7.73363 11.9732 7.72077 16.0309 6.93632C16.1608 6.91132 16.2662 6.82058 16.3502 6.69199C26.569 6.45479 36.7925 5.98899 47.0025 5.71464C48.3958 5.67749 49.789 5.64034 51.1818 5.60319C34.377 7.58646 17.5473 9.18035 0.700272 10.3385C-0.269271 10.4049 -0.213958 13.3791 0.75402 13.3262C30.575 11.7059 60.3491 8.78527 90.0282 4.47725C91.362 4.28363 91.3093 0.294242 89.9536 0.327106Z"
            fill="#FFDA49" />
    </g>
    <g id="featured-stroke" width="143" height="17" viewBox="0 0 143 17" fill="none" xmlns="http://www.w3.org/2000/svg">
        <path fill-rule="evenodd" clip-rule="evenodd"
            d="M141.356 0.000264052C118.817 0.455248 96.2816 1.06345 73.7454 1.6483C51.224 2.23314 28.6419 2.31536 6.13771 3.44394C4.08442 3.54671 4.35748 8.17035 6.24759 8.51696C12.6075 9.68572 18.815 9.6689 25.1913 8.64308C25.3955 8.61039 25.5612 8.49173 25.6932 8.32357C41.7513 8.0134 57.8168 7.40426 73.8611 7.0455C76.0505 6.99692 78.2399 6.94834 80.4285 6.89976C54.021 9.49326 27.5743 11.5776 1.10043 13.092C-0.423141 13.1789 -0.33622 17.0682 1.18489 16.9991C48.0465 14.8802 94.8343 11.0609 141.473 5.42737C143.569 5.17418 143.486 -0.0427118 141.356 0.000264052Z"
            fill="#FFDA49" />
    </g>

    <g id="vsk-stroke" width="67" height="14" viewBox="0 0 67 14" fill="none" xmlns="http://www.w3.org/2000/svg">
        <path fill-rule="evenodd" clip-rule="evenodd"
            d="M66.2296 0.000217455C55.6695 0.37491 45.111 0.875782 34.5521 1.35742C24.0001 1.83906 13.4196 1.90676 2.87571 2.83619C1.91368 2.92082 2.04162 6.72852 2.92719 7.01397C5.90703 7.97647 8.81541 7.96262 11.8029 7.11784C11.8986 7.09091 11.9762 6.99319 12.0381 6.8547C19.5618 6.59927 27.089 6.09763 34.6062 5.80218C35.632 5.76217 36.6578 5.72216 37.6833 5.68216C25.3106 7.81798 12.9194 9.53449 0.515585 10.7817C-0.198255 10.8532 -0.15753 14.0562 0.555157 13.9993C22.5113 12.2543 44.4329 9.10901 66.2845 4.4696C67.2665 4.26109 67.2277 -0.0351744 66.2296 0.000217455Z"
            fill="#FFDA49" />
    </g>
    <g id="quote" width="28" height="21" viewBox="0 0 28 21" fill="none" xmlns="http://www.w3.org/2000/svg">
        <path fill-rule="evenodd" clip-rule="evenodd"
            d="M8 20.2275H2L6 12.2275H0V0.227539H12V12.2275L8 20.2275ZM24 20.2275H18L22 12.2275H16V0.227539H28V12.2275L24 20.2275Z"
            fill="#8244FD" />
    </g>
    <g id="stats-b2-stroke" width="95" height="18" viewBox="0 0 95 18" fill="none" xmlns="http://www.w3.org/2000/svg">
        <path fill-rule="evenodd" clip-rule="evenodd"
            d="M93.9076 0.227803C78.9343 0.682787 63.9633 1.29099 48.9917 1.87583C34.0299 2.46068 19.0278 2.54289 4.0775 3.67148C2.71343 3.77425 2.89483 8.39789 4.1505 8.7445C8.37564 9.91326 12.4995 9.89644 16.7355 8.87062C16.8711 8.83792 16.9812 8.71927 17.0689 8.55111C27.7369 8.24093 38.4098 7.6318 49.0685 7.27304C50.523 7.22446 51.9775 7.17588 53.4315 7.1273C35.8881 9.7208 18.3186 11.8051 0.731053 13.3196C-0.281108 13.4064 -0.223363 17.2958 0.787163 17.2266C31.919 15.1077 63.0018 11.2885 93.9855 5.65491C95.3779 5.40172 95.3229 0.184827 93.9076 0.227803Z"
            fill="#FFDA49" />
    </g>

    <g id="phone-icon" width="16" height="17" viewBox="0 0 16 17" fill="none" xmlns="http://www.w3.org/2000/svg">
        <path
            d="M4.99979 8.48732C5.6323 9.78044 6.68049 10.8239 7.97647 11.4505C8.07129 11.4954 8.17617 11.5149 8.2808 11.507C8.38543 11.499 8.4862 11.464 8.57318 11.4053L10.4814 10.1329C10.5658 10.0766 10.6629 10.0423 10.7639 10.033C10.8649 10.0237 10.9667 10.0398 11.0599 10.0797L14.6299 11.6097C14.7511 11.6612 14.8524 11.7508 14.9184 11.8648C14.9843 11.9789 15.0114 12.1113 14.9956 12.2421C14.8828 13.125 14.452 13.9366 13.7839 14.5248C13.1158 15.113 12.2562 15.4375 11.366 15.4375C8.61679 15.4375 5.98015 14.3454 4.03614 12.4014C2.09213 10.4573 1 7.82071 1 5.07146C1.00005 4.18134 1.32454 3.32175 1.91273 2.65364C2.50092 1.98554 3.31246 1.55474 4.19541 1.4419C4.32621 1.42607 4.45862 1.45318 4.57268 1.51915C4.68674 1.58511 4.77627 1.68636 4.82779 1.80763L6.3591 5.3807C6.39871 5.47312 6.41485 5.5739 6.40608 5.67407C6.39732 5.77424 6.36391 5.87068 6.30885 5.95481L5.04081 7.89233C4.9831 7.97949 4.94898 8.08013 4.94179 8.18441C4.9346 8.2887 4.95458 8.39307 4.99979 8.48732V8.48732Z"
            stroke="black" stroke-width="1.21953" stroke-linecap="round" stroke-linejoin="round" />
    </g>
    <g id="mail-icon" width="16" height="13" viewBox="0 0 16 13" fill="none" xmlns="http://www.w3.org/2000/svg">
        <path
            d="M1 1.4375H15V11.3542C15 11.5089 14.9385 11.6572 14.8291 11.7666C14.7197 11.876 14.5714 11.9375 14.4167 11.9375H1.58333C1.42862 11.9375 1.28025 11.876 1.17085 11.7666C1.06146 11.6572 1 11.5089 1 11.3542V1.4375Z"
            stroke="#01202B" stroke-width="1.16667" stroke-linecap="round" stroke-linejoin="round" />
        <path d="M15 1.4375L8 7.85417L1 1.4375" stroke="#01202B" stroke-width="1.16667" stroke-linecap="round"
            stroke-linejoin="round" />
    </g>

</svg>