<svg id="visual" viewBox="0 0 900 600" width="900" height="600" xmlns="http://www.w3.org/2000/svg" xmlns:xlink="http://www.w3.org/1999/xlink" version="1.1"><path d="M0 157L82 157L82 109L164 109L164 103L245 103L245 241L327 241L327 133L409 133L409 247L491 247L491 163L573 163L573 199L655 199L655 187L736 187L736 205L818 205L818 301L900 301L900 181L900 0L900 0L818 0L818 0L736 0L736 0L655 0L655 0L573 0L573 0L491 0L491 0L409 0L409 0L327 0L327 0L245 0L245 0L164 0L164 0L82 0L82 0L0 0Z" fill="#fa7268"></path><path d="M0 199L82 199L82 205L164 205L164 187L245 187L245 289L327 289L327 193L409 193L409 319L491 319L491 235L573 235L573 283L655 283L655 283L736 283L736 289L818 289L818 349L900 349L900 271L900 179L900 299L818 299L818 203L736 203L736 185L655 185L655 197L573 197L573 161L491 161L491 245L409 245L409 131L327 131L327 239L245 239L245 101L164 101L164 107L82 107L82 155L0 155Z" fill="#ea5e66"></path><path d="M0 343L82 343L82 445L164 445L164 379L245 379L245 379L327 379L327 451L409 451L409 445L491 445L491 421L573 421L573 481L655 481L655 505L736 505L736 403L818 403L818 463L900 463L900 433L900 269L900 347L818 347L818 287L736 287L736 281L655 281L655 281L573 281L573 233L491 233L491 317L409 317L409 191L327 191L327 287L245 287L245 185L164 185L164 203L82 203L82 197L0 197Z" fill="#d84a64"></path><path d="M0 439L82 439L82 487L164 487L164 457L245 457L245 469L327 469L327 505L409 505L409 541L491 541L491 511L573 511L573 529L655 529L655 547L736 547L736 511L818 511L818 505L900 505L900 547L900 431L900 461L818 461L818 401L736 401L736 503L655 503L655 479L573 479L573 419L491 419L491 443L409 443L409 449L327 449L327 377L245 377L245 377L164 377L164 443L82 443L82 341L0 341Z" fill="#c53762"></path><path d="M0 601L82 601L82 601L164 601L164 601L245 601L245 601L327 601L327 601L409 601L409 601L491 601L491 601L573 601L573 601L655 601L655 601L736 601L736 601L818 601L818 601L900 601L900 601L900 545L900 503L818 503L818 509L736 509L736 545L655 545L655 527L573 527L573 509L491 509L491 539L409 539L409 503L327 503L327 467L245 467L245 455L164 455L164 485L82 485L82 437L0 437Z" fill="#b0235f"></path></svg>