<svg version="1.1" id="Layer_1" xmlns="http://www.w3.org/2000/svg" xmlns:xlink="http://www.w3.org/1999/xlink" x="0px" y="0px"
	 width="100%" viewBox="0 0 311 255" enable-background="new 0 0 311 255" xml:space="preserve">
<path fill="#7DB83A" opacity="1.000000" stroke="none"
	d="
M142.123566,137.846817
	C143.705780,136.469025 145.287979,135.091232 147.229218,133.243683
	C148.481186,131.840530 149.374115,130.907135 150.625519,129.986237
	C153.990143,131.330246 156.996292,132.661774 160.203491,134.079956
	C160.663666,134.321091 160.853561,134.536560 160.719208,135.035187
	C158.367126,137.805908 156.270065,140.354446 153.859756,143.048279
	C147.721893,149.383499 141.897293,155.573425 135.753281,161.903961
	C123.143433,174.335526 111.147026,186.940582 98.464371,198.812515
	C89.245926,207.441666 78.776581,214.499100 66.099243,217.041382
	C67.113525,215.215866 67.972824,213.614380 69.192406,212.364426
	C74.495636,206.929169 80.051552,201.732971 85.205498,196.162933
	C87.455795,193.730927 88.960983,190.609467 90.843597,187.809479
	C90.882645,187.817871 90.835670,187.882477 91.089264,187.812103
	C91.546402,187.466324 91.749939,187.190948 91.971924,186.952057
	C91.990364,186.988571 91.917580,186.951233 92.150497,186.862030
	C92.680740,186.588455 92.875481,186.327545 93.136642,185.699738
	C102.514236,176.622406 111.722832,167.835388 121.227081,158.917435
	C122.646461,157.534500 123.770187,156.282516 125.204056,154.893066
	C131.050659,149.119354 136.587112,143.483078 142.123566,137.846817
z"/>
<path fill="#BCBFBD" opacity="1.000000" stroke="none"
	d="
M66.110039,217.427170
	C78.776581,214.499100 89.245926,207.441666 98.464371,198.812515
	C111.147026,186.940582 123.143433,174.335526 136.041092,162.098190
	C144.731186,168.114777 152.814026,174.077759 161.070038,180.328903
	C167.142609,186.417084 173.042053,192.217133 179.096069,198.315567
	C185.225388,206.072418 191.200134,213.530869 197.284027,221.302689
	C198.879410,223.724716 200.365631,225.833374 201.856750,227.948975
	C213.103546,222.770859 224.507217,223.616684 236.231979,224.670334
	C245.382004,226.827057 254.213989,228.808792 263.045990,230.790527
	C263.156464,232.701340 263.266907,234.612137 263.390076,236.742706
	C256.500977,235.049164 249.507050,233.250687 242.474533,231.618423
	C229.866928,228.692215 217.301987,227.882477 204.708038,232.042435
	C203.485580,232.446228 201.030548,230.882629 199.916321,229.576553
	C189.039261,216.826477 178.817245,203.479202 167.411697,191.230362
	C158.133850,181.266541 147.051453,173.178604 134.231094,166.856750
	C131.066238,170.499207 128.065811,174.430573 124.581825,177.872437
	C114.190529,188.138046 104.204147,198.938461 92.936157,208.156723
	C81.561852,217.461975 68.380356,224.405609 53.010139,223.854156
	C41.681828,223.447723 32.370972,218.331192 26.556881,208.174454
	C29.279270,209.409927 31.582163,210.915115 34.106819,212.661346
	C39.218304,214.577515 44.108032,216.252655 49.396141,218.046082
	C55.233025,217.918640 60.671532,217.672913 66.110039,217.427170
z"/>
<path fill="#7BB73D" opacity="1.000000" stroke="none"
	d="
M169.059311,111.010605
	C184.218353,96.337090 198.989120,81.230026 214.693329,67.165222
	C223.077988,59.655865 233.501663,54.956375 245.403854,54.415318
	C241.141922,60.327465 236.580399,65.834335 232.117035,71.419640
	C230.635818,73.273178 229.406982,75.328377 227.828125,77.523308
	C219.888504,82.832802 211.725815,87.346321 204.595657,93.132263
	C195.893600,100.193756 188.058716,108.323891 179.510864,115.994873
	C178.115692,115.666267 177.058441,115.334656 175.806351,114.732544
	C173.427429,113.311554 171.243378,112.161079 169.059311,111.010605
z"/>
<path fill="#70A333" opacity="1.000000" stroke="none"
	d="
M168.778687,110.999237
	C171.243378,112.161079 173.427429,113.311554 175.661148,115.031448
	C171.321625,120.052963 166.839508,124.419289 162.601486,129.010895
	C161.375198,130.339462 160.849380,132.314575 160.002441,133.993286
	C156.996292,132.661774 153.990143,131.330246 150.442474,129.679276
	C140.937042,123.833687 131.973129,118.307549 123.052505,112.451401
	C126.895538,108.082565 130.641922,103.991707 134.512924,100.022408
	C137.300858,97.163689 140.543243,94.623924 139.958008,89.968742
	C147.761154,96.262238 155.564285,102.555740 163.872833,109.204605
	C164.936523,109.686005 165.494812,109.812035 166.053116,109.938057
	C166.053116,109.938057 166.013260,110.001694 166.171478,110.222542
	C166.681183,110.587723 167.032669,110.732056 167.384140,110.876396
	C167.755447,110.913551 168.126755,110.950706 168.778687,110.999237
z"/>
<path fill="#75AD35" opacity="1.000000" stroke="none"
	d="
M197.174866,220.989319
	C191.200134,213.530869 185.225388,206.072418 179.466370,198.306000
	C181.408615,196.878174 183.266083,195.916092 184.839035,194.611069
	C191.626068,188.980118 196.122910,180.603210 205.177887,177.690582
	C212.014008,183.100647 218.854294,188.505478 225.682739,193.925201
	C227.067444,195.024231 228.407516,196.179504 229.474182,197.642975
	C224.316406,197.174637 220.821442,199.203949 217.592026,202.780975
	C212.960495,207.911041 207.960999,212.723083 202.926102,217.466599
	C201.324417,218.975586 199.109299,219.833496 197.174866,220.989319
z"/>
<path fill="#75AD36" opacity="1.000000" stroke="none"
	d="
M94.032997,48.151093
	C95.751068,47.607281 97.533836,47.209808 99.172112,46.485497
	C101.653198,45.388554 102.879723,46.319111 104.401421,48.410744
	C110.037445,56.157692 115.971695,63.687683 121.776093,71.936424
	C118.126022,81.220268 110.644691,86.548859 104.307167,92.870392
	C103.096718,94.077774 102.103043,95.502502 100.701385,96.716614
	C93.250801,90.775627 86.108177,84.944977 79.104233,78.804138
	C86.114548,71.542534 93.203781,64.785301 99.703514,57.501999
	C101.311531,55.700115 101.006073,52.190624 101.580200,49.466095
	C99.646576,49.270496 97.707153,49.117332 95.782745,48.854313
	C95.178741,48.771767 94.615105,48.393829 94.032997,48.151093
z"/>
<path fill="#70A434" opacity="1.000000" stroke="none"
	d="
M160.896881,180.040756
	C152.814026,174.077759 144.731186,168.114777 136.360519,161.957581
	C141.897293,155.573425 147.721893,149.383499 154.165527,143.102661
	C155.544067,143.348251 156.303589,143.684769 157.063110,144.021271
	C158.124756,144.964264 159.083206,146.068619 160.264679,146.824249
	C168.414200,152.036255 176.610260,157.175476 184.550781,162.660583
	C181.028351,164.667206 177.424500,165.929031 174.537262,168.130646
	C169.747955,171.782639 165.419479,176.038986 160.896881,180.040756
z"/>
<path fill="#79B236" opacity="1.000000" stroke="none"
	d="
M93.768341,48.104862
	C94.615105,48.393829 95.178741,48.771767 95.782745,48.854313
	C97.707153,49.117332 99.646576,49.270496 101.580200,49.466095
	C101.006073,52.190624 101.311531,55.700115 99.703514,57.501999
	C93.203781,64.785301 86.114548,71.542534 78.794617,78.665085
	C70.570892,72.158363 62.795464,65.480522 55.058308,58.475773
	C58.439205,54.673042 61.781830,51.197224 65.124451,47.721405
	C65.553215,47.781239 65.981987,47.841076 66.951477,48.256630
	C69.355461,48.685268 71.218727,48.758190 73.081993,48.831116
	C73.824585,48.863781 74.567169,48.896446 75.969269,49.292656
	C80.077415,49.478752 83.526054,49.301304 86.974693,49.123852
	C87.409622,49.030811 87.844543,48.937771 88.793747,49.134754
	C90.531509,49.007229 91.754997,48.589684 92.978485,48.172134
	C93.153557,48.134296 93.328621,48.096462 93.768341,48.104862
z"/>
<path fill="#79B237" opacity="1.000000" stroke="none"
	d="
M197.284027,221.302704
	C199.109299,219.833496 201.324417,218.975586 202.926102,217.466599
	C207.960999,212.723083 212.960495,207.911041 217.592026,202.780975
	C220.821442,199.203949 224.316406,197.174637 229.617569,197.956665
	C230.054947,197.936249 230.027969,197.969284 230.136932,198.187622
	C230.528015,198.585922 230.810135,198.765915 231.092239,198.945892
	C231.092239,198.945892 231.019989,198.985748 231.159668,199.197083
	C231.628326,199.567719 231.957321,199.727005 232.286301,199.886292
	C236.450043,203.314240 240.613770,206.742203 245.010269,210.789062
	C244.738205,212.549896 244.429321,213.841339 243.692825,214.806503
	C241.181107,218.098099 238.518799,221.274811 235.913956,224.495346
	C224.507217,223.616684 213.103546,222.770859 201.856750,227.948975
	C200.365631,225.833374 198.879410,223.724716 197.284027,221.302704
z"/>
<path fill="#72A834" opacity="1.000000" stroke="none"
	d="
M161.070038,180.328903
	C165.419479,176.038986 169.747955,171.782639 174.537262,168.130646
	C177.424500,165.929031 181.028351,164.667206 184.707306,162.967148
	C185.300186,163.008759 185.495926,163.066284 186.000351,163.420227
	C186.309021,163.716629 186.729294,163.978241 186.729294,163.978241
	C186.729294,163.978241 186.934875,163.925217 187.100830,164.220184
	C187.483566,164.756622 187.752258,164.902664 188.072845,164.953293
	C193.645294,169.017075 199.217728,173.080856 204.984039,177.417618
	C196.122910,180.603210 191.626068,188.980118 184.839035,194.611069
	C183.266083,195.916092 181.408615,196.878174 179.311768,198.007599
	C173.042053,192.217133 167.142609,186.417084 161.070038,180.328903
z"/>
<path fill="#72A834" opacity="1.000000" stroke="none"
	d="
M101.009354,96.826950
	C102.103043,95.502502 103.096718,94.077774 104.307167,92.870392
	C110.644691,86.548859 118.126022,81.220268 121.901596,72.245842
	C127.917809,77.739067 133.790741,83.560097 139.810837,89.674934
	C140.543243,94.623924 137.300858,97.163689 134.512924,100.022408
	C130.641922,103.991707 126.895538,108.082565 122.739563,112.356529
	C115.258659,107.336761 108.134010,102.081856 101.009354,96.826950
z"/>
<path fill="#BBBEBC" opacity="1.000000" stroke="none"
	d="
M157.378708,143.864838
	C156.303589,143.684769 155.544067,143.348251 154.478790,142.957367
	C156.270065,140.354446 158.367126,137.805908 161.099304,135.086792
	C163.257324,135.513123 164.749390,136.210098 166.308212,136.690491
	C175.523727,139.530472 184.754730,142.320145 194.287064,145.373749
	C200.731140,146.105011 206.868683,146.589310 213.469482,147.113159
	C219.283951,146.724060 224.635162,146.295441 230.389404,145.895172
	C232.586960,145.590408 234.397766,145.327118 236.173569,144.913589
	C259.960815,139.374451 275.701172,124.781578 284.454529,101.906944
	C284.769440,101.127289 284.883789,100.560219 285.202454,99.951889
	C285.406830,99.910622 285.815430,99.827606 285.815430,99.827606
	C285.214325,109.600334 279.988495,117.426552 274.476990,124.842957
	C262.558899,140.880310 246.162643,149.322998 226.478165,152.086090
	C205.037781,155.095627 185.012985,150.053726 165.469543,142.067825
	C162.151047,140.711792 159.795639,140.807709 157.378708,143.864838
z"/>
<path fill="#719F3C" opacity="1.000000" stroke="none"
	d="
M141.915436,137.548737
	C136.587112,143.483078 131.050659,149.119354 124.901276,154.732330
	C115.153130,150.918625 106.017914,147.128204 96.916290,142.952499
	C98.021500,140.823288 98.933823,138.952698 100.198463,137.362259
	C102.699234,134.217194 105.394844,131.227066 108.009903,128.172882
	C108.766899,128.114029 109.523888,128.055176 110.856415,128.317535
	C112.643761,128.714981 113.855568,128.791229 115.067383,128.867477
	C115.507118,128.918579 115.946846,128.969681 116.912125,129.320618
	C118.018753,129.719528 118.599846,129.818604 119.180939,129.917694
	C126.689728,132.362015 134.198517,134.806320 141.915436,137.548737
z"/>
<path fill="#7C9F56" opacity="1.000000" stroke="none"
	d="
M24.776821,161.920227
	C31.767420,147.792618 42.899593,138.049484 57.268028,132.075409
	C62.677670,129.826202 68.546272,128.680847 74.561440,127.435585
	C73.811829,128.961227 72.630096,130.018951 71.615250,131.217926
	C68.497826,134.900940 62.847969,136.720261 62.660515,142.944824
	C51.827820,146.582108 44.340080,153.574860 38.814945,162.824158
	C34.016453,161.398361 29.533041,158.562393 24.776821,161.920227
z"/>
<path fill="#BBBFBB" opacity="1.000000" stroke="none"
	d="
M100.701385,96.716614
	C108.134010,102.081856 115.258659,107.336761 122.696259,112.686546
	C131.973129,118.307549 140.937042,123.833687 150.083984,129.666779
	C149.374115,130.907135 148.481186,131.840530 147.300980,132.917084
	C123.021820,118.998726 100.686020,102.675987 79.756569,84.359787
	C68.013565,74.083015 55.882553,64.250023 43.952965,54.185555
	C42.333923,52.819645 40.870216,51.269627 39.022320,49.506992
	C40.675003,49.079807 41.750046,48.801933 43.296967,48.410370
	C47.519241,51.798687 51.269638,55.300686 55.020035,58.802685
	C62.795464,65.480522 70.570892,72.158363 78.655937,78.975266
	C86.108177,84.944977 93.250801,90.775627 100.701385,96.716614
z"/>
<path fill="#75AD36" opacity="1.000000" stroke="none"
	d="
M228.062759,77.291382
	C229.406982,75.328377 230.635818,73.273178 232.117035,71.419640
	C236.580399,65.834335 241.141922,60.327465 245.816727,54.485222
	C252.459412,55.326954 258.950531,56.473473 265.873840,58.168652
	C265.895203,60.286331 265.899292,62.176533 264.985870,63.356411
	C263.176178,65.694000 260.690033,67.499199 258.801849,69.787186
	C256.993774,71.978096 255.589310,74.502083 253.644638,76.799538
	C244.779709,72.688087 236.405853,74.311729 228.062759,77.291382
z"/>
<path fill="#70A434" opacity="1.000000" stroke="none"
	d="
M254.007446,76.879677
	C255.589310,74.502083 256.993774,71.978096 258.801849,69.787186
	C260.690033,67.499199 263.176178,65.694000 264.985870,63.356411
	C265.899292,62.176533 265.895203,60.286331 266.161255,58.407471
	C272.440399,59.923256 276.875366,64.357918 280.916809,70.142685
	C279.924347,80.402283 272.185089,84.293182 265.363617,88.919945
	C261.427460,84.754181 257.717468,80.816925 254.007446,76.879677
z"/>
<path fill="#70A434" opacity="1.000000" stroke="none"
	d="
M33.885056,212.420303
	C31.582163,210.915115 29.279270,209.409927 26.651369,207.829041
	C26.326361,207.753326 26.283531,207.772552 26.231335,207.470703
	C25.729303,206.829819 25.279469,206.490784 24.829634,206.151749
	C24.249657,205.325714 23.669680,204.499680 23.035740,202.988632
	C21.405085,195.237854 31.089088,184.159637 38.998871,183.995636
	C39.007183,184.001236 39.007401,184.019577 39.018883,184.311127
	C39.335152,185.067810 39.639935,185.532944 40.183159,186.240570
	C43.619587,189.651642 46.817577,192.820236 49.704376,196.124527
	C44.223812,201.646927 39.054432,207.033615 33.885056,212.420303
z"/>
<path fill="#71A03B" opacity="1.000000" stroke="none"
	d="
M265.589752,89.148453
	C272.185089,84.293182 279.924347,80.402283 280.986389,70.477219
	C282.356598,73.013382 283.728180,75.955757 285.088867,79.591431
	C285.332123,80.851471 285.586243,81.418221 285.840332,81.984970
	C285.935638,82.692039 286.030914,83.399109 286.054199,84.893250
	C285.965912,87.112091 285.949585,88.543877 285.572144,89.986305
	C281.662445,92.976128 278.235260,96.119583 274.515900,98.867546
	C272.554352,100.316803 270.083008,101.076096 267.851501,102.127380
	C267.861176,102.107857 267.899506,102.089333 267.940186,101.734283
	C267.750214,100.273483 267.519531,99.167725 267.153870,97.836807
	C266.959045,97.447182 266.899200,97.282715 266.928589,96.710617
	C266.541840,93.918152 266.065796,91.533302 265.589752,89.148453
z"/>
<path fill="#719F3C" opacity="1.000000" stroke="none"
	d="
M38.990555,183.990051
	C31.089088,184.159637 21.405085,195.237854 22.969429,202.690948
	C21.385303,199.614502 19.813524,196.150696 18.476101,192.007141
	C18.808779,188.553406 18.907104,185.779449 19.349636,182.969727
	C23.782696,179.135696 27.765614,175.212509 32.017719,171.606766
	C33.510517,170.340881 35.664047,169.854172 37.625793,169.281174
	C37.825878,169.722122 37.916042,169.893570 37.944523,170.247025
	C37.882843,170.429016 37.811165,170.806580 37.578133,171.068909
	C37.304016,172.255035 37.262932,173.178848 37.166771,174.494720
	C37.737980,177.921204 38.364269,180.955627 38.990555,183.990051
z"/>
<path fill="#759F46" opacity="1.000000" stroke="none"
	d="
M107.596741,128.082886
	C105.394844,131.227066 102.699234,134.217194 100.198463,137.362259
	C98.933823,138.952698 98.021500,140.823288 96.494041,142.896500
	C90.693520,142.462982 85.348846,141.700165 80.039894,140.596802
	C82.365448,137.689117 84.777115,135.218185 86.904625,132.522934
	C88.464905,130.546280 89.652443,128.275406 91.006119,126.135681
	C96.398598,126.754745 101.791084,127.373817 107.596741,128.082886
z"/>
<path fill="#7CB73C" opacity="1.000000" stroke="none"
	d="
M236.231979,224.670334
	C238.518799,221.274811 241.181107,218.098099 243.692825,214.806503
	C244.429321,213.841339 244.738205,212.549896 245.176605,211.083252
	C251.342102,216.243912 257.628204,221.670670 263.722748,227.304703
	C264.337433,227.872940 263.794006,229.693924 263.416992,230.862030
	C254.213989,228.808792 245.382004,226.827057 236.231979,224.670334
z"/>
<path fill="#799F4C" opacity="1.000000" stroke="none"
	d="
M90.564453,126.031136
	C89.652443,128.275406 88.464905,130.546280 86.904625,132.522934
	C84.777115,135.218185 82.365448,137.689117 79.585556,140.646240
	C73.734718,141.634903 68.373962,142.233566 63.013199,142.832230
	C62.847969,136.720261 68.497826,134.900940 71.615250,131.217926
	C72.630096,130.018951 73.811829,128.961227 74.963776,127.504471
	C75.446739,127.096687 75.883156,127.023323 76.843201,127.211258
	C78.902946,127.035736 80.439064,126.598930 81.975182,126.162125
	C84.691048,126.083618 87.406921,126.005104 90.564453,126.031136
z"/>
<path fill="#7BB73D" opacity="1.000000" stroke="none"
	d="
M55.058308,58.475773
	C51.269638,55.300686 47.519241,51.798687 43.493126,48.123756
	C41.216957,45.836468 39.216507,43.722103 36.377560,40.721500
	C46.568439,43.057217 55.567120,45.119682 64.845123,47.451775
	C61.781830,51.197224 58.439205,54.673042 55.058308,58.475773
z"/>
<path fill="#769F48" opacity="1.000000" stroke="none"
	d="
M267.841858,102.146912
	C270.083008,101.076096 272.554352,100.316803 274.515900,98.867546
	C278.235260,96.119583 281.662445,92.976128 285.595825,90.433052
	C286.008026,92.961372 286.035339,95.053596 286.062653,97.145821
	C286.062653,97.145821 286.094177,97.596619 285.768494,97.975807
	C285.294586,98.901047 285.146332,99.447098 284.998108,99.993156
	C284.883789,100.560219 284.769440,101.127289 284.085022,101.892967
	C281.863586,103.374474 280.072266,104.514061 278.585632,105.965652
	C272.907684,111.509796 272.944336,111.547325 266.873901,106.594070
	C267.218262,104.876625 267.530060,103.511772 267.841858,102.146912
z"/>
<path fill="#759F46" opacity="1.000000" stroke="none"
	d="
M37.515869,169.011673
	C35.664047,169.854172 33.510517,170.340881 32.017719,171.606766
	C27.765614,175.212509 23.782696,179.135696 19.346806,182.966843
	C18.999765,182.999725 18.995081,182.995193 18.997274,182.582428
	C18.980791,181.066559 18.962114,179.963440 18.943438,178.860321
	C18.957939,178.438599 18.972439,178.016861 19.353403,177.121109
	C22.992479,173.418076 26.490469,170.382065 29.470455,166.902451
	C32.126606,163.800949 34.893520,162.363495 38.752773,164.373032
	C38.292843,166.159042 37.904354,167.585358 37.515869,169.011673
z"/>
<path fill="#779F51" opacity="1.000000" stroke="none"
	d="
M38.824215,164.013336
	C34.893520,162.363495 32.126606,163.800949 29.470455,166.902451
	C26.490469,170.382065 22.992479,173.418076 19.438446,176.814972
	C20.843445,172.097595 22.529865,167.212341 24.496553,162.123657
	C29.533041,158.562393 34.016453,161.398361 38.788235,163.054993
	C39.001446,163.582016 38.824215,164.013336 38.824215,164.013336
z"/>
<path fill="#7DA057" opacity="1.000000" stroke="none"
	d="
M286.320312,96.815628
	C286.035339,95.053596 286.008026,92.961372 285.956970,90.422401
	C285.949585,88.543877 285.965912,87.112091 286.030151,85.249748
	C286.244690,88.707932 286.411346,92.596687 286.320312,96.815628
z"/>
<path fill="#7BB73D" opacity="1.000000" stroke="none"
	d="
M86.524155,49.048180
	C83.526054,49.301304 80.077415,49.478752 76.329544,49.390594
	C79.378082,49.074158 82.725845,49.023335 86.524155,49.048180
z"/>
<path fill="#7BB73D" opacity="1.000000" stroke="none"
	d="
M72.796234,48.568001
	C71.218727,48.758190 69.355461,48.685268 67.258698,48.362366
	C68.853622,48.176552 70.682053,48.240719 72.796234,48.568001
z"/>
<path fill="#759F46" opacity="1.000000" stroke="none"
	d="
M19.002598,183.002609
	C18.907104,185.779449 18.808779,188.553406 18.460674,191.630005
	C18.147835,189.254837 18.084776,186.577026 18.297943,183.450653
	C18.574173,183.002090 18.995081,182.995193 18.995081,182.995193
	C18.995081,182.995193 18.999765,182.999725 19.002598,183.002609
z"/>
<path fill="#7C9F56" opacity="1.000000" stroke="none"
	d="
M81.599686,126.093628
	C80.439064,126.598930 78.902946,127.035736 77.175453,127.227310
	C78.397446,126.663101 79.810822,126.344116 81.599686,126.093628
z"/>
<path fill="#7BB73D" opacity="1.000000" stroke="none"
	d="
M92.626564,48.104145
	C91.754997,48.589684 90.531509,49.007229 89.127045,49.159523
	C90.055588,48.608231 91.165115,48.322193 92.626564,48.104145
z"/>
<path fill="#759F46" opacity="1.000000" stroke="none"
	d="
M114.846764,128.578430
	C113.855568,128.791229 112.643761,128.714981 111.229980,128.404053
	C112.227386,128.209396 113.426765,128.249405 114.846764,128.578430
z"/>
<path fill="#779F51" opacity="1.000000" stroke="none"
	d="
M18.997274,182.582428
	C18.995081,182.995193 18.574173,183.002090 18.363747,183.006607
	C18.246260,181.804092 18.339195,180.597061 18.687784,179.125183
	C18.962114,179.963440 18.980791,181.066559 18.997274,182.582428
z"/>
<path fill="#769F48" opacity="1.000000" stroke="none"
	d="
M285.904724,81.656761
	C285.586243,81.418221 285.332123,80.851471 285.109924,79.958588
	C285.417572,80.197830 285.693329,80.763199 285.904724,81.656761
z"/>
<path fill="#BCBFBD" opacity="1.000000" stroke="none"
	d="
M24.856392,206.463501
	C25.279469,206.490784 25.729303,206.829819 26.208412,207.467667
	C25.786175,207.436066 25.334663,207.105652 24.856392,206.463501
z"/>
<path fill="#7DA057" opacity="1.000000" stroke="none"
	d="
M285.202454,99.951889
	C285.146332,99.447098 285.294586,98.901047 285.673767,98.180939
	C285.911987,98.413055 285.919250,98.819237 285.870972,99.526512
	C285.815430,99.827606 285.406830,99.910622 285.202454,99.951889
z"/>
<path fill="#71A03B" opacity="1.000000" stroke="none"
	d="
M165.923538,109.646820
	C165.494812,109.812035 164.936523,109.686005 164.196381,109.330093
	C164.607666,109.185341 165.200821,109.270462 165.923538,109.646820
z"/>
<path fill="#759F46" opacity="1.000000" stroke="none"
	d="
M119.023254,129.639435
	C118.599846,129.818604 118.018753,129.719528 117.234772,129.399200
	C117.643112,129.239014 118.254341,129.300095 119.023254,129.639435
z"/>
<path fill="#75AD35" opacity="1.000000" stroke="none"
	d="
M232.160126,199.636536
	C231.957321,199.727005 231.628326,199.567719 231.171951,199.157715
	C231.374359,199.066910 231.704147,199.226837 232.160126,199.636536
z"/>
<path fill="#BCBFBD" opacity="1.000000" stroke="none"
	d="
M265.518494,237.463898
	C265.561554,237.526566 265.475464,237.401230 265.518494,237.463898
z"/>
<path fill="#75AD35" opacity="1.000000" stroke="none"
	d="
M231.013702,198.694946
	C230.810135,198.765915 230.528015,198.585922 230.142883,198.171844
	C230.338287,198.106506 230.636719,198.275253 231.013702,198.694946
z"/>
<path fill="#70A434" opacity="1.000000" stroke="none"
	d="
M187.987335,164.718765
	C187.752258,164.902664 187.483566,164.756622 187.155212,164.311340
	C187.420547,164.026123 187.706604,164.151688 187.987335,164.718765
z"/>
<path fill="#70A434" opacity="1.000000" stroke="none"
	d="
M186.685577,163.846451
	C186.729294,163.978241 186.309021,163.716629 186.229004,163.623657
	C186.353516,163.484451 186.517807,163.545776 186.685577,163.846451
z"/>
<path fill="#71A03B" opacity="1.000000" stroke="none"
	d="
M167.237350,110.628601
	C167.032669,110.732056 166.681183,110.587723 166.186279,110.189934
	C166.392075,110.084587 166.741318,110.232697 167.237350,110.628601
z"/>
<path fill="#71A03B" opacity="1.000000" stroke="none"
	d="
M193.980530,145.126770
	C184.754730,142.320145 175.523727,139.530472 166.308212,136.690491
	C164.749390,136.210098 163.257324,135.513123 161.354309,134.864624
	C160.853561,134.536560 160.663666,134.321091 160.203491,134.079956
	C160.849380,132.314575 161.375198,130.339462 162.601486,129.010895
	C166.839508,124.419289 171.321625,120.052963 175.856003,115.301956
	C177.058441,115.334656 178.115692,115.666267 179.624878,116.304398
	C181.000900,117.097664 181.924957,117.584419 182.985611,118.390747
	C190.076752,121.859856 197.031296,125.009384 203.989716,128.547653
	C202.910110,131.209946 202.038116,133.618347 200.694122,135.725723
	C198.626404,138.967911 196.234756,142.003525 193.980530,145.126770
z"/>
<path fill="#BBBEBC" opacity="1.000000" stroke="none"
	d="
M121.227081,158.917435
	C106.198997,150.623032 90.253525,146.584702 73.385696,147.106491
	C57.749729,147.590179 43.187874,154.964218 38.299007,169.862366
	C37.916042,169.893570 37.825878,169.722122 37.625793,169.281174
	C37.904354,167.585358 38.292843,166.159042 38.752773,164.373032
	C38.824215,164.013336 39.001446,163.582016 39.028156,163.351166
	C44.340080,153.574860 51.827820,146.582108 62.660515,142.944824
	C68.373962,142.233566 73.734718,141.634903 79.549820,140.986801
	C85.348846,141.700165 90.693520,142.462982 96.460449,143.281784
	C106.017914,147.128204 115.153130,150.918625 124.591125,154.869781
	C123.770187,156.282516 122.646461,157.534500 121.227081,158.917435
z"/>
<path fill="#78B237" opacity="1.000000" stroke="none"
	d="
M67.962700,198.183746
	C68.614822,198.076447 69.266953,197.969147 70.582642,197.889160
	C71.819572,197.659760 72.392937,197.403046 72.966301,197.146332
	C78.684242,194.065735 84.402191,190.985153 90.462341,187.852844
	C88.960983,190.609467 87.455795,193.730927 85.205498,196.162933
	C80.051552,201.732971 74.495636,206.929169 69.192406,212.364426
	C67.972824,213.614380 67.113525,215.215866 66.099243,217.041382
	C60.671532,217.672913 55.233025,217.918640 49.434097,217.708054
	C50.660465,215.389832 52.219704,213.503571 53.839626,211.670944
	C57.534172,207.491287 61.258472,203.337921 64.970688,199.173874
	C64.970688,199.173874 65.425529,199.023804 65.954636,198.992065
	C66.976730,198.701462 67.469719,198.442612 67.962700,198.183746
z"/>
<path fill="#78B237" opacity="1.000000" stroke="none"
	d="
M91.089272,187.812103
	C91.033180,187.606262 91.230690,187.330032 91.690842,186.984680
	C91.749939,187.190948 91.546402,187.466324 91.089272,187.812103
z"/>
<path fill="#78B237" opacity="1.000000" stroke="none"
	d="
M92.150497,186.862030
	C92.100021,186.671219 92.282463,186.391190 92.716263,186.050629
	C92.875481,186.327545 92.680740,186.588455 92.150497,186.862030
z"/>
<path fill="#74AB35" opacity="1.000000" stroke="none"
	d="
M64.561256,199.106812
	C61.258472,203.337921 57.534172,207.491287 53.839626,211.670944
	C52.219704,213.503571 50.660465,215.389832 49.035717,217.589752
	C44.108032,216.252655 39.218304,214.577515 34.106819,212.661346
	C39.054432,207.033615 44.223812,201.646927 49.704380,196.124527
	C50.189651,196.004013 50.363731,196.019180 50.934620,196.307922
	C51.591728,196.796082 51.890522,196.907562 52.227810,196.915894
	C52.227810,196.915894 52.655880,196.933594 52.978268,197.234283
	C53.837563,197.456360 54.374470,197.377747 54.911377,197.299133
	C57.991524,197.879349 61.071674,198.459564 64.561256,199.106812
z"/>
<path fill="#BBBFBC" opacity="1.000000" stroke="none"
	d="
M182.849030,118.071175
	C181.924957,117.584419 181.000900,117.097664 179.962814,116.301384
	C188.058716,108.323891 195.893600,100.193756 204.595657,93.132263
	C211.725815,87.346321 219.888504,82.832802 227.828125,77.523308
	C236.405853,74.311729 244.779709,72.688087 253.644638,76.799538
	C257.717468,80.816925 261.427460,84.754181 265.363617,88.919945
	C266.065796,91.533302 266.541840,93.918152 266.668579,96.491119
	C258.659882,82.129311 248.247650,77.845932 232.479889,82.659882
	C220.824066,86.218437 210.979340,92.875717 201.878754,100.687523
	C195.362732,106.280792 189.180298,112.262680 182.849030,118.071175
z"/>
<path fill="#7DA057" opacity="1.000000" stroke="none"
	d="
M266.841339,106.946663
	C272.944336,111.547325 272.907684,111.509796 278.585632,105.965652
	C280.072266,104.514061 281.863586,103.374474 283.884460,102.105560
	C275.701172,124.781578 259.960815,139.374451 236.173569,144.913589
	C234.397766,145.327118 232.586960,145.590408 230.399414,145.541870
	C232.330109,142.281006 234.891449,139.553848 236.873627,136.456116
	C237.813187,134.987808 237.646255,132.811478 238.259766,130.719940
	C252.099869,127.600464 261.208313,119.363060 266.841339,106.946663
z"/>
<path fill="#759F46" opacity="1.000000" stroke="none"
	d="
M194.287064,145.373749
	C196.234756,142.003525 198.626404,138.967911 200.694122,135.725723
	C202.038116,133.618347 202.910110,131.209946 204.381363,128.518295
	C210.138077,129.382401 215.507004,130.664627 221.229431,131.963943
	C222.054428,131.998962 222.525909,132.016876 222.993805,132.397873
	C220.709061,135.624985 218.324036,138.414185 216.186111,141.381424
	C214.923965,143.133148 214.053070,145.166763 213.006226,147.073608
	C206.868683,146.589310 200.731140,146.105011 194.287064,145.373749
z"/>
<path fill="#799F4C" opacity="1.000000" stroke="none"
	d="
M213.469482,147.113159
	C214.053070,145.166763 214.923965,143.133148 216.186111,141.381424
	C218.324036,138.414185 220.709061,135.624985 223.445221,132.386536
	C227.257324,131.730179 230.614410,131.448257 234.368637,131.100555
	C235.837387,131.008499 236.908997,130.982208 237.980606,130.955902
	C237.646255,132.811478 237.813187,134.987808 236.873627,136.456116
	C234.891449,139.553848 232.330109,142.281006 229.996384,145.513519
	C224.635162,146.295441 219.283951,146.724060 213.469482,147.113159
z"/>
<path fill="#719F3C" opacity="1.000000" stroke="none"
	d="
M39.018883,184.311127
	C39.322079,184.481934 39.636753,184.944275 39.948074,185.702362
	C39.639935,185.532944 39.335152,185.067810 39.018883,184.311127
z"/>

<path fill="#769F48" opacity="1.000000" stroke="none"
	d="
M267.940186,101.734283
	C267.646362,100.981491 267.393219,99.873650 267.214447,98.413895
	C267.519531,99.167725 267.750214,100.273483 267.940186,101.734283
z"/>
<path fill="#BBBEBC" opacity="1.000000" stroke="none"
	d="
M37.578133,171.068909
	C37.789467,171.744049 37.767769,172.681503 37.483955,173.860809
	C37.262932,173.178848 37.304016,172.255035 37.578133,171.068909
z"/>
<path fill="#74AB35" opacity="1.000000" stroke="none"
	d="
M72.633621,197.102448
	C72.392937,197.403046 71.819572,197.659760 70.913704,197.893677
	C71.154442,197.600113 71.727692,197.329330 72.633621,197.102448
z"/>
<path fill="#70A434" opacity="1.000000" stroke="none"
	d="
M54.609642,197.190460
	C54.374470,197.377747 53.837563,197.456360 53.165390,197.338562
	C53.456055,197.122040 53.881977,197.101929 54.609642,197.190460
z"/>
<path fill="#74AB35" opacity="1.000000" stroke="none"
	d="
M67.655884,198.122025
	C67.469719,198.442612 66.976730,198.701462 66.192101,198.961105
	C66.383324,198.661362 66.866188,198.360840 67.655884,198.122025
z"/>
<path fill="#70A434" opacity="1.000000" stroke="none"
	d="
M52.110710,196.680817
	C51.890522,196.907562 51.591728,196.796082 51.183975,196.388672
	C51.355549,196.279190 51.674580,196.362473 52.110710,196.680817
z"/>
<path fill="#7DA057" opacity="1.000000" stroke="none"
	d="
M221.229431,131.963943
	C224.937683,131.640640 228.999435,131.334442 233.516342,131.097290
	C230.614410,131.448257 227.257324,131.730179 223.448822,132.023438
	C222.525909,132.016876 222.054428,131.998962 221.229431,131.963943
z"/>
</svg>
